<?xml version="1.0" encoding="utf-8"?>
<!-- Generator: Adobe Illustrator 28.2.0, SVG Export Plug-In . SVG Version: 6.00 Build 0)  -->
<svg version="1.1" xmlns="http://www.w3.org/2000/svg" xmlns:xlink="http://www.w3.org/1999/xlink" x="0px" y="0px" viewBox="0 0 412 796" style="enable-background:new 0 0 412 796;" xml:space="preserve">
<style type="text/css">
	.st0{fill:#7151A5;}
	.st1{fill:#ED24DA;}
	.st2{opacity:0.5;fill:#FBFAFF;enable-background:new    ;}
	.st3{fill:#FFFFFF;}
	.st4{opacity:0.5;fill:#494F9E;enable-background:new    ;}
	.st5{fill:none;stroke:#0C1121;stroke-width:14.435;stroke-linecap:round;stroke-linejoin:round;}
	.st6{fill:#0C1121;}
	.st7{fill:none;stroke:#14254C;stroke-width:32.077;stroke-linecap:round;stroke-linejoin:round;}
	.st8{fill:none;stroke:#0C1B38;stroke-width:24.058;stroke-linecap:round;stroke-miterlimit:10;}
	.st9{fill:#8174F2;}
	.st10{fill:#0C1B38;}
	.st11{fill:#E9AC6A;}
	.st12{fill:#E26841;}
	.st13{fill:#4F5D6C;}
</style>
<path class="st0" d="M400.9,262.8c-18.3-10-25.3-7.7-47.8-1.6c-22.5,6.1-171.8,37.9-185.1,41.8c-16.9,5-20,2-32.2-4.2 C124.9,293.3,32.5,251,0,236.1v142.8c47.4,22.2,139.4,64.7,139.4,64.7c6.5,3.8,17.7,5.8,25.9,4.4s171.5-44.6,195.3-51 s31.2-0.6,36.7,2.5l14.7,8.3V269.1C407.2,266.3,403.4,264.2,400.9,262.8L400.9,262.8z"/>
<rect x="210.1" y="158.5" class="st1" width="0" height="6.5"/>
<path class="st2" d="M305.3,445c-12.4-0.8-24.8,1.2-36.2,5.8l-250.7,104c-5.8,2.4-12,4.1-18.4,5v137.5c5.7-1.6,11.8-3.8,18.3-6.8 c44.4-20.3,224-94.8,244.7-102.3s25.9-11.1,54.4-5c8.1,1.7,46.6,15.1,94.6,31.9v-141L305.3,445L305.3,445z"/>
<g id="symbols">
	<defs>
		<path id="SVGID_1_" d="M257.8,244.4c-8.1-3.8-17.4-6.2-26.9-2.4L25.8,336.3c-8.9,3.1-14.7,7.5-25.8,5.7v111.6 c10.3,3.3,19.2,1.2,25.8-2.3c7.8-4.1,174.9-91,191.6-94.9c21.2-5,25-2.1,40.4,4.2c11.8,4.8,105.4,58.9,154.5,87.1V300.9 L257.8,244.4L257.8,244.4z"/>
	</defs>
	<clipPath id="SVGID_00000116929241562165553730000015848058206714378387_">
		<use xlink:href="#SVGID_1_" style="overflow:visible;"/>
	</clipPath>
	<g style="clip-path:url(#SVGID_00000116929241562165553730000015848058206714378387_);">
		<path class="st3" d="M11.9,193.1v-3.3H8.6v-2.2h3.3v-3.3h2.2v3.3h3.3v2.2h-3.3v3.3H11.9z"/>
		<path class="st3" d="M67.7,193.1v-3.3h-3.3v-2.2h3.3v-3.3h2.2v3.3h3.3v2.2h-3.3v3.3H67.7z"/>
		<path class="st3" d="M123.4,193.1v-3.3h-3.3v-2.2h3.3v-3.3h2.2v3.3h3.3v2.2h-3.3v3.3 C125.7,193.1,123.4,193.1,123.4,193.1z"/>
		<path class="st3" d="M179.2,193.1v-3.3h-3.3v-2.2h3.3v-3.3h2.2v3.3h3.3v2.2h-3.3v3.3H179.2z"/>
		<path class="st3" d="M234.9,193.1v-3.3h-3.3v-2.2h3.3v-3.3h2.2v3.3h3.3v2.2h-3.3v3.3H234.9z"/>
		<path class="st3" d="M290.7,193.1v-3.3h-3.3v-2.2h3.3v-3.3h2.2v3.3h3.3v2.2h-3.3v3.3H290.7z"/>
		<path class="st3" d="M346.4,193.1v-3.3h-3.3v-2.2h3.3v-3.3h2.2v3.3h3.3v2.2h-3.3v3.3H346.4z"/>
		<path class="st3" d="M402.2,193.1v-3.3h-3.3v-2.2h3.3v-3.3h2.2v3.3h3.3v2.2h-3.3v3.3H402.2z"/>
		<path class="st3" d="M11.9,251.1v-3.3H8.6v-2.2h3.3v-3.3h2.2v3.3h3.3v2.2h-3.3v3.3H11.9z"/>
		<path class="st3" d="M67.7,251.1v-3.3h-3.3v-2.2h3.3v-3.3h2.2v3.3h3.3v2.2h-3.3v3.3H67.7z"/>
		<path class="st3" d="M123.4,251.1v-3.3h-3.3v-2.2h3.3v-3.3h2.2v3.3h3.3v2.2h-3.3v3.3 C125.7,251.1,123.4,251.1,123.4,251.1z"/>
		<path class="st3" d="M179.2,251.1v-3.3h-3.3v-2.2h3.3v-3.3h2.2v3.3h3.3v2.2h-3.3v3.3H179.2z"/>
		<path class="st3" d="M290.7,251.1v-3.3h-3.3v-2.2h3.3v-3.3h2.2v3.3h3.3v2.2h-3.3v3.3H290.7z"/>
		<path class="st3" d="M346.4,251.1v-3.3h-3.3v-2.2h3.3v-3.3h2.2v3.3h3.3v2.2h-3.3v3.3H346.4z"/>
		<path class="st3" d="M402.2,251.1v-3.3h-3.3v-2.2h3.3v-3.3h2.2v3.3h3.3v2.2h-3.3v3.3H402.2z"/>
		<path class="st3" d="M11.9,309v-3.3H8.6v-2.2h3.3v-3.3h2.2v3.3h3.3v2.2h-3.3v3.3H11.9z"/>
		<path class="st3" d="M67.7,309v-3.3h-3.3v-2.2h3.3v-3.3h2.2v3.3h3.3v2.2h-3.3v3.3H67.7z"/>
		<path class="st3" d="M179.2,309v-3.3h-3.3v-2.2h3.3v-3.3h2.2v3.3h3.3v2.2h-3.3v3.3H179.2z"/>
		<path class="st3" d="M234.9,309v-3.3h-3.3v-2.2h3.3v-3.3h2.2v3.3h3.3v2.2h-3.3v3.3H234.9z"/>
		<path class="st3" d="M290.7,309v-3.3h-3.3v-2.2h3.3v-3.3h2.2v3.3h3.3v2.2h-3.3v3.3H290.7z"/>
		<path class="st3" d="M346.4,309v-3.3h-3.3v-2.2h3.3v-3.3h2.2v3.3h3.3v2.2h-3.3v3.3H346.4z"/>
		<path class="st3" d="M402.2,309v-3.3h-3.3v-2.2h3.3v-3.3h2.2v3.3h3.3v2.2h-3.3v3.3H402.2z"/>
		<path class="st3" d="M11.9,367v-3.3H8.6v-2.2h3.3v-3.3h2.2v3.3h3.3v2.2h-3.3v3.3H11.9z"/>
		<path class="st3" d="M67.7,367v-3.3h-3.3v-2.2h3.3v-3.3h2.2v3.3h3.3v2.2h-3.3v3.3H67.7z"/>
		<path class="st3" d="M123.4,367v-3.3h-3.3v-2.2h3.3v-3.3h2.2v3.3h3.3v2.2h-3.3v3.3 C125.7,367,123.4,367,123.4,367z"/>
		<path class="st3" d="M179.2,367v-3.3h-3.3v-2.2h3.3v-3.3h2.2v3.3h3.3v2.2h-3.3v3.3H179.2z"/>
		<path class="st3" d="M234.9,367v-3.3h-3.3v-2.2h3.3v-3.3h2.2v3.3h3.3v2.2h-3.3v3.3H234.9z"/>
		<path class="st3" d="M290.7,367v-3.3h-3.3v-2.2h3.3v-3.3h2.2v3.3h3.3v2.2h-3.3v3.3H290.7z"/>
		<path class="st3" d="M346.4,367v-3.3h-3.3v-2.2h3.3v-3.3h2.2v3.3h3.3v2.2h-3.3v3.3H346.4z"/>
		<path class="st3" d="M402.2,367v-3.3h-3.3v-2.2h3.3v-3.3h2.2v3.3h3.3v2.2h-3.3v3.3H402.2z"/>
		<path class="st3" d="M11.9,425v-3.3H8.6v-2.2h3.3v-3.3h2.2v3.3h3.3v2.2h-3.3v3.3H11.9z"/>
		<path class="st3" d="M67.7,425v-3.3h-3.3v-2.2h3.3v-3.3h2.2v3.3h3.3v2.2h-3.3v3.3H67.7z"/>
		<path class="st3" d="M123.4,425v-3.3h-3.3v-2.2h3.3v-3.3h2.2v3.3h3.3v2.2h-3.3v3.3C125.7,425,123.4,425,123.4,425z"/>
		<path class="st3" d="M179.2,425v-3.3h-3.3v-2.2h3.3v-3.3h2.2v3.3h3.3v2.2h-3.3v3.3H179.2z"/>
		<path class="st3" d="M234.9,425v-3.3h-3.3v-2.2h3.3v-3.3h2.2v3.3h3.3v2.2h-3.3v3.3H234.9z"/>
		<path class="st3" d="M290.7,425v-3.3h-3.3v-2.2h3.3v-3.3h2.2v3.3h3.3v2.2h-3.3v3.3H290.7z"/>
		<path class="st3" d="M346.4,425v-3.3h-3.3v-2.2h3.3v-3.3h2.2v3.3h3.3v2.2h-3.3v3.3H346.4z"/>
		<path class="st3" d="M402.2,425v-3.3h-3.3v-2.2h3.3v-3.3h2.2v3.3h3.3v2.2h-3.3v3.3H402.2z"/>
		<path class="st3" d="M11.9,483v-3.3H8.6v-2.2h3.3v-3.3h2.2v3.3h3.3v2.2h-3.3v3.3H11.9z"/>
		<path class="st3" d="M67.7,483v-3.3h-3.3v-2.2h3.3v-3.3h2.2v3.3h3.3v2.2h-3.3v3.3H67.7z"/>
		<path class="st3" d="M123.4,483v-3.3h-3.3v-2.2h3.3v-3.3h2.2v3.3h3.3v2.2h-3.3v3.3C125.7,483,123.4,483,123.4,483z"/>
		<path class="st3" d="M179.2,483v-3.3h-3.3v-2.2h3.3v-3.3h2.2v3.3h3.3v2.2h-3.3v3.3H179.2z"/>
		<path class="st3" d="M234.9,483v-3.3h-3.3v-2.2h3.3v-3.3h2.2v3.3h3.3v2.2h-3.3v3.3H234.9z"/>
		<path class="st3" d="M290.7,483v-3.3h-3.3v-2.2h3.3v-3.3h2.2v3.3h3.3v2.2h-3.3v3.3H290.7z"/>
		<path class="st3" d="M346.4,483v-3.3h-3.3v-2.2h3.3v-3.3h2.2v3.3h3.3v2.2h-3.3v3.3H346.4z"/>
		<path class="st3" d="M402.2,483v-3.3h-3.3v-2.2h3.3v-3.3h2.2v3.3h3.3v2.2h-3.3v3.3H402.2z"/>
		<path class="st3" d="M11.9,541v-3.3H8.6v-2.2h3.3V532h2.2v3.3h3.3v2.2h-3.3v3.3h-2.2V541z"/>
		<path class="st3" d="M67.7,541v-3.3h-3.3v-2.2h3.3V532h2.2v3.3h3.3v2.2h-3.3v3.3h-2.2V541z"/>
		<path class="st3" d="M123.4,541v-3.3h-3.3v-2.2h3.3V532h2.2v3.3h3.3v2.2h-3.3v3.3C125.7,541,123.4,541,123.4,541z"/>
		<path class="st3" d="M179.2,541v-3.3h-3.3v-2.2h3.3V532h2.2v3.3h3.3v2.2h-3.3v3.3h-2.2V541z"/>
		<path class="st3" d="M234.9,541v-3.3h-3.3v-2.2h3.3V532h2.2v3.3h3.3v2.2h-3.3v3.3h-2.2V541z"/>
		<path class="st3" d="M290.7,541v-3.3h-3.3v-2.2h3.3V532h2.2v3.3h3.3v2.2h-3.3v3.3h-2.2V541z"/>
		<path class="st3" d="M346.4,541v-3.3h-3.3v-2.2h3.3V532h2.2v3.3h3.3v2.2h-3.3v3.3h-2.2V541z"/>
		<path class="st3" d="M402.2,541v-3.3h-3.3v-2.2h3.3V532h2.2v3.3h3.3v2.2h-3.3v3.3h-2.2V541z"/>
	</g>
</g>
<path class="st4" d="M323.2,551.5c-19.7,7.7-47.9,13.1-70.1,3.9l-118.1-49l-132.6-55c-0.8-0.3-1.6-0.7-2.3-1V592c2.5,0.9,5.3,2,8.4,3.1c10.7,3.9,64.1,25.8,119.2,48.8c51.3,21.4,104,43.7,125.5,53.5c44.4,20.3,67.8,5.3,95.4-6.6c8.2-3.6,33.1-15.5,63.5-30.2V515.1C363.2,535.1,323.2,551.5,323.2,551.5L323.2,551.5z"/>
<g id="mascot">
	<path class="st5" d="M121,513.6c2.7,10.7,5.3,21.4,8,32.2"/>
	<path class="st6" d="M135.6,546.5c0.2,3.6-2.5,6.7-6.1,6.9c-0.2,0-0.3,0-0.5,0h-2.5l-22.3-0.3c-2.2,0-4-1.9-4-4.1c0-2,1.5-3.6,3.4-3.9l11.9-2.1l12.2-2.5c3.5-0.7,7,1.5,7.7,5.1C135.6,545.8,135.6,546.1,135.6,546.5L135.6,546.5L135.6,546.5z"/>
	<path class="st7" d="M191,503.5c-23.2-31-52-40.6-63.9-32c-12.8,9.3-5.9,39.4-5.4,41.4"/>
	<path class="st8" d="M185.6,429.3c-23.8-3-43.4,15.5-43.2,35.2c0.2,16.7,14.6,32.7,34.3,34.8"/>
	<path class="st8" d="M207.7,429.3c23.8-3,43.4,15.5,43.2,35.2c-0.2,16.7-14.6,32.7-34.3,34.8"/>
	<path d="M229.5,474.6l1-28.1c0.7-16.2-11.9-29.9-28.1-30.5c-1.8-0.1-3.5,0-5.3,0.3l0,0c-16,2.4-27.1,17.4-24.6,33.4c0.2,1.3,0.5,2.6,0.9,3.8l7.8,27.1c3.3,11.5,14.4,19.1,26.3,17.9l0,0C219.7,497,229.1,486.9,229.5,474.6L229.5,474.6z"/>
	<path class="st6" d="M168.1,532.7c-2.9-2.1-7-1.3-9.1,1.6c-0.1,0.1-0.2,0.3-0.3,0.4l-1.3,2.1L146,556c-1.1,1.9-0.5,4.4,1.4,5.5c1.7,1,3.8,0.6,5.1-0.8l8-9l8.6-9.1c2.5-2.6,2.3-6.7-0.3-9.2C168.6,533.1,168.4,532.9,168.1,532.7L168.1,532.7L168.1,532.7z"/>
	<path class="st5" d="M220.2,534.5c-6.6,0.7-13.3,1.4-20.2,1.9c-12.6,1-24.8,1.7-36.5,2"/>
	<path class="st7" d="M214.8,499.4c7.1-0.2,14.1,0.1,21.1,1.1c12.1,1.6,18.3,2.4,23.3,7c4.7,4.5,8.4,12.4,6.8,17.9c-5,17.1-61.9,13.4-67,13"/>
	<rect class="st9" x="184.2" y="477.9" transform="matrix(0.9876 -0.1569 0.1569 0.9876 -73.6471 38.6285)" width="47.3" height="15.8"/>
	<path class="st9" d="M217.2,403.6c6.5-2.6,11-2,13.9-2.7c5.4-1.2,11.8-7.9,16.4-32.3l-11.4-3.2c-0.8,19.2-5.8,25.9-10.5,28.3c-2.2,1.1-5.1,1.8-8.9,4.6c-3.7,2.7-6.6,6.4-8.3,10.7C211,406.7,214,404.9,217.2,403.6L217.2,403.6z"/>
	<path class="st9" d="M230.3,361.9l-10-3.9c1.7,13.5-1.4,21.1-4.6,25.6c-2.2,3.1-5,6-7,11.4c-1.5,4.1-1.7,8.6-0.6,12.9c1.6-4.4,4.1-8.5,7.4-11.9c3.7-3.7,6.3-5.2,8.4-7C227.9,385.6,231.8,378.5,230.3,361.9L230.3,361.9z"/>
	<path class="st10" d="M201.5,394.9L199,395c-9.6,0.3-17.1,8.4-16.8,18c0,0.4,0,0.8,0.1,1.1l1.8,18.7c0.9,9.1,8.7,16,17.9,15.7l0,0c9.2-0.3,16.5-7.7,16.8-16.8l0.6-18.7c0.3-9.6-7.2-17.6-16.8-17.9C202.2,394.9,201.8,394.9,201.5,394.9L201.5,394.9z"/>
	<rect class="st9" x="182.4" y="413.9" transform="matrix(0.9995 -3.301265e-02 3.301265e-02 0.9995 -13.7085 6.864)" width="37.2" height="9.3"/>
	<path class="st11" d="M212.5,427.7l-22.9,0.8c-2.6,0.1-4.8-2-4.9-4.6l0,0c-0.1-2.6,2-4.8,4.6-4.9l22.9-0.8c2.6-0.1,4.8,2,4.9,4.6l0,0C217.2,425.4,215.2,427.6,212.5,427.7z"/>
	<path class="st12" d="M198.2,428.2l4.1-0.1l-0.3-7.9L198.2,428.2L198.2,428.2z"/>	
	<path class="st3" d="M191.6,426.2l-2.3,0.1c-0.7,0-1.3-0.5-1.4-1.3l0,0c0-0.7,0.5-1.3,1.3-1.4l2.3-0.1c0.7,0,1.3,0.5,1.4,1.3l0,0C192.9,425.6,192.3,426.2,191.6,426.2z"/>
	<path class="st3" d="M211.9,425.5l-2.3,0.1c-0.7,0-1.3-0.5-1.4-1.3l0,0c0-0.7,0.5-1.3,1.3-1.4l2.3-0.1c0.7,0,1.3,0.5,1.4,1.3l0,0C213.2,424.9,212.6,425.5,211.9,425.5z"/>
	<circle cx="190.5" cy="426" r="1.3"/>
	<circle cx="210.8" cy="425.3" r="1.3"/>
	<rect class="st13" x="162.2" y="467.1" width="83.9" height="60.7"/>
	<rect x="162.2" y="526.4" width="83.9" height="5.4"/>
	<path class="st3" d="M206.2,495.6l-3.3-4.4l-0.5,4l-4.4,3.3l4,0.5l3.3,4.4l0.5-4l4.4-3.3L206.2,495.6L206.2,495.6zM204,498.1c-0.4,0-0.7-0.4-0.6-0.8s0.4-0.7,0.8-0.6c0.4,0,0.7,0.4,0.6,0.8C204.8,497.9,204.4,498.1,204,498.1L204,498.1L204,498.1z"/>
</g>
<path class="st3" d="M98.9,172.2v-3.9h11.6v3.9h-1.7v-2.4h-3.2v10.6h2.3v1.6h-6.5v-1.6h2.3v-10.6h-3.2v2.4H98.9z
	M109.5,177.1c-0.1-1.4,0.4-2.7,1.3-3.7c0.8-0.9,2.1-1.5,3.3-1.4c1.2,0,2.3,0.4,3.1,1.2c0.8,0.9,1.3,2.2,1.2,3.4v0.7h-7.1
	c0,0.9,0.3,1.7,0.8,2.4c0.5,0.6,1.3,0.9,2,0.9c0.6,0,1.2-0.2,1.7-0.6c0.4-0.4,0.7-0.9,0.8-1.4h1.7c-0.1,1-0.5,1.9-1.3,2.5
	c-0.8,0.7-1.8,1-2.9,1c-1.3,0.1-2.6-0.4-3.5-1.4C109.9,179.8,109.5,178.5,109.5,177.1z M114.2,173.5c-0.6,0-1.3,0.2-1.7,0.7
	c-0.5,0.5-0.9,1.1-1,1.8h5.2c0-0.7-0.3-1.4-0.8-1.9C115.4,173.7,114.8,173.5,114.2,173.5z M118.9,168.8v-1.4h3.3v13.2h1.5v1.4h-4.8
	v-1.4h1.5v-11.8H118.9z M124.1,177.1c-0.1-1.4,0.4-2.7,1.3-3.7c0.8-0.9,2.1-1.5,3.3-1.4c1.2,0,2.3,0.4,3.1,1.2
	c0.8,0.9,1.3,2.2,1.2,3.4v0.7h-7.1c0,0.9,0.3,1.7,0.8,2.4c0.5,0.6,1.3,0.9,2,0.9c0.6,0,1.2-0.2,1.7-0.6c0.4-0.4,0.7-0.9,0.8-1.4
	h1.7c-0.1,1-0.5,1.9-1.3,2.5c-0.8,0.7-1.8,1-2.9,1c-1.3,0.1-2.6-0.4-3.5-1.4C124.5,179.8,124,178.5,124.1,177.1z M128.7,173.5
	c-0.6,0-1.3,0.2-1.7,0.7c-0.5,0.5-0.9,1.1-1,1.8h5.2c0-0.7-0.3-1.4-0.8-1.9C130,173.7,129.4,173.5,128.7,173.5z M133.7,173.7v-1.4
	h3.3v1.9h0.1c0.2-0.6,0.6-1.1,1.1-1.5c0.5-0.3,1.1-0.5,1.7-0.4h0.5v1.7h-0.6c-0.7,0-1.3,0.2-1.9,0.7c-0.6,0.6-1,1.4-0.9,2.3v3.7
	h2.3v1.4h-5.7v-1.4h1.6v-6.9h-1.5L133.7,173.7L133.7,173.7z M140.7,182v-1.4h1.6v-6.9h-1.6v-1.4h3.4v8.3h1.5v1.4L140.7,182
	L140.7,182z M142.3,169.4v-2h1.9v2H142.3z M151.4,173.7v-1.4h5v1.4H155l-2.6,2.5l2.8,4.4h1.4v1.4h-2.5l-2.9-4.6l-1.7,1.6v1.6h1.5
	v1.4h-4.8v-1.4h1.5v-11.8h-1.5v-1.4h3.3v9.6l3.5-3.3H151.4z M169.9,169.8v-1.6h5v1.6h-1.6v6.7c0,2-0.5,3.5-1.5,4.4
	c-2.4,1.8-5.6,1.8-8,0c-1-0.9-1.5-2.3-1.5-4.4v-6.7h-1.6v-1.6h5v1.6h-1.6v6.7c-0.1,1.1,0.3,2.1,0.9,2.9c1.6,1.4,4,1.4,5.5,0
	c0.6-0.8,1-1.9,0.9-2.9v-6.7H169.9z M175.8,169.8v-1.6h5.4v1.6h-1.8v10.6h1.8v1.6h-5.4v-1.6h1.8v-10.6H175.8z M185.5,182v-1.4h1.6
	v-6.9h-1.6v-1.4h1.6v-1.6c-0.1-0.9,0.2-1.8,0.8-2.4c0.7-0.6,1.6-0.9,2.4-0.8h1v1.4h-1c-0.5,0-0.9,0.1-1.2,0.5
	c-0.2,0.4-0.4,0.9-0.3,1.4v1.5h2.2v1.4h-2.2v6.9h2.2v1.4L185.5,182L185.5,182z M191.4,177.1c-0.1-1.4,0.4-2.7,1.4-3.7
	c0.9-0.9,2.1-1.4,3.4-1.4c1.3-0.1,2.6,0.4,3.5,1.4s1.4,2.4,1.3,3.7c0.1,1.4-0.4,2.7-1.4,3.7c-0.9,0.9-2.1,1.4-3.4,1.4
	c-1.3,0.1-2.6-0.4-3.5-1.4S191.4,178.5,191.4,177.1z M193.3,177.1c0,0.9,0.2,1.9,0.8,2.6c1,1.2,2.8,1.3,4,0.3
	c0.1-0.1,0.2-0.2,0.3-0.3c0.6-0.7,0.9-1.7,0.8-2.6c0.1-1-0.2-1.9-0.8-2.6c-0.5-0.6-1.3-1-2.1-1s-1.6,0.3-2.1,1
	C193.5,175.3,193.2,176.2,193.3,177.1z M201.5,173.7v-1.4h3.3v1.9h0.1c0.2-0.6,0.6-1.1,1.1-1.5c0.5-0.3,1.1-0.5,1.7-0.4h0.5v1.7
	h-0.6c-0.7,0-1.3,0.2-1.9,0.7c-0.6,0.6-1,1.4-0.9,2.3v3.7h2.3v1.4h-5.7v-1.4h1.6v-6.9h-1.5L201.5,173.7L201.5,173.7z M213.1,182
	v-2.3h2.2v2.3H213.1z M226.4,169.8v-1.6h5.3v1.6H230V182h-1.8l-7.6-10.6h-0.1l0.1,9h1.8v1.6H217v-1.6h1.8v-10.6H217v-1.6h3.5
	l7.6,10.6h0.1l-0.1-9L226.4,169.8L226.4,169.8z M232.5,169.8v-1.6h11v3.9h-1.7v-2.3H236v4.4h5v1.6h-5v4.6h5.9v-2.3h1.7v3.9h-11.2
	v-1.6h1.8v-10.6L232.5,169.8L232.5,169.8z M244.9,172.2v-3.9h11.6v3.9h-1.7v-2.4h-3.2v10.6h2.3v1.6h-6.5v-1.6h2.3v-10.6h-3.2v2.4
	H244.9z M260.9,169.8v-1.6h4l5.1,11.3l0,0l5-11.3h4v1.6h-1.8v10.6h1.8v1.6h-5.4v-1.6h1.8l0.1-9.3h-0.1l-4.8,10.9h-1.4l-4.8-10.6
	h-0.1l0.1,9h1.8v1.6h-5.4v-1.6h1.8v-10.6L260.9,169.8L260.9,169.8z M283,169.8v-1.6h4.7l4.5,12.2h1.6v1.6h-5v-1.6h1.6l-0.9-2.5
	h-5.7l-0.9,2.5h1.6v1.6h-5v-1.6h1.6l3.9-10.6L283,169.8L283,169.8z M286.6,170.2L286.6,170.2l-2.3,6.2h4.5L286.6,170.2z
	M301.9,169.8v-1.6h5v1.6h-1.6v6.7c0,2-0.5,3.5-1.5,4.4c-2.4,1.8-5.6,1.8-8,0c-1-0.9-1.5-2.3-1.5-4.4v-6.7h-1.6v-1.6h5v1.6h-1.6
	v6.7c-0.1,1.1,0.3,2.1,0.9,2.9c1.6,1.4,4,1.4,5.5,0c0.6-0.8,1-1.9,0.9-2.9v-6.7H301.9z M307.8,169.8v-1.6h5.4v1.6h-1.8v10.6h1.8
	v1.6h-5.4v-1.6h1.8v-10.6H307.8z"/><path class="st3" d="M98.9,172.2v-3.9h11.6v3.9h-1.7v-2.4h-3.2v10.6h2.3v1.6h-6.5v-1.6h2.3v-10.6h-3.2v2.4H98.9z
	M109.5,177.1c-0.1-1.4,0.4-2.7,1.3-3.7c0.8-0.9,2.1-1.5,3.3-1.4c1.2,0,2.3,0.4,3.1,1.2c0.8,0.9,1.3,2.2,1.2,3.4v0.7h-7.1
	c0,0.9,0.3,1.7,0.8,2.4c0.5,0.6,1.3,0.9,2,0.9c0.6,0,1.2-0.2,1.7-0.6c0.4-0.4,0.7-0.9,0.8-1.4h1.7c-0.1,1-0.5,1.9-1.3,2.5
	c-0.8,0.7-1.8,1-2.9,1c-1.3,0.1-2.6-0.4-3.5-1.4C109.9,179.8,109.5,178.5,109.5,177.1z M114.2,173.5c-0.6,0-1.3,0.2-1.7,0.7
	c-0.5,0.5-0.9,1.1-1,1.8h5.2c0-0.7-0.3-1.4-0.8-1.9C115.4,173.7,114.8,173.5,114.2,173.5z M118.9,168.8v-1.4h3.3v13.2h1.5v1.4h-4.8
	v-1.4h1.5v-11.8H118.9z M124.1,177.1c-0.1-1.4,0.4-2.7,1.3-3.7c0.8-0.9,2.1-1.5,3.3-1.4c1.2,0,2.3,0.4,3.1,1.2
	c0.8,0.9,1.3,2.2,1.2,3.4v0.7h-7.1c0,0.9,0.3,1.7,0.8,2.4c0.5,0.6,1.3,0.9,2,0.9c0.6,0,1.2-0.2,1.7-0.6c0.4-0.4,0.7-0.9,0.8-1.4
	h1.7c-0.1,1-0.5,1.9-1.3,2.5c-0.8,0.7-1.8,1-2.9,1c-1.3,0.1-2.6-0.4-3.5-1.4C124.5,179.8,124,178.5,124.1,177.1z M128.7,173.5
	c-0.6,0-1.3,0.2-1.7,0.7c-0.5,0.5-0.9,1.1-1,1.8h5.2c0-0.7-0.3-1.4-0.8-1.9C130,173.7,129.4,173.5,128.7,173.5z M133.7,173.7v-1.4
	h3.3v1.9h0.1c0.2-0.6,0.6-1.1,1.1-1.5c0.5-0.3,1.1-0.5,1.7-0.4h0.5v1.7h-0.6c-0.7,0-1.3,0.2-1.9,0.7c-0.6,0.6-1,1.4-0.9,2.3v3.7
	h2.3v1.4h-5.7v-1.4h1.6v-6.9h-1.5L133.7,173.7L133.7,173.7z M140.7,182v-1.4h1.6v-6.9h-1.6v-1.4h3.4v8.3h1.5v1.4L140.7,182
	L140.7,182z M142.3,169.4v-2h1.9v2H142.3z M151.4,173.7v-1.4h5v1.4H155l-2.6,2.5l2.8,4.4h1.4v1.4h-2.5l-2.9-4.6l-1.7,1.6v1.6h1.5
	v1.4h-4.8v-1.4h1.5v-11.8h-1.5v-1.4h3.3v9.6l3.5-3.3H151.4z M169.9,169.8v-1.6h5v1.6h-1.6v6.7c0,2-0.5,3.5-1.5,4.4
	c-2.4,1.8-5.6,1.8-8,0c-1-0.9-1.5-2.3-1.5-4.4v-6.7h-1.6v-1.6h5v1.6h-1.6v6.7c-0.1,1.1,0.3,2.1,0.9,2.9c1.6,1.4,4,1.4,5.5,0
	c0.6-0.8,1-1.9,0.9-2.9v-6.7H169.9z M175.8,169.8v-1.6h5.4v1.6h-1.8v10.6h1.8v1.6h-5.4v-1.6h1.8v-10.6H175.8z M185.5,182v-1.4h1.6
	v-6.9h-1.6v-1.4h1.6v-1.6c-0.1-0.9,0.2-1.8,0.8-2.4c0.7-0.6,1.6-0.9,2.4-0.8h1v1.4h-1c-0.5,0-0.9,0.1-1.2,0.5
	c-0.2,0.4-0.4,0.9-0.3,1.4v1.5h2.2v1.4h-2.2v6.9h2.2v1.4L185.5,182L185.5,182z M191.4,177.1c-0.1-1.4,0.4-2.7,1.4-3.7
	c0.9-0.9,2.1-1.4,3.4-1.4c1.3-0.1,2.6,0.4,3.5,1.4s1.4,2.4,1.3,3.7c0.1,1.4-0.4,2.7-1.4,3.7c-0.9,0.9-2.1,1.4-3.4,1.4
	c-1.3,0.1-2.6-0.4-3.5-1.4S191.4,178.5,191.4,177.1z M193.3,177.1c0,0.9,0.2,1.9,0.8,2.6c1,1.2,2.8,1.3,4,0.3
	c0.1-0.1,0.2-0.2,0.3-0.3c0.6-0.7,0.9-1.7,0.8-2.6c0.1-1-0.2-1.9-0.8-2.6c-0.5-0.6-1.3-1-2.1-1s-1.6,0.3-2.1,1
	C193.5,175.3,193.2,176.2,193.3,177.1z M201.5,173.7v-1.4h3.3v1.9h0.1c0.2-0.6,0.6-1.1,1.1-1.5c0.5-0.3,1.1-0.5,1.7-0.4h0.5v1.7
	h-0.6c-0.7,0-1.3,0.2-1.9,0.7c-0.6,0.6-1,1.4-0.9,2.3v3.7h2.3v1.4h-5.7v-1.4h1.6v-6.9h-1.5L201.5,173.7L201.5,173.7z M213.1,182
	v-2.3h2.2v2.3H213.1z M226.4,169.8v-1.6h5.3v1.6H230V182h-1.8l-7.6-10.6h-0.1l0.1,9h1.8v1.6H217v-1.6h1.8v-10.6H217v-1.6h3.5
	l7.6,10.6h0.1l-0.1-9L226.4,169.8L226.4,169.8z M232.5,169.8v-1.6h11v3.9h-1.7v-2.3H236v4.4h5v1.6h-5v4.6h5.9v-2.3h1.7v3.9h-11.2
	v-1.6h1.8v-10.6L232.5,169.8L232.5,169.8z M244.9,172.2v-3.9h11.6v3.9h-1.7v-2.4h-3.2v10.6h2.3v1.6h-6.5v-1.6h2.3v-10.6h-3.2v2.4
	H244.9z M260.9,169.8v-1.6h4l5.1,11.3l0,0l5-11.3h4v1.6h-1.8v10.6h1.8v1.6h-5.4v-1.6h1.8l0.1-9.3h-0.1l-4.8,10.9h-1.4l-4.8-10.6
	h-0.1l0.1,9h1.8v1.6h-5.4v-1.6h1.8v-10.6L260.9,169.8L260.9,169.8z M283,169.8v-1.6h4.7l4.5,12.2h1.6v1.6h-5v-1.6h1.6l-0.9-2.5
	h-5.7l-0.9,2.5h1.6v1.6h-5v-1.6h1.6l3.9-10.6L283,169.8L283,169.8z M286.6,170.2L286.6,170.2l-2.3,6.2h4.5L286.6,170.2z
	M301.9,169.8v-1.6h5v1.6h-1.6v6.7c0,2-0.5,3.5-1.5,4.4c-2.4,1.8-5.6,1.8-8,0c-1-0.9-1.5-2.3-1.5-4.4v-6.7h-1.6v-1.6h5v1.6h-1.6
	v6.7c-0.1,1.1,0.3,2.1,0.9,2.9c1.6,1.4,4,1.4,5.5,0c0.6-0.8,1-1.9,0.9-2.9v-6.7H301.9z M307.8,169.8v-1.6h5.4v1.6h-1.8v10.6h1.8
	v1.6h-5.4v-1.6h1.8v-10.6H307.8z"/>
</svg>
