<?xml version="1.0" encoding="utf-8"?>
<svg version="1.1" xmlns="http://www.w3.org/2000/svg" xmlns:xlink="http://www.w3.org/1999/xlink" x="0px" y="0px" viewBox="0 0 160 160" style="enable-background:new 0 0 160 160;" xml:space="preserve">
<style type="text/css">
	.st0{fill:#7151A5;}
	.st1{clip-path:url(#SVGID_00000085229526341131654400000004417426641889320888_);}
	.st2{fill:none;stroke:#14254C;stroke-width:32.077;stroke-linecap:round;stroke-linejoin:round;}
	.st3{fill:none;stroke:#0C1B38;stroke-width:24.058;stroke-linecap:round;stroke-miterlimit:10;}
	.st4{fill:#8174F2;}
	.st5{fill:#0C1B38;}
	.st6{fill:#E9AC6A;}
	.st7{fill:#E26841;}
	.st8{fill:#FFFFFF;}
	.st9{fill:#4F5D6C;}
</style>
<circle class="st0" cx="80" cy="80" r="80"/>
<g>
	<defs>
		<circle id="SVGID_1_" cx="80" cy="80" r="80"/>
	</defs>
	<clipPath id="SVGID_00000060709838294328672070000013825424023199843774_">
		<use xlink:href="#SVGID_1_"  style="overflow:visible;"/>
	</clipPath>
	<g style="clip-path:url(#SVGID_00000060709838294328672070000013825424023199843774_);">
		<path class="st2" d="M63.8,165.8c-23.2-31-52-40.6-63.9-32c-12.8,9.3-5.9,39.4-5.4,41.4"/>
		<path class="st3" d="M58.4,91.5c-23.8-3-43.4,15.5-43.2,35.2c0.2,16.7,14.6,32.7,34.3,34.8"/>
		<path class="st3" d="M80.5,91.5c23.8-3,43.4,15.5,43.2,35.2c-0.2,16.7-14.6,32.7-34.3,34.8"/>
		<path d="M102.2,136.8l1-28.1c0.7-16.2-11.9-29.9-28.1-30.5c-1.8-0.1-3.5,0-5.3,0.3l0,0 c-16,2.4-27.1,17.4-24.6,33.4c0.2,1.3,0.5,2.6,0.9,3.8l7.8,27.1c3.3,11.5,14.4,19.1,26.3,17.9l0,0 C92.5,159.2,101.9,149.1,102.2,136.8L102.2,136.8z"/>
		<path class="st2" d="M87.5,161.6c7.1-0.2,14.1,0.1,21.1,1.1c12.1,1.6,18.3,2.4,23.3,7.1c4.7,4.5,8.4,12.4,6.8,17.9 c-5,17.1-61.9,13.4-67,13"/>
		<rect class="st4" x="56.9" y="140.2" transform="matrix(0.9876 -0.1569 0.1569 0.9876 -22.2378 14.4772)" width="47.3" height="15.8"/>

		<path class="st4" d="M90,65.8c6.5-2.6,11-2,13.9-2.7c5.4-1.2,11.8-7.9,16.4-32.3l-11.4-3.2 C108,46.8,103,53.5,98.3,55.9c-2.2,1.1-5.1,1.8-8.9,4.6c-3.7,2.7-6.6,6.4-8.3,10.7C83.8,68.9,86.8,67.1,90,65.8L90,65.8z"/>
		<path class="st4" d="M103.1,24.2l-10-3.9c1.7,13.5-1.4,21.1-4.6,25.6c-2.2,3.1-5,6-7,11.4c-1.5,4.1-1.7,8.6-0.6,12.9c1.6-4.4,4.1-8.5,7.4-11.9c3.7-3.7,6.3-5.2,8.4-7C100.7,47.8,104.6,40.7,103.1,24.2L103.1,24.2z"/>
		<path class="st5" d="M74.2,57.2l-2.4,0.1c-9.6,0.3-17.1,8.4-16.8,18c0,0.4,0,0.8,0.1,1.1L56.9,95c0.9,9.1,8.7,16,17.9,15.7l0,0c9.2-0.3,16.5-7.7,16.8-16.8l0.6-18.7c0.3-9.6-7.2-17.6-16.8-17.9C75,57.1,74.6,57.1,74.2,57.2z" />
		<rect class="st4" x="55.2" y="76.1" transform="matrix(0.9995 -3.301563e-02 3.301563e-02 0.9995 -2.6261 2.4805)" width="37.2" height="9.3"/>
		<path class="st6" d="M85.3,89.9l-22.9,0.8c-2.6,0.1-4.8-2-4.9-4.6l0,0c-0.1-2.6,2-4.8,4.6-4.9L85,80.4c2.6-0.1,4.8,2,4.9,4.6l0,0C90,87.7,87.9,89.9,85.3,89.9z"/>
		<path class="st7" d="M70.9,90.4l4.1-0.1l-0.3-7.9L70.9,90.4L70.9,90.4z"/>
		<path class="st8" d="M64.3,88.4L62,88.5c-0.7,0-1.3-0.5-1.4-1.3l0,0c0-0.7,0.5-1.3,1.3-1.4l2.3-0.1 c0.7,0,1.3,0.5,1.4,1.3l0,0C65.6,87.8,65.1,88.4,64.3,88.4z"/>
		<path class="st8" d="M84.7,87.7l-2.3,0.1c-0.7,0-1.3-0.5-1.4-1.3l0,0c0-0.7,0.5-1.3,1.3-1.4l2.3-0.1 c0.7,0,1.3,0.5,1.4,1.3l0,0C86,87.1,85.4,87.7,84.7,87.7z"/>
		<circle cx="63.2" cy="88.2" r="1.3"/>
		<circle cx="83.6" cy="87.6" r="1.3"/>
		<rect class="st9" x="34.9" y="129.3" width="83.8" height="60.7"/>
		<path class="st8" d="M79,157.9l-3.3-4.4l-0.5,4l-4.4,3.3l4,0.5l3.3,4.4l0.5-4l4.4-3.3L79,157.9L79,157.9z M76.8,160.3c-0.4,0-0.7-0.4-0.6-0.8s0.4-0.7,0.8-0.6c0.4,0,0.7,0.4,0.6,0.8C77.6,160.1,77.2,160.4,76.8,160.3 C76.8,160.3,76.8,160.3,76.8,160.3z"/>
	</g>
</g>
</svg>
