<svg xmlns="http://www.w3.org/2000/svg"
	 viewBox="0 0 512 512">
<rect width="512" height="512" fill="#4B35CC" />
<g>
	<path fill="#ffffff" d="M336,219.1L336,219.1v85.5c0,1.9-1.4,4.2-3,5.2l-2.7,1.6l-21.3,12.3l-14.4,8.3l-3,1.7v-92.4l-80-46.1l37.9-22
		l3.5-2c1.6-1,4.3-1,5.9,0l52.7,30.4l24.3,14.1L336,219.1L336,219.1z M273.8,251.7l-16.4-9.5L219,220c-1.6-1-4.3-1-5.9,0l-34,19.7
		l-3,1.7l57.8,33.4v66.7l34-19.7l3-1.7c1.7-1,3-3.3,3-5.2v-59.8L273.8,251.7L273.8,251.7z M176,308.1l39.9,23V285L176,308.1z"/>
</g>
</svg>
