<svg version="1.1" id="Layer_3" xmlns="http://www.w3.org/2000/svg" xmlns:xlink="http://www.w3.org/1999/xlink" x="0" y="0" viewBox="0 0 412 796" style="enable-background:new 0 0 412 796" xml:space="preserve">
  <style>
    .st5{fill:#fff}.st7{fill:none;stroke:#0c1121;stroke-width:14.435;stroke-linecap:round;stroke-linejoin:round}.st8{fill:#0c1121}.st10,.st9{fill:none;stroke-linecap:round}.st9{stroke:#14254c;stroke-width:32.077;stroke-linejoin:round}.st10{stroke:#0c1b38;stroke-width:24.058;stroke-miterlimit:10}.st11{fill:#22b573}
  </style>
  <path d="M400.9 262.8c-18.3-10-25.3-7.7-47.8-1.6-22.5 6.1-171.8 37.9-185.1 41.8-16.9 5-20 2-32.2-4.2C124.9 293.3 32.5 251 0 236.1v142.8c47.4 22.2 139.4 64.7 139.4 64.7 6.5 3.8 17.7 5.8 25.9 4.4s171.5-44.6 195.3-51 31.2-.6 36.7 2.5l14.7 8.3V269.1c-4.8-2.8-8.6-4.9-11.1-6.3z" style="fill:#8660c5"/>
  <path d="M400.9 262.8c-18.3-10-25.3-7.7-47.8-1.6-22.5 6.1-171.8 37.9-185.1 41.8-16.9 5-20 2-32.2-4.2C124.9 293.3 32.5 251 0 236.1v142.8c47.4 22.2 139.4 64.7 139.4 64.7 6.5 3.8 17.7 5.8 25.9 4.4s171.5-44.6 195.3-51 31.2-.6 36.7 2.5l14.7 8.3V269.1c-4.8-2.8-8.6-4.9-11.1-6.3z" style="opacity:.928;fill:#7c59b6;enable-background:new"/>
  <path d="M305.3 445c-12.4-.8-24.8 1.2-36.2 5.8l-250.7 104c-5.8 2.4-12 4.1-18.4 5v137.5c5.7-1.6 11.8-3.8 18.3-6.8 44.4-20.3 224-94.8 244.7-102.3s25.9-11.1 54.4-5c8.1 1.7 46.6 15.1 94.6 31.9v-141L305.3 445z" style="opacity:.5;fill:#fbfaff;enable-background:new"/>
  <defs>
    <path id="SVGID_1_" d="M257.8 244.4c-8.1-3.8-17.4-6.2-26.9-2.4L25.8 336.3c-8.9 3.1-14.7 7.5-25.8 5.7v111.6c10.3 3.3 19.2 1.2 25.8-2.3 7.8-4.1 174.9-91 191.6-94.9 21.2-5 25-2.1 40.4 4.2 11.8 4.8 105.4 58.9 154.5 87.1V300.9l-154.5-56.5z"/>
  </defs>
  <clipPath id="SVGID_00000073691726279749874900000007012688025123770508_">
    <use xlink:href="#SVGID_1_" style="overflow:visible"/>
  </clipPath>
  <g style="clip-path:url(#SVGID_00000073691726279749874900000007012688025123770508_)">
    <g id="Mask_Group_2">
      <g id="Repeat_Grid_23">
        <path id="Union_3-217" class="st5" d="M11.9 193.1v-3.3H8.6v-2.2h3.3v-3.3h2.2v3.3h3.3v2.2h-3.3v3.3h-2.2z"/>
        <path id="Union_3-218" class="st5" d="M67.7 193.1v-3.3h-3.3v-2.2h3.3v-3.3h2.2v3.3h3.3v2.2h-3.3v3.3h-2.2z"/>
        <path id="Union_3-219" class="st5" d="M123.4 193.1v-3.3h-3.3v-2.2h3.3v-3.3h2.2v3.3h3.3v2.2h-3.3v3.3h-2.2z"/>
        <path id="Union_3-220" class="st5" d="M179.2 193.1v-3.3h-3.3v-2.2h3.3v-3.3h2.2v3.3h3.3v2.2h-3.3v3.3h-2.2z"/>
        <path id="Union_3-221" class="st5" d="M234.9 193.1v-3.3h-3.3v-2.2h3.3v-3.3h2.2v3.3h3.3v2.2h-3.3v3.3h-2.2z"/>
        <path id="Union_3-222" class="st5" d="M290.7 193.1v-3.3h-3.3v-2.2h3.3v-3.3h2.2v3.3h3.3v2.2h-3.3v3.3h-2.2z"/>
        <path id="Union_3-223" class="st5" d="M346.4 193.1v-3.3h-3.3v-2.2h3.3v-3.3h2.2v3.3h3.3v2.2h-3.3v3.3h-2.2z"/>
        <path id="Union_3-224" class="st5" d="M402.2 193.1v-3.3h-3.3v-2.2h3.3v-3.3h2.2v3.3h3.3v2.2h-3.3v3.3h-2.2z"/>
        <path id="Union_3-266" class="st5" d="M11.9 251.1v-3.3H8.6v-2.2h3.3v-3.3h2.2v3.3h3.3v2.2h-3.3v3.3h-2.2z"/>
        <path id="Union_3-267" class="st5" d="M67.7 251.1v-3.3h-3.3v-2.2h3.3v-3.3h2.2v3.3h3.3v2.2h-3.3v3.3h-2.2z"/>
        <path id="Union_3-268" class="st5" d="M123.4 251.1v-3.3h-3.3v-2.2h3.3v-3.3h2.2v3.3h3.3v2.2h-3.3v3.3h-2.2z"/>
        <path id="Union_3-269" class="st5" d="M179.2 251.1v-3.3h-3.3v-2.2h3.3v-3.3h2.2v3.3h3.3v2.2h-3.3v3.3h-2.2z"/>
        <path id="Union_3-271" class="st5" d="M290.7 251.1v-3.3h-3.3v-2.2h3.3v-3.3h2.2v3.3h3.3v2.2h-3.3v3.3h-2.2z"/>
        <path id="Union_3-272" class="st5" d="M346.4 251.1v-3.3h-3.3v-2.2h3.3v-3.3h2.2v3.3h3.3v2.2h-3.3v3.3h-2.2z"/>
        <path id="Union_3-273" class="st5" d="M402.2 251.1v-3.3h-3.3v-2.2h3.3v-3.3h2.2v3.3h3.3v2.2h-3.3v3.3h-2.2z"/>
        <path id="Union_3-315" class="st5" d="M11.9 309v-3.3H8.6v-2.2h3.3v-3.3h2.2v3.3h3.3v2.2h-3.3v3.3h-2.2z"/>
        <path id="Union_3-316" class="st5" d="M67.7 309v-3.3h-3.3v-2.2h3.3v-3.3h2.2v3.3h3.3v2.2h-3.3v3.3h-2.2z"/>
        <path id="Union_3-318" class="st5" d="M179.2 309v-3.3h-3.3v-2.2h3.3v-3.3h2.2v3.3h3.3v2.2h-3.3v3.3h-2.2z"/>
        <path id="Union_3-319" class="st5" d="M234.9 309v-3.3h-3.3v-2.2h3.3v-3.3h2.2v3.3h3.3v2.2h-3.3v3.3h-2.2z"/>
        <path id="Union_3-320" class="st5" d="M290.7 309v-3.3h-3.3v-2.2h3.3v-3.3h2.2v3.3h3.3v2.2h-3.3v3.3h-2.2z"/>
        <path id="Union_3-321" class="st5" d="M346.4 309v-3.3h-3.3v-2.2h3.3v-3.3h2.2v3.3h3.3v2.2h-3.3v3.3h-2.2z"/>
        <path id="Union_3-322" class="st5" d="M402.2 309v-3.3h-3.3v-2.2h3.3v-3.3h2.2v3.3h3.3v2.2h-3.3v3.3h-2.2z"/>
        <path id="Union_3-364" class="st5" d="M11.9 367v-3.3H8.6v-2.2h3.3v-3.3h2.2v3.3h3.3v2.2h-3.3v3.3h-2.2z"/>
        <path id="Union_3-365" class="st5" d="M67.7 367v-3.3h-3.3v-2.2h3.3v-3.3h2.2v3.3h3.3v2.2h-3.3v3.3h-2.2z"/>
        <path id="Union_3-366" class="st5" d="M123.4 367v-3.3h-3.3v-2.2h3.3v-3.3h2.2v3.3h3.3v2.2h-3.3v3.3h-2.2z"/>
        <path id="Union_3-367" class="st5" d="M179.2 367v-3.3h-3.3v-2.2h3.3v-3.3h2.2v3.3h3.3v2.2h-3.3v3.3h-2.2z"/>
        <path id="Union_3-368" class="st5" d="M234.9 367v-3.3h-3.3v-2.2h3.3v-3.3h2.2v3.3h3.3v2.2h-3.3v3.3h-2.2z"/>
        <path id="Union_3-369" class="st5" d="M290.7 367v-3.3h-3.3v-2.2h3.3v-3.3h2.2v3.3h3.3v2.2h-3.3v3.3h-2.2z"/>
        <path id="Union_3-370" class="st5" d="M346.4 367v-3.3h-3.3v-2.2h3.3v-3.3h2.2v3.3h3.3v2.2h-3.3v3.3h-2.2z"/>
        <path id="Union_3-371" class="st5" d="M402.2 367v-3.3h-3.3v-2.2h3.3v-3.3h2.2v3.3h3.3v2.2h-3.3v3.3h-2.2z"/>
        <path id="Union_3-413" class="st5" d="M11.9 425v-3.3H8.6v-2.2h3.3v-3.3h2.2v3.3h3.3v2.2h-3.3v3.3h-2.2z"/>
        <path id="Union_3-414" class="st5" d="M67.7 425v-3.3h-3.3v-2.2h3.3v-3.3h2.2v3.3h3.3v2.2h-3.3v3.3h-2.2z"/>
        <path id="Union_3-415" class="st5" d="M123.4 425v-3.3h-3.3v-2.2h3.3v-3.3h2.2v3.3h3.3v2.2h-3.3v3.3h-2.2z"/>
        <path id="Union_3-416" class="st5" d="M179.2 425v-3.3h-3.3v-2.2h3.3v-3.3h2.2v3.3h3.3v2.2h-3.3v3.3h-2.2z"/>
        <path id="Union_3-417" class="st5" d="M234.9 425v-3.3h-3.3v-2.2h3.3v-3.3h2.2v3.3h3.3v2.2h-3.3v3.3h-2.2z"/>
        <path id="Union_3-418" class="st5" d="M290.7 425v-3.3h-3.3v-2.2h3.3v-3.3h2.2v3.3h3.3v2.2h-3.3v3.3h-2.2z"/>
        <path id="Union_3-419" class="st5" d="M346.4 425v-3.3h-3.3v-2.2h3.3v-3.3h2.2v3.3h3.3v2.2h-3.3v3.3h-2.2z"/>
        <path id="Union_3-420" class="st5" d="M402.2 425v-3.3h-3.3v-2.2h3.3v-3.3h2.2v3.3h3.3v2.2h-3.3v3.3h-2.2z"/>
        <path id="Union_3-462" class="st5" d="M11.9 483v-3.3H8.6v-2.2h3.3v-3.3h2.2v3.3h3.3v2.2h-3.3v3.3h-2.2z"/>
        <path id="Union_3-463" class="st5" d="M67.7 483v-3.3h-3.3v-2.2h3.3v-3.3h2.2v3.3h3.3v2.2h-3.3v3.3h-2.2z"/>
        <path id="Union_3-464" class="st5" d="M123.4 483v-3.3h-3.3v-2.2h3.3v-3.3h2.2v3.3h3.3v2.2h-3.3v3.3h-2.2z"/>
        <path id="Union_3-465" class="st5" d="M179.2 483v-3.3h-3.3v-2.2h3.3v-3.3h2.2v3.3h3.3v2.2h-3.3v3.3h-2.2z"/>
        <path id="Union_3-466" class="st5" d="M234.9 483v-3.3h-3.3v-2.2h3.3v-3.3h2.2v3.3h3.3v2.2h-3.3v3.3h-2.2z"/>
        <path id="Union_3-467" class="st5" d="M290.7 483v-3.3h-3.3v-2.2h3.3v-3.3h2.2v3.3h3.3v2.2h-3.3v3.3h-2.2z"/>
        <path id="Union_3-468" class="st5" d="M346.4 483v-3.3h-3.3v-2.2h3.3v-3.3h2.2v3.3h3.3v2.2h-3.3v3.3h-2.2z"/>
        <path id="Union_3-469" class="st5" d="M402.2 483v-3.3h-3.3v-2.2h3.3v-3.3h2.2v3.3h3.3v2.2h-3.3v3.3h-2.2z"/>
        <path id="Union_3-511" class="st5" d="M11.9 541v-3.3H8.6v-2.2h3.3V532h2.2v3.3h3.3v2.2h-3.3v3.3h-2.2v.2z"/>
        <path id="Union_3-512" class="st5" d="M67.7 541v-3.3h-3.3v-2.2h3.3V532h2.2v3.3h3.3v2.2h-3.3v3.3h-2.2v.2z"/>
        <path id="Union_3-513" class="st5" d="M123.4 541v-3.3h-3.3v-2.2h3.3V532h2.2v3.3h3.3v2.2h-3.3v3.3c.1.2-2.2.2-2.2.2z"/>
        <path id="Union_3-514" class="st5" d="M179.2 541v-3.3h-3.3v-2.2h3.3V532h2.2v3.3h3.3v2.2h-3.3v3.3h-2.2v.2z"/>
        <path id="Union_3-515" class="st5" d="M234.9 541v-3.3h-3.3v-2.2h3.3V532h2.2v3.3h3.3v2.2h-3.3v3.3h-2.2v.2z"/>
        <path id="Union_3-516" class="st5" d="M290.7 541v-3.3h-3.3v-2.2h3.3V532h2.2v3.3h3.3v2.2h-3.3v3.3h-2.2v.2z"/>
        <path id="Union_3-517" class="st5" d="M346.4 541v-3.3h-3.3v-2.2h3.3V532h2.2v3.3h3.3v2.2h-3.3v3.3h-2.2v.2z"/>
        <path id="Union_3-518" class="st5" d="M402.2 541v-3.3h-3.3v-2.2h3.3V532h2.2v3.3h3.3v2.2h-3.3v3.3h-2.2v.2z"/>
      </g>
    </g>
  </g>
  <path d="M323.2 551.5c-19.7 7.7-47.9 13.1-70.1 3.9l-118.1-49-132.6-55c-.8-.3-1.6-.7-2.3-1V592c2.5.9 5.3 2 8.4 3.1 10.7 3.9 64.1 25.8 119.2 48.8 51.3 21.4 104 43.7 125.5 53.5 44.4 20.3 67.8 5.3 95.4-6.6 8.2-3.6 33.1-15.5 63.5-30.2V515.1c-48.9 20-88.9 36.4-88.9 36.4z" style="opacity:.5;fill:#494f9e;enable-background:new"/>
  <g id="Group_20532">
    <path id="Path_647" class="st7" d="M121 513.6c2.7 10.7 5.3 21.4 8 32.2"/>
    <path id="Path_648" class="st8" d="M135.6 546.5c.2 3.6-2.5 6.7-6.1 6.9h-3l-22.3-.3c-2.2 0-4-1.9-4-4.1 0-2 1.5-3.6 3.4-3.9l11.9-2.1 12.2-2.5c3.5-.7 7 1.5 7.7 5.1.2.2.2.5.2.9z"/>
    <path id="Path_649" class="st9" d="M191 503.5c-23.2-31-52-40.6-63.9-32-12.8 9.3-5.9 39.4-5.4 41.4"/>
    <path id="Path_650" class="st10" d="M185.6 429.3c-23.8-3-43.4 15.5-43.2 35.2.2 16.7 14.6 32.7 34.3 34.8"/>
    <path id="Path_651" class="st10" d="M207.7 429.3c23.8-3 43.4 15.5 43.2 35.2-.2 16.7-14.6 32.7-34.3 34.8"/>
    <path id="Path_652" d="m229.5 474.6 1-28.1c.7-16.2-11.9-29.9-28.1-30.5-1.8-.1-3.5 0-5.3.3-16 2.4-27.1 17.4-24.6 33.4.2 1.3.5 2.6.9 3.8l7.8 27.1c3.3 11.5 14.4 19.1 26.3 17.9 12.2-1.5 21.6-11.6 22-23.9z"/>
    <path id="Path_653" class="st8" d="M168.1 532.7c-2.9-2.1-7-1.3-9.1 1.6-.1.1-.2.3-.3.4l-1.3 2.1L146 556c-1.1 1.9-.5 4.4 1.4 5.5 1.7 1 3.8.6 5.1-.8l8-9 8.6-9.1c2.5-2.6 2.3-6.7-.3-9.2-.2-.3-.4-.5-.7-.7z"/>
    <path id="Path_654" class="st7" d="M220.2 534.5c-6.6.7-13.3 1.4-20.2 1.9-12.6 1-24.8 1.7-36.5 2"/>
    <path id="Path_655" class="st9" d="M214.8 499.4c7.1-.2 14.1.1 21.1 1.1 12.1 1.6 18.3 2.4 23.3 7 4.7 4.5 8.4 12.4 6.8 17.9-5 17.1-61.9 13.4-67 13"/>
    <path id="Rectangle_1111" transform="rotate(-9.032 207.78 485.819)" class="st11" d="M184.2 477.9h47.3v15.8h-47.3z"/>
    <g id="Group_1585">
      <g id="Group_1582">
        <path id="Path_656" class="st11" d="M217.2 403.6c6.5-2.6 11-2 13.9-2.7 5.4-1.2 11.8-7.9 16.4-32.3l-11.4-3.2c-.8 19.2-5.8 25.9-10.5 28.3-2.2 1.1-5.1 1.8-8.9 4.6-3.7 2.7-6.6 6.4-8.3 10.7 2.6-2.3 5.6-4.1 8.8-5.4z"/>
        <path id="Path_657" class="st11" d="m230.3 361.9-10-3.9c1.7 13.5-1.4 21.1-4.6 25.6-2.2 3.1-5 6-7 11.4-1.5 4.1-1.7 8.6-.6 12.9 1.6-4.4 4.1-8.5 7.4-11.9 3.7-3.7 6.3-5.2 8.4-7 4-3.4 7.9-10.5 6.4-27.1z"/>
      </g>
      <g id="Group_1584">
        <path id="Path_658" d="m201.5 394.9-2.5.1c-9.6.3-17.1 8.4-16.8 18 0 .4 0 .8.1 1.1l1.8 18.7c.9 9.1 8.7 16 17.9 15.7 9.2-.3 16.5-7.7 16.8-16.8l.6-18.7c.3-9.6-7.2-17.6-16.8-17.9-.4-.2-.8-.2-1.1-.2z" style="fill:#0c1b38"/>
        <path id="Rectangle_1112" transform="matrix(.9995 -.03301 .03301 .9995 -13.71 6.864)" class="st11" d="M182.4 413.9h37.2v9.3h-37.2z"/>
        <path id="Rectangle_1113" d="m212.5 427.7-22.9.8c-2.6.1-4.8-2-4.9-4.6-.1-2.6 2-4.8 4.6-4.9l22.9-.8c2.6-.1 4.8 2 4.9 4.6.1 2.6-1.9 4.8-4.6 4.9z" style="fill:#e9ac6a"/>
        <path id="Path_659" d="m198.2 428.2 4.1-.1-.3-7.9-3.8 8z" style="fill:#e26841"/>
        <g id="Group_1583">
          <path id="Rectangle_1114" class="st5" d="m191.6 426.2-2.3.1c-.7 0-1.3-.5-1.4-1.3 0-.7.5-1.3 1.3-1.4l2.3-.1c.7 0 1.3.5 1.4 1.3 0 .8-.6 1.4-1.3 1.4z"/>
          <path id="Rectangle_1115" class="st5" d="m211.9 425.5-2.3.1c-.7 0-1.3-.5-1.4-1.3 0-.7.5-1.3 1.3-1.4l2.3-.1c.7 0 1.3.5 1.4 1.3 0 .8-.6 1.4-1.3 1.4z"/>
        </g>
        <circle id="Ellipse_26" cx="190.5" cy="426" r="1.3"/>
        <circle id="Ellipse_27" cx="210.8" cy="425.3" r="1.3"/>
      </g>
    </g>
    <g id="Group_1587">
      <g id="Group_1586">
        <path id="Rectangle_1116" style="fill:#4f5d6c" d="M162.2 467.1h83.9v60.7h-83.9z"/>
        <path id="Rectangle_1117" d="M162.2 526.4h83.9v5.4h-83.9z"/>
      </g>
      <path id="Path_660" class="st5" d="m206.2 495.6-3.3-4.4-.5 4-4.4 3.3 4 .5 3.3 4.4.5-4 4.4-3.3-4-.5zm-2.2 2.5c-.4 0-.7-.4-.6-.8s.4-.7.8-.6c.4 0 .7.4.6.8 0 .4-.4.6-.8.6z"/>
    </g>
  </g>
  <path id="Path_17834" class="st5" d="M98.9 172.2v-3.9h11.6v3.9h-1.7v-2.4h-3.2v10.6h2.3v1.6h-6.5v-1.6h2.3v-10.6h-3.2v2.4h-1.6zm10.6 4.9c-.1-1.4.4-2.7 1.3-3.7.8-.9 2.1-1.5 3.3-1.4 1.2 0 2.3.4 3.1 1.2.8.9 1.3 2.2 1.2 3.4v.7h-7.1c0 .9.3 1.7.8 2.4.5.6 1.3.9 2 .9.6 0 1.2-.2 1.7-.6.4-.4.7-.9.8-1.4h1.7c-.1 1-.5 1.9-1.3 2.5-.8.7-1.8 1-2.9 1-1.3.1-2.6-.4-3.5-1.4-.7-.9-1.1-2.2-1.1-3.6zm4.7-3.6c-.6 0-1.3.2-1.7.7-.5.5-.9 1.1-1 1.8h5.2c0-.7-.3-1.4-.8-1.9-.5-.4-1.1-.6-1.7-.6zm4.7-4.7v-1.4h3.3v13.2h1.5v1.4h-4.8v-1.4h1.5v-11.8h-1.5zm5.2 8.3c-.1-1.4.4-2.7 1.3-3.7.8-.9 2.1-1.5 3.3-1.4 1.2 0 2.3.4 3.1 1.2.8.9 1.3 2.2 1.2 3.4v.7h-7.1c0 .9.3 1.7.8 2.4.5.6 1.3.9 2 .9.6 0 1.2-.2 1.7-.6.4-.4.7-.9.8-1.4h1.7c-.1 1-.5 1.9-1.3 2.5-.8.7-1.8 1-2.9 1-1.3.1-2.6-.4-3.5-1.4-.7-.9-1.2-2.2-1.1-3.6zm4.6-3.6c-.6 0-1.3.2-1.7.7-.5.5-.9 1.1-1 1.8h5.2c0-.7-.3-1.4-.8-1.9-.4-.4-1-.6-1.7-.6zm5 .2v-1.4h3.3v1.9h.1c.2-.6.6-1.1 1.1-1.5.5-.3 1.1-.5 1.7-.4h.5v1.7h-.6c-.7 0-1.3.2-1.9.7-.6.6-1 1.4-.9 2.3v3.7h2.3v1.4h-5.7v-1.4h1.6v-6.9h-1.5v-.1zm7 8.3v-1.4h1.6v-6.9h-1.6v-1.4h3.4v8.3h1.5v1.4h-4.9zm1.6-12.6v-2h1.9v2h-1.9zm9.1 4.3v-1.4h5v1.4H155l-2.6 2.5 2.8 4.4h1.4v1.4h-2.5l-2.9-4.6-1.7 1.6v1.6h1.5v1.4h-4.8v-1.4h1.5v-11.8h-1.5v-1.4h3.3v9.6l3.5-3.3h-1.6zm18.5-3.9v-1.6h5v1.6h-1.6v6.7c0 2-.5 3.5-1.5 4.4-2.4 1.8-5.6 1.8-8 0-1-.9-1.5-2.3-1.5-4.4v-6.7h-1.6v-1.6h5v1.6h-1.6v6.7c-.1 1.1.3 2.1.9 2.9 1.6 1.4 4 1.4 5.5 0 .6-.8 1-1.9.9-2.9v-6.7h-1.5zm5.9 0v-1.6h5.4v1.6h-1.8v10.6h1.8v1.6h-5.4v-1.6h1.8v-10.6h-1.8zm9.7 12.2v-1.4h1.6v-6.9h-1.6v-1.4h1.6v-1.6c-.1-.9.2-1.8.8-2.4.7-.6 1.6-.9 2.4-.8h1v1.4h-1c-.5 0-.9.1-1.2.5-.2.4-.4.9-.3 1.4v1.5h2.2v1.4h-2.2v6.9h2.2v1.4h-5.5zm5.9-4.9c-.1-1.4.4-2.7 1.4-3.7.9-.9 2.1-1.4 3.4-1.4 1.3-.1 2.6.4 3.5 1.4s1.4 2.4 1.3 3.7c.1 1.4-.4 2.7-1.4 3.7-.9.9-2.1 1.4-3.4 1.4-1.3.1-2.6-.4-3.5-1.4s-1.3-2.3-1.3-3.7zm1.9 0c0 .9.2 1.9.8 2.6 1 1.2 2.8 1.3 4 .3l.3-.3c.6-.7.9-1.7.8-2.6.1-1-.2-1.9-.8-2.6-.5-.6-1.3-1-2.1-1s-1.6.3-2.1 1c-.7.8-1 1.7-.9 2.6zm8.2-3.4v-1.4h3.3v1.9h.1c.2-.6.6-1.1 1.1-1.5.5-.3 1.1-.5 1.7-.4h.5v1.7h-.6c-.7 0-1.3.2-1.9.7-.6.6-1 1.4-.9 2.3v3.7h2.3v1.4h-5.7v-1.4h1.6v-6.9h-1.5v-.1zm11.6 8.3v-2.3h2.2v2.3h-2.2zm13.3-12.2v-1.6h5.3v1.6H230V182h-1.8l-7.6-10.6h-.1l.1 9h1.8v1.6H217v-1.6h1.8v-10.6H217v-1.6h3.5l7.6 10.6h.1l-.1-9h-1.7zm6.1 0v-1.6h11v3.9h-1.7v-2.3H236v4.4h5v1.6h-5v4.6h5.9v-2.3h1.7v3.9h-11.2v-1.6h1.8v-10.6h-1.7zm12.4 2.4v-3.9h11.6v3.9h-1.7v-2.4h-3.2v10.6h2.3v1.6h-6.5v-1.6h2.3v-10.6h-3.2v2.4h-1.6zm16-2.4v-1.6h4l5.1 11.3 5-11.3h4v1.6h-1.8v10.6h1.8v1.6h-5.4v-1.6h1.8l.1-9.3h-.1l-4.8 10.9h-1.4l-4.8-10.6h-.1l.1 9h1.8v1.6h-5.4v-1.6h1.8v-10.6h-1.7zm22.1 0v-1.6h4.7l4.5 12.2h1.6v1.6h-5v-1.6h1.6l-.9-2.5h-5.7l-.9 2.5h1.6v1.6h-5v-1.6h1.6l3.9-10.6h-2zm3.6.4-2.3 6.2h4.5l-2.2-6.2zm15.3-.4v-1.6h5v1.6h-1.6v6.7c0 2-.5 3.5-1.5 4.4-2.4 1.8-5.6 1.8-8 0-1-.9-1.5-2.3-1.5-4.4v-6.7h-1.6v-1.6h5v1.6h-1.6v6.7c-.1 1.1.3 2.1.9 2.9 1.6 1.4 4 1.4 5.5 0 .6-.8 1-1.9.9-2.9v-6.7h-1.5zm5.9 0v-1.6h5.4v1.6h-1.8v10.6h1.8v1.6h-5.4v-1.6h1.8v-10.6h-1.8z"/>
</svg>
