<?xml version="1.0" encoding="utf-8"?>
<!--Generator: Adobe Illustrator 27.0.1, SVG Export Plug-In . SVG Version: 6.00 Build 0)-->
<svg version="1.1" id="Layer_3" xmlns="http://www.w3.org/2000/svg" xmlns:xlink="http://www.w3.org/1999/xlink" x="0px" y="0px" viewBox="0 0 160 160" style="enable-background:new 0 0 160 160;" xml:space="preserve">
  <style type="text/css">
    .st0{fill:#14254C;}
    .st1{fill:#0C1B38;}
    .st2{fill:#22B573;}
    .st3{fill:#E9AC6A;}
    .st4{fill:#E26841;}
    .st5{fill:#FFFFFF;}
    .st6{fill:#4F5D6C;}
    .st7{enable-background:new    ;}
    .st8{fill:#876AC4;enable-background:new    ;}
  </style>
  <g>
    <path class="st0" d="M52.4,118.7c-6.8-4.9-13.7-8.6-20.5-11.1c-1.3,2.7-1.9,5.6-1.9,8.4c0.1,5.4,2.9,11.4,7.8,15.9v-13.3H52.4z"/>
    <path class="st0" d="M7.5,104.6c-1.2,0.2-2.3,0.4-3.4,0.7c0.7,2,1.4,3.9,2.2,5.8C6.5,108.8,6.9,106.7,7.5,104.6z"/>
    <path class="st1" d="M29,141.6c2.8,2.3,5.7,4.4,8.8,6.3v-0.2C34.7,145.2,31.7,143.2,29,141.6z"/>
    <path class="st1" d="M58,68.6c-13.2-0.4-26.1,4.2-36,13c-4,3.6-7.4,7.8-10,12.2c-2,3.4-3.5,7-4.5,10.7c-0.6,2.1-1,4.3-1.3,6.5
        c5,11.9,12.9,22.4,22.7,30.6c2.8,1.6,5.7,3.6,8.8,6.2V132c-4.9-4.5-7.7-10.5-7.8-15.9c0-2.8,0.6-5.7,1.9-8.4
        c1.3-2.8,3.2-5.4,5.6-7.7c0.2-0.2,0.3-0.3,0.5-0.5c2.9-2.6,6.3-4.5,10-5.6c0.8-7.7,4.5-14.6,10.2-19.5L58,68.6z"/>
    <path d="M103.1,83.8c-1.9-3.7-4.5-7-7.7-9.6l0,0.1l-0.7,0l-0.3,9c0,1-0.2,1.9-0.3,2.9c-0.5,2.5-1.5,4.7-2.9,6.7
        c-3,4.3-8,7.1-13.6,7.3c-5.5,0.2-10.5-2.2-13.8-6.1c-0.3-0.4-0.6-0.8-0.9-1.1c-1.7-2.4-2.9-5.3-3.2-8.4l-0.9-9l-0.6,0l0-1
        c-5.7,4.9-9.5,11.8-10.2,19.5c-0.1,1.3-0.2,2.7-0.1,4.1c0,1.1,0.1,2.1,0.3,3.2c0.2,1.3,0.5,2.6,0.9,3.8l3.9,13.7h52.4l0.7-19.5
        l0-1.1C106.3,92.9,105.2,88.1,103.1,83.8z"/>
    <path class="st0" d="M128.9,143.3c1.4-1.1,2.8-2.2,4.1-3.4c-0.5-0.2-0.9-0.3-1.4-0.4C130.7,140.8,129.8,142.1,128.9,143.3z"/>
    <path class="st0" d="M122.5,81.6c-0.9-0.8-1.8-1.5-2.7-2.2c-7.2-5.6-15.7-9.1-24.6-10.3l0.2,5.1c3.2,2.6,5.8,5.9,7.7,9.6
        c2.1,4.3,3.3,9.2,3,14.3l0,1.1c0.1,0.1,0.3,0.2,0.4,0.4c5.1,4.6,8,10.6,8,16.5c0,0.9-0.1,1.8-0.2,2.7h7.3v18.6v11
        c2.5-1.5,4.9-3.2,7.2-5c1-1.2,1.9-2.5,2.7-3.8c4.4-6.9,6.9-14.9,7-23.2C138.7,103.4,132.9,90.8,122.5,81.6z"/>
    <path class="st2" d="M92.7,55.3c0,0,0.1,0,0.1-0.1v0c6.5-2.6,11-2,13.9-2.7c5.4-1.2,11.8-7.9,16.4-32.3L111.7,17
        c-0.8,19.2-5.8,25.9-10.5,28.3c-2.2,1.1-5.1,1.8-8.9,4.6c-0.8,0.6-1.5,1.2-2.2,1.9C91.1,52.8,92,54,92.7,55.3z"/>
    <path class="st2" d="M91.2,47.7c3.7-3.7,6.3-5.2,8.4-7c4-3.4,7.8-10.6,6.3-27.1h0l-10-3.9c1.7,13.5-1.4,21.1-4.6,25.6
        c-2.2,3.1-5,6-7,11.4c-0.1,0.4-0.2,0.7-0.3,1.1c1.7,0.7,3.3,1.6,4.7,2.8C89.4,49.6,90.3,48.6,91.2,47.7z"/>
    <path class="st1" d="M95,64.5c0.1-3.3-0.8-6.5-2.3-9.2c-3.2,1.3-6.1,3.1-8.8,5.3c1.4-3.4,3.5-6.4,6.1-8.8c-0.4-0.4-0.9-0.9-1.4-1.2
        c-2.1,2.7-3.8,5.8-5,9c-1-3.9-0.9-8,0.2-11.8c-1.8-0.7-3.7-1.1-5.7-1.2c-0.4,0-0.8,0-1.1,0l-2.4,0.1C65,47,57.5,55,57.8,64.6
        c0,0.4,0,0.8,0.1,1.1l0,0.4L95,64.9L95,64.5z"/>
    <path class="st1" d="M77.6,100.1c5.6-0.2,10.5-3,13.6-7.3c-2.1-0.2-4.2-0.2-6.4,0c-3.1,0.4-6.1-0.5-8.4-2.1
        c-4.5,1.2-8.7,2.3-12.5,3.2C67.1,97.9,72.1,100.3,77.6,100.1z"/>
    <path class="st1" d="M72.3,85.7c-1.6,3.8-5.2,6.6-9.3,7.1c0.3,0.4,0.6,0.8,0.9,1.1c3.8-1,8-2.1,12.5-3.2
        C74.6,89.5,73.1,87.7,72.3,85.7z"/>
    <path class="st1" d="M72.3,85.7c-0.4-1-0.7-2.1-0.9-3.3c-0.1-0.8-0.1-1.7-0.1-2.5l-6.1,0.2c-2.6,0.1-4.8-2-4.9-4.6
        c0-0.1,0-0.1,0-0.2l-1.5,0l0.9,9c0.3,3.1,1.5,6,3.2,8.4C67.1,92.2,70.6,89.5,72.3,85.7z"/>
    <path class="st1" d="M84.8,92.9c2.1-0.3,4.3-0.3,6.4,0c1.4-2,2.4-4.2,2.9-6.7c-6.3,1.6-12.2,3.2-17.7,4.6
        C78.7,92.4,81.7,93.2,84.8,92.9z"/>
    <path class="st1" d="M88.2,79.4l-10.2,0.3l0,0l-4.1,0.1l0,0l0,0l-0.6,0c0.1,0.8,0.1,1.7,0,2.5c-0.1,1.2-0.5,2.2-0.9,3.3
        c0.9,2.1,2.3,3.8,4.1,5.1c5.5-1.4,11.5-3,17.7-4.6c0.2-0.9,0.3-1.9,0.3-2.9l0.3-9l-2,0.1c0,0.1,0,0.1,0,0.2
        C92.8,77.1,90.8,79.3,88.2,79.4z"/>
    <path class="st1" d="M73.2,79.9l-1.9,0.1c-0.1,0.8-0.1,1.6,0.1,2.5c0.1,1.2,0.5,2.2,0.9,3.3c0.4-1,0.7-2.1,0.9-3.3
        C73.3,81.5,73.3,80.7,73.2,79.9z"/>
    <path class="st1" d="M83.9,60.6c2.6-2.2,5.6-4,8.8-5.3C92,54,91.1,52.8,90,51.8C87.4,54.3,85.3,57.3,83.9,60.6z"/>
    <path class="st1" d="M83.7,59.6c1.2-3.3,2.8-6.3,5-9c-1.4-1.2-3-2.1-4.7-2.8C82.8,51.6,82.7,55.7,83.7,59.6z"/>
    <path class="st2" d="M57.9,66.2L57.9,66.2l0,2.5c0.1,0,0.1,0,0.2,0L57.9,66.2z"/>
    <path class="st2" d="M95.2,69.1l-0.1-4.1l-0.1,0L94.9,69C95,69,95.1,69,95.2,69.1z"/>
    <path class="st2" d="M58.7,74l-0.5-5.4c-0.1,0-0.1,0-0.2,0l0.2,5.8C58.3,74.3,58.5,74.1,58.7,74z"/>
    <path class="st2" d="M94.7,73.6c0.2,0.2,0.4,0.3,0.7,0.5l-0.2-5.1c-0.1,0-0.2,0-0.3,0L94.7,73.6z"/>
    <path class="st2" d="M58.8,75.4L58.7,74c-0.2,0.1-0.4,0.3-0.5,0.4l0,1L58.8,75.4z"/>
    <path class="st2" d="M95.4,74.2L95.4,74.2c-0.2-0.2-0.4-0.4-0.7-0.6l0,0.6L95.4,74.2z"/>
    <path class="st2" d="M62.7,69c1.1,0.1,2.1,0.4,3,0.8c2.2-0.9,4.6-1.6,7.1-2c1.7-0.2,3.5-0.3,5.3-0.3c2.4,0.1,4.8,0.5,7.1,1.2
        c3.3-0.2,6.6-0.1,9.8,0.3l0.1-4.1l-37.1,1.2l0.2,2.5C59.7,68.7,61.2,68.8,62.7,69z"/>
    <path class="st2" d="M62.7,69c-1.5-0.2-3-0.3-4.5-0.3l0.5,5.4c2.1-1.7,4.5-3.1,7-4.2C64.8,69.4,63.8,69.1,62.7,69z"/>
    <path class="st2" d="M91.5,71.4c1.1,0.7,2.2,1.4,3.2,2.2l0.1-4.6c-3.2-0.4-6.5-0.5-9.8-0.3c1.1,0.3,2.3,0.7,3.4,1.2
        C89.7,70,90.7,70.6,91.5,71.4z"/>
    <path class="st2" d="M77.9,70.2c1.2-0.6,2.5-1,3.9-1.2c1.1-0.1,2.2-0.2,3.3-0.3c-2.2-0.7-4.6-1.1-7.1-1.2c-1.8-0.1-3.5,0-5.3,0.3
        c-2.5,0.4-4.8,1.1-7.1,2c0.5,0.2,1.1,0.5,1.6,0.8L77.9,70.2z"/>
    <path class="st2" d="M60.3,75.4c0-2.5,2-4.6,4.6-4.7l2.4-0.1c-0.5-0.3-1-0.5-1.6-0.8c-2.6,1.1-4.9,2.5-7,4.2l0.1,1.4L60.3,75.4z"/>
    <path class="st2" d="M92.7,74.3l2-0.1l0-0.6c-1-0.8-2.1-1.5-3.2-2.2C92.2,72.2,92.6,73.2,92.7,74.3z"/>
    <path class="st2" d="M77.9,70.2l10-0.3c0.2,0,0.4,0,0.6,0c-1.1-0.5-2.2-0.9-3.4-1.2c-1.1,0.1-2.2,0.2-3.3,0.3
        C80.4,69.2,79.1,69.6,77.9,70.2z"/>
    <path class="st3" d="M71.7,75c0.2,0.4,0.4,0.8,0.6,1.2c0.2-0.4,0.4-0.8,0.6-1.2L71.7,75z"/>
    <path class="st3" d="M65.2,80.1l6.1-0.2c0.1-1.3,0.4-2.6,0.9-3.7c-0.2-0.4-0.4-0.8-0.6-1.2l-11.3,0.4c0,0.1,0,0.1,0,0.2
        C60.4,78.2,62.6,80.2,65.2,80.1z M64.7,75.3l2.3-0.1c0.7,0,1.3,0.5,1.4,1.3c0,0.6-0.4,1.2-1,1.3c-0.1,0.7-0.6,1.2-1.3,1.2
        c-0.7,0-1.2-0.5-1.3-1.1c-0.7,0-1.3-0.6-1.3-1.3C63.4,75.9,64,75.3,64.7,75.3z"/>
    <path class="st3" d="M77.9,79.7l10.2-0.3c2.6-0.1,4.7-2.3,4.6-4.9c0-0.1,0-0.1,0-0.2l-15,0.5L77.9,79.7z M85.1,74.6l2.3-0.1
        c0.7,0,1.3,0.5,1.4,1.3c0,0.6-0.4,1.2-1,1.3c-0.1,0.7-0.6,1.2-1.3,1.2c-0.7,0-1.2-0.5-1.3-1.1c-0.7,0-1.3-0.6-1.3-1.3
        C83.8,75.2,84.4,74.6,85.1,74.6z"/>
    <path class="st3" d="M73.8,79.8l2.4-5l-3.3,0.1c-0.2,0.4-0.4,0.8-0.6,1.2c0.5,1.2,0.8,2.4,0.9,3.7L73.8,79.8z"/>
    <path class="st3" d="M72.3,76.2c-0.5,1.2-0.8,2.4-0.9,3.7l1.9-0.1C73.1,78.6,72.8,77.3,72.3,76.2z"/>
    <path class="st3" d="M88.5,69.9c1.1,0.5,2.1,1,3.1,1.5C90.7,70.6,89.7,70,88.5,69.9z"/>
    <path class="st3" d="M71.7,75l1.2,0c1.2-2,2.9-3.7,5-4.7l-10.6,0.3C69.1,71.6,70.6,73.2,71.7,75z"/>
    <path class="st3" d="M67.3,70.5l-2.4,0.1c-2.6,0.1-4.6,2.2-4.6,4.7L71.7,75C70.6,73.2,69.1,71.6,67.3,70.5z"/>
    <path class="st3" d="M72.9,74.9l3.3-0.1l1.5-3.1l0.1,3l15-0.5c-0.1-1.1-0.5-2.1-1.2-2.8c-1-0.6-2-1.1-3.1-1.5c-0.2,0-0.4,0-0.6,0
        l-10,0.3C75.8,71.3,74,72.9,72.9,74.9z"/>
    <polygon class="st4" points="73.8,79.8 73.8,79.8 77.9,79.7 77.9,79.7 73.8,79.8 	"/>
    <polygon class="st4" points="77.9,79.7 77.8,74.8 76.2,74.8 73.8,79.8 	"/>
    <polygon class="st4" points="77.7,71.8 76.2,74.8 77.8,74.8 	"/>
    <path class="st5" d="M64.8,77.9c0-0.1,0-0.2,0-0.2c0-0.7,0.6-1.3,1.3-1.3c0.7,0,1.3,0.6,1.3,1.3c0,0,0,0.1,0,0.1
        c0.6-0.1,1.1-0.7,1-1.3c0-0.7-0.6-1.3-1.4-1.3l-2.3,0.1c-0.7,0-1.3,0.6-1.3,1.4C63.5,77.3,64.1,77.9,64.8,77.9z"/>
    <path class="st5" d="M85.1,77.2c0-0.1,0-0.2,0-0.2c0-0.7,0.6-1.3,1.3-1.3s1.3,0.6,1.3,1.3c0,0,0,0.1,0,0.1c0.6-0.1,1.1-0.7,1-1.3
        c0-0.7-0.6-1.3-1.4-1.3l-2.3,0.1c-0.7,0-1.3,0.6-1.3,1.4C83.8,76.7,84.4,77.2,85.1,77.2z"/>
    <path d="M64.8,77.9C64.8,77.9,64.8,77.9,64.8,77.9c0.1,0.6,0.6,1.1,1.3,1.1c0.7,0,1.3-0.5,1.3-1.2c-0.1,0-0.1,0.1-0.2,0.1
        L64.8,77.9z"/>
    <path d="M66.1,76.3c-0.7,0-1.3,0.6-1.3,1.3c0,0.1,0,0.2,0,0.2c0,0,0,0,0,0l2.3-0.1c0.1,0,0.2,0,0.2-0.1c0,0,0-0.1,0-0.1
        C67.4,76.9,66.8,76.3,66.1,76.3z"/>
    <path d="M85.2,77.2C85.2,77.2,85.1,77.2,85.2,77.2c0.1,0.6,0.6,1.1,1.3,1.1c0.7,0,1.3-0.5,1.3-1.2c-0.1,0-0.1,0.1-0.2,0.1
        L85.2,77.2z"/>
    <path d="M86.4,75.6c-0.7,0-1.3,0.6-1.3,1.3c0,0.1,0,0.2,0,0.2c0,0,0,0,0,0l2.3-0.1c0.1,0,0.2,0,0.2-0.1c0,0,0-0.1,0-0.1
        C87.8,76.2,87.2,75.6,86.4,75.6z"/>
    <path class="st6" d="M52.4,118.7c0.2,0.2,0.4,0.3,0.6,0.5l-0.1-0.5H52.4z"/>
    <path class="st6" d="M105.1,126l0.4-0.1l1,6.2c4-3.5,7-8.1,7.8-13.4h-8.9L105.1,126z"/>
    <path class="st6" d="M60.2,141.9l-0.5-3.3c-1.2-1.9-2.2-4.1-2.9-6.4l-3.7-12.9c-0.2-0.2-0.4-0.3-0.6-0.5H37.8V132
        c4,3.6,9.3,6.3,15.8,7C56.1,139.3,58.4,140.3,60.2,141.9z"/>
    <path class="st6" d="M74.4,150.3l-0.8-0.1l0.8-0.6c0-0.1,0-0.2,0-0.2c-1.6-0.4-3.2-1-4.6-1.7l-5.8,0.9c0.2,1.2,0.3,2.4,0.2,3.7
        c-0.2,2.2-1,4.1-2.2,5.7c4.8,1.1,9.9,1.8,15,2c-1.6-2.4-2.6-5.2-2.7-8.3C74.4,151.2,74.4,150.7,74.4,150.3z"/>
    <path class="st6" d="M37.8,148c0.3,0.2,0.5,0.4,0.8,0.5c-0.3-0.2-0.5-0.5-0.8-0.7V148z"/>
    <path class="st6" d="M64.2,152.2c0.1-1.3,0.1-2.5-0.2-3.7l-2.8,0.4l-1.1-7.1c-1.8-1.6-4.1-2.6-6.6-2.9c-6.4-0.7-11.8-3.4-15.8-7
        v15.8c0.3,0.2,0.5,0.4,0.8,0.7c7.2,4.3,15,7.6,23.4,9.5C63.2,156.3,64,154.4,64.2,152.2z"/>
    <path class="st6" d="M106.5,132.2l0.5,3.3c2.2,0.2,4.4,0.4,6.6,0.7l1,0.1c2.5,0.3,4.8,0.6,7,1v-18.6h-7.3
        C113.5,124.1,110.5,128.7,106.5,132.2z"/>
    <path class="st6" d="M67.8,132l37.3-5.9l0.3-7.3H52.9l0.1,0.5C58.1,122.9,63,127.1,67.8,132z"/>
    <path class="st6" d="M67.8,132c-4.7-4.8-9.7-9.1-14.7-12.8l3.7,12.9c0.7,2.3,1.6,4.4,2.9,6.4l-0.8-5.1L67.8,132z"/>
    <path class="st6" d="M69.8,147.6c1.5,0.7,3,1.3,4.6,1.7c0.1-0.9,0.2-1.7,0.5-2.5L69.8,147.6z"/>
    <path class="st6" d="M82.4,157.9c-0.1,0.7-0.3,1.4-0.5,2.1c0.8,0,1.5,0,2.3-0.1C83.5,159.3,82.9,158.6,82.4,157.9z"/>
    <path class="st6" d="M74.5,149.3c0,0.1,0,0.2,0,0.2l0.3-0.2C74.6,149.4,74.5,149.4,74.5,149.3z"/>
    <path class="st6" d="M80.9,155.1L80.9,155.1l-3.3-4.4l-3.2-0.4c0,0.4,0,0.9,0,1.3c0.1,3.1,1.1,5.9,2.7,8.3c1,0,2,0.1,2.9,0.1
        c0.6,0,1.3,0,1.9,0c0.2-0.7,0.4-1.4,0.5-2.1C81.8,157,81.3,156.1,80.9,155.1z"/>
    <path class="st6" d="M113.7,136.2c-2.2-0.3-4.4-0.5-6.6-0.7l1,6.1l-10.5,1.7c-3.8,3.7-8.8,6.1-14.4,6.7c-0.1,0-0.1,0-0.2,0
        l-0.9,0.7c0.7,2.4,0.8,4.8,0.4,7.2c0.5,0.7,1.1,1.4,1.8,2c13.7-0.7,26.4-4.8,37.5-11.6v-11c-2.2-0.3-4.5-0.7-7-1L113.7,136.2z"/>
    <path class="st6" d="M80.9,155.1c0.4,1,0.9,1.9,1.5,2.8c0.4-2.4,0.3-4.9-0.4-7.2l-0.6,0.4L80.9,155.1z"/>
    <path class="st6" d="M81.1,146.4c0.1-0.2,0.2-0.4,0.3-0.6l-0.6,0.1L81.1,146.4z"/>
    <path class="st6" d="M79.8,148.3c-0.4,0-0.8,0.2-0.8,0.6c0,0.4,0.2,0.8,0.6,0.8v0c0.3,0,0.5-0.1,0.7-0.3c0-0.2,0.1-0.4,0.1-0.7
        C80.3,148.5,80.1,148.3,79.8,148.3z"/>
    <path class="st6" d="M78,146.9l0.1-0.6l-3.2,0.5c-0.2,0.8-0.4,1.7-0.5,2.5c0.1,0,0.2,0,0.2,0L78,146.9z"/>
    <path class="st6" d="M81.1,146.4l0.7,0.9l0,0l4,0.5l-3,2.2c0.1,0,0.1,0,0.2,0c5.6-0.6,10.6-3.1,14.4-6.7l-16.1,2.6
        C81.3,146,81.2,146.2,81.1,146.4z"/>
    <path class="st6" d="M80.4,148.7c0,0.2-0.1,0.4-0.1,0.7c0.1-0.1,0.1-0.2,0.1-0.3C80.5,149,80.4,148.9,80.4,148.7z"/>
    <path class="st6" d="M105.1,126.2c-0.1,2.9-0.7,5.7-1.7,8.3c1.1-0.7,2.2-1.5,3.1-2.4l-1-6.2l-0.4,0.1L105.1,126.2L105.1,126.2z"/>
    <path class="st6" d="M59.6,138.5l0.5,3.3c2,1.7,3.4,4.1,3.9,6.7l5.8-0.9C65.7,145.6,62.1,142.5,59.6,138.5z"/>
    <path class="st6" d="M60.2,141.9l1.1,7.1l2.8-0.4C63.5,145.9,62.1,143.6,60.2,141.9z"/>
    <path class="st6" d="M103.1,135.2c1.3,0.1,2.6,0.2,4,0.3l-0.5-3.3c-1,0.9-2,1.6-3.1,2.4C103.3,134.7,103.2,135,103.1,135.2z"/>
    <path class="st6" d="M77,142.3c2.8-4.2,7.5-7.1,12.9-7.3c4.1-0.1,8.3-0.1,12.5,0.1c0.4-0.2,0.7-0.4,1.1-0.7c1-2.6,1.6-5.4,1.7-8.3
        h0l0-0.2L67.8,132C70.9,135.2,74,138.6,77,142.3z"/>
    <path class="st6" d="M69.8,147.6l5.1-0.8c0.4-1.6,1.1-3.1,2-4.5c-2.9-3.7-6-7.2-9.2-10.4l-9,1.4l0.8,5.1
        C62.1,142.5,65.7,145.6,69.8,147.6z"/>
    <path class="st6" d="M103.4,134.5c-0.4,0.2-0.7,0.4-1.1,0.7c0.3,0,0.5,0,0.8,0C103.2,135,103.3,134.7,103.4,134.5z"/>
    <path class="st6" d="M97.5,143.2l10.5-1.7l-1-6.1c-1.3-0.1-2.6-0.2-4-0.3C101.8,138.3,99.8,141,97.5,143.2z"/>
    <path class="st6" d="M78.5,142.9l2.3,3l0.6-0.1c1.7-3.7,5.3-6.4,9.6-6.8c3.8-0.4,7.8-1.7,11.3-3.8c-4.2-0.2-8.3-0.3-12.5-0.1
        c-5.4,0.2-10.1,3.1-12.9,7.3c0.5,0.6,0.9,1.2,1.4,1.8L78.5,142.9z"/>
    <path class="st6" d="M78.3,144.1c-0.5-0.6-0.9-1.2-1.4-1.8c-0.9,1.4-1.6,2.9-2,4.5l3.2-0.5L78.3,144.1z"/>
    <path class="st6" d="M103.1,135.2c-0.3,0-0.5,0-0.8,0c-3.5,2.1-7.5,3.4-11.3,3.8c-4.3,0.5-7.9,3.2-9.6,6.8l16.1-2.6
        C99.8,141,101.8,138.3,103.1,135.2z"/>
    <path class="st5" d="M73.6,150.2l0.8,0.1c0-0.2,0-0.5,0-0.7L73.6,150.2z"/>
    <path class="st5" d="M80.2,150.1c-1.9,0-3.8-0.3-5.5-0.7l-0.3,0.2c0,0.2,0,0.5,0,0.7l3.2,0.4l3.3,4.4l0,0c-0.3-0.9-0.6-1.9-0.7-2.9
        C80.2,151.5,80.2,150.8,80.2,150.1z"/>
    <path class="st5" d="M82,150.7l0.9-0.7c-0.4,0-0.7,0-1.1,0.1C81.9,150.3,81.9,150.5,82,150.7z"/>
    <path class="st5" d="M80.2,150.1c0,0.7,0,1.4,0,2.1c0.1,1,0.3,2,0.7,2.9l0.5-4l0.6-0.4c-0.1-0.2-0.1-0.4-0.2-0.6
        C81.3,150.1,80.8,150.1,80.2,150.1z"/>
    <path class="st5" d="M79.8,146.1c0.3,0.5,0.6,1,0.9,1.5c0.1-0.4,0.3-0.8,0.4-1.2l-0.3-0.5L79.8,146.1z"/>
    <path class="st5" d="M78.1,146.3l-0.1,0.6l-3.3,2.5c1.8,0.4,3.7,0.7,5.5,0.7c0-0.2,0-0.5,0.1-0.7c-0.2,0.2-0.4,0.3-0.7,0.3v0
        c-0.4,0-0.7-0.4-0.6-0.8c0-0.4,0.4-0.7,0.8-0.6c0.3,0,0.5,0.2,0.6,0.5c0.1-0.4,0.2-0.8,0.3-1.2c-0.3-0.5-0.6-1-0.9-1.5L78.1,146.3z
        "/>
    <path class="st5" d="M81.8,147.3L81.8,147.3l-0.7-0.9c-0.2,0.4-0.3,0.8-0.4,1.2c0.4,0.8,0.8,1.7,1.1,2.5c0.4,0,0.7,0,1.1-0.1l3-2.2
        L81.8,147.3z"/>
    <path class="st5" d="M80.5,149.1c0,0.1-0.1,0.2-0.1,0.3c0,0.2-0.1,0.4-0.1,0.7c0.5,0,1,0,1.6,0c-0.3-0.9-0.7-1.7-1.1-2.5
        c-0.1,0.4-0.2,0.8-0.3,1.2C80.4,148.9,80.5,149,80.5,149.1z"/>
    <path class="st5" d="M79.8,146.1l1-0.2l-2.3-3l-0.1,1.2c0.4,0.5,0.8,1,1.1,1.4C79.6,145.7,79.7,145.9,79.8,146.1z"/>
    <path class="st5" d="M79.5,145.6c-0.4-0.5-0.7-1-1.1-1.4l-0.3,2.2l1.7-0.3C79.7,145.9,79.6,145.7,79.5,145.6z"/>
    <g class="st7">
      <path class="st8" d="M159.2,69C153.9,30,120.5,0,80,0C35.8,0,0,35.8,0,80c0,2.9,0.2,5.7,0.5,8.5c0.6,5.8,1.9,11.4,3.6,16.7
            c1.1-0.3,2.3-0.5,3.4-0.7c1-3.7,2.5-7.3,4.5-10.7c2.6-4.5,5.9-8.6,10-12.2c9.9-8.8,22.8-13.4,36-13l-0.1-2.5l0,0l0-0.4
            c0-0.4-0.1-0.8-0.1-1.1C57.5,55,65,47,74.6,46.7l2.4-0.1c0.4,0,0.8,0,1.1,0c2,0.1,4,0.5,5.7,1.2c0.1-0.4,0.2-0.7,0.3-1.1
            c2.1-5.4,4.8-8.3,7-11.4c3.2-4.5,6.3-12.1,4.6-25.6l10,3.9h0c1.5,16.5-2.4,23.7-6.3,27.1c-2.1,1.8-4.7,3.3-8.4,7
            c-0.9,0.9-1.7,1.8-2.5,2.8c0.5,0.4,0.9,0.8,1.4,1.2c0.7-0.7,1.4-1.3,2.2-1.9c3.9-2.8,6.8-3.5,8.9-4.6c4.7-2.4,9.7-9.1,10.5-28.3
            l11.4,3.2c-4.6,24.5-11,31.1-16.4,32.3c-2.9,0.6-7.4,0.1-13.9,2.7v0c0,0-0.1,0-0.1,0.1c1.6,2.7,2.4,5.8,2.3,9.2l0,0.4l0.1,0
            l0.1,4.1c8.9,1.2,17.4,4.7,24.6,10.3c0.9,0.7,1.8,1.4,2.7,2.2c10.3,9.2,16.1,21.8,16,34.7c-0.1,8.3-2.6,16.3-7,23.2
            c0.5,0.1,0.9,0.3,1.4,0.4c16.6-14.7,27-36.1,27-59.9C160,76.3,159.7,72.6,159.2,69z"/>
      <path class="st8" d="M106.5,99.6c-0.1-0.1-0.3-0.3-0.4-0.4l-0.7,19.5h8.9c0.1-0.9,0.2-1.8,0.2-2.7
        C114.6,110.1,111.7,104.1,106.5,99.6z"/>
      <path class="st8" d="M48.1,101.2c-0.2-1.1-0.3-2.1-0.3-3.2c-0.1-1.4,0-2.7,0.1-4.1c-3.7,1.1-7.1,3.1-10,5.6
        c-0.2,0.1-0.3,0.3-0.5,0.5c-2.4,2.3-4.3,4.9-5.6,7.7c6.8,2.5,13.7,6.2,20.5,11.1h0.5L49,105.1C48.6,103.8,48.3,102.5,48.1,101.2z"/>
    </g>
  </g>
</svg>
