<?xml version="1.0" encoding="UTF-8"?><svg xmlns="http://www.w3.org/2000/svg" viewBox="0 0 512 512"><defs><style>.d{fill:#fff;}.e{fill:#3db54a;}</style></defs><g id="a"/><g id="b"/><g id="c"><rect class="e" width="512" height="512"/><g><path class="d" d="M157.63,278.43l-20.88-29.04v46.48h-20.75v-81.07h19.7l22.21,33.02,22.35-33.02h19.55v81.07h-20.88v-46.48l-20.75,29.04h-.54Z"/><path class="d" d="M259.33,214.8l30.93,81.07h-21.56l-5.81-15.72h-29.48l-5.68,15.72h-21l30.91-81.07h21.69Zm-19.43,47.93h16.65l-8.33-22.85-8.31,22.85Z"/><path class="d" d="M292.83,262.73v-47.93h21.15v46.09c0,11.47,5.41,17.42,14.26,17.42s14.14-5.94,14.14-17.42v-46.09h21.15v48.05c0,22.18-13.87,34.34-35.29,34.34s-35.41-12.16-35.41-34.47Z"/><path class="d" d="M396,295.87h-21.29v-81.07h21.29v81.07Z"/></g></g></svg>