<svg id="_1" data-name="1" xmlns="http://www.w3.org/2000/svg" viewBox="0 0 48 48">
	<path fill="#fff" d="M25.25411,16.9942H23.79228v1.54849H22.9496V16.9942H21.48777v1.54849h-2.1987V20.3175h1.14979v8.20156H19.28907v1.77485h2.1987v1.54844H22.9496V30.29391h.84268v1.54844h1.46183V30.29391h.72949a3.3787,3.3787,0,0,0,1.67138-6.322,3.37576,3.37576,0,0,0-2.40087-5.41563Zm2.34069,9.91818a1.61073,1.61073,0,0,1-1.6112,1.60668H22.21871V25.3057H25.9836A1.61073,1.61073,0,0,1,27.5948,26.91238Zm-1.02475-4.9882a1.61079,1.61079,0,0,1-1.61124,1.60672h-2.7401V20.3175h2.7401A1.61075,1.61075,0,0,1,26.57005,21.92418Z"/>
	<path fill="#fff" d="M23.70149,36.55244a12.76451,12.76451,0,0,1,0-25.529.47276.47276,0,0,1,0,.94552,11.819,11.819,0,1,0,11.819,11.819.47276.47276,0,1,1,.94552,0A12.77887,12.77887,0,0,1,23.70149,36.55244Z"/>
	<path fill="#fff" d="M25.27736,13.54481A2.04863,2.04863,0,1,1,27.326,11.49619,2.051,2.051,0,0,1,25.27736,13.54481Zm0-3.15173a1.10311,1.10311,0,1,0,1.1031,1.10311A1.10445,1.10445,0,0,0,25.27736,10.39308Z"/>
	<circle fill="#fff" cx="35.67806" cy="22.52724" r="1.57586"/>
</svg>