<svg xmlns="http://www.w3.org/2000/svg" viewBox="0 0 172 172" width="200px" height="200px" opacity="0.8">
	<defs>
		<style>.cls-1{fill:#fff;}</style>
	</defs>
	<g id="Layer_2" data-name="Layer 2">
		<path class="cls-1" d="M146,81c-.19037,0-.37811.01111-.564.02856l-7.97992-24.56a5.99663,5.99663,0,1,0-6.69061-9.71491l-20.49432-14.89A5.99745,5.99745,0,1,0,99.1,27.93652H72.9a5.99734,5.99734,0,1,0-11.17108,3.92719l-20.49432,14.89A5.9967,5.9967,0,1,0,34.544,56.46857l-7.97992,24.56C26.37811,81.01111,26.19037,81,26,81a6,6,0,1,0,1.18463,11.88141l7.35932,22.65a5.99663,5.99663,0,1,0,6.69061,9.71491l20.49432,14.89A5.99745,5.99745,0,1,0,72.9,144.06348H99.1a5.99734,5.99734,0,1,0,11.17108-3.92719l20.49432-14.88995a5.9967,5.9967,0,1,0,6.69061-9.71491l7.35932-22.65A5.99978,5.99978,0,1,0,146,81ZM131.269,49.5918a3.991,3.991,0,1,1,5.55939,4.94507A3.94888,3.94888,0,0,1,135,55c-.04388,0-.08466-.01154-.12817-.01294A3.9611,3.9611,0,0,1,131.269,49.5918ZM101.1618,27.93652A3.60857,3.60857,0,1,1,101,29,3.94661,3.94661,0,0,1,101.1618,27.93652ZM67,25a3.994,3.994,0,0,1,3.8382,2.93652,3.60857,3.60857,0,0,1,.03949,2,3.99155,3.99155,0,0,1-7.50208.73084A3.95882,3.95882,0,0,1,63,29,4.00458,4.00458,0,0,1,67,25ZM33,51a4.00458,4.00458,0,0,1,4-4,3.99447,3.99447,0,0,1,.12817,7.98706C37.08466,54.98846,37.04388,55,37,55a3.94888,3.94888,0,0,1-1.82843-.46313A3.989,3.989,0,0,1,33,51ZM26.55505,90.94385A3.9465,3.9465,0,0,1,26,91a3.99636,3.99636,0,0,1-.0791-7.992c.027-.00055.052-.008.0791-.008a3.99148,3.99148,0,0,1,.55505,7.94385ZM40.731,122.4082a3.991,3.991,0,1,1-5.55939-4.94507A3.94888,3.94888,0,0,1,37,117c.04388,0,.08466.01154.12817.01294A3.9611,3.9611,0,0,1,40.731,122.4082ZM70.8382,144.06348A3.60857,3.60857,0,1,1,71,143,3.94661,3.94661,0,0,1,70.8382,144.06348ZM105,147a3.994,3.994,0,0,1-3.8382-2.93652,3.60857,3.60857,0,0,1-.03949-2,3.99155,3.99155,0,0,1,7.50208-.73084A3.95882,3.95882,0,0,1,109,143,4.00458,4.00458,0,0,1,105,147Zm34-26a4.00458,4.00458,0,0,1-4,4,3.99447,3.99447,0,0,1-.12817-7.98706c.04351-.0014.08429-.01294.12817-.01294a3.94888,3.94888,0,0,1,1.82843.46313A3.989,3.989,0,0,1,139,121Zm-3.4826-5.97382C135.3465,115.01147,135.17462,115,135,115a5.98614,5.98614,0,0,0-5.39191,8.61493L109.029,138.56677a5.983,5.983,0,0,0-9.94836,3.49671H72.91937a5.983,5.983,0,0,0-9.94836-3.49671l-20.5791-14.95184A5.98614,5.98614,0,0,0,37,115c-.17462,0-.3465.01147-.5174.02618L29.05176,92.15674a5.9867,5.9867,0,0,0-.55493-10.60559L36.4826,56.97382C36.6535,56.98853,36.82538,57,37,57a5.98614,5.98614,0,0,0,5.39191-8.61493L62.971,33.43323a5.983,5.983,0,0,0,9.94836-3.49671H99.08063a5.983,5.983,0,0,0,9.94836,3.49671l20.5791,14.95184A5.98614,5.98614,0,0,0,135,57c.17462,0,.3465-.01147.5174-.02618l7.98577,24.57733a5.9867,5.9867,0,0,0-.55493,10.60559ZM146,91a4.04242,4.04242,0,0,1-4-4,4.05568,4.05568,0,0,1,4-4c.0271,0,.05212.00745.0791.008A3.99636,3.99636,0,0,1,146,91Z"/>
		<path class="cls-1" d="M68.5,84A7.5,7.5,0,1,1,76,76.5,7.5082,7.5082,0,0,1,68.5,84Zm0-13A5.5,5.5,0,1,0,74,76.5,5.50623,5.50623,0,0,0,68.5,71Z"/>
		<rect class="cls-1" x="51.31651" y="50.06108" width="1.99979" height="29.51066" transform="translate(-30.509 55.97757) rotate(-45)"/>
		<rect class="cls-1" x="29.91199" y="79.99984" width="34.17601" height="2.00033" transform="translate(-25.44169 21.65186) rotate(-20.5495)"/>
		<path class="cls-1" d="M113,84a7,7,0,1,1,7-7A7.00787,7.00787,0,0,1,113,84Zm0-12a5,5,0,1,0,5,5A5.00588,5.00588,0,0,0,113,72Z"/>
		<path class="cls-1" d="M86,58a7,7,0,1,1,7-7A7.00787,7.00787,0,0,1,86,58Zm0-12a5,5,0,1,0,5,5A5.00588,5.00588,0,0,0,86,46Z"/>
		<path class="cls-1" d="M86,126.5a5.5,5.5,0,1,1,5.5-5.5A5.50623,5.50623,0,0,1,86,126.5Zm0-9a3.5,3.5,0,1,0,3.5,3.5A3.50424,3.50424,0,0,0,86,117.5Z"/>
		<path class="cls-1" d="M110,113.5a7.5,7.5,0,1,1,7.5-7.5A7.5082,7.5082,0,0,1,110,113.5Zm0-13a5.5,5.5,0,1,0,5.5,5.5A5.50623,5.50623,0,0,0,110,100.5Z"/>
		<rect class="cls-1" x="112.08274" y="62.25011" width="23.33452" height="1.99979" transform="translate(-8.47897 106.02996) rotate(-45)"/>
		<rect class="cls-1" x="75.75011" y="30.20406" width="1.99979" height="19.09188" transform="translate(-5.62794 65.91295) rotate(-45)"/>
		<rect class="cls-1" x="94.75011" y="122.20406" width="1.99979" height="19.09188" transform="translate(-65.11679 106.29416) rotate(-45)"/>
		<rect class="cls-1" x="91.06913" y="124.9999" width="28.86174" height="2.00021" transform="translate(-42.33396 197.77304) rotate(-75.95697)"/>
	</g>
</svg>