<svg width="640" height="372" viewBox="0 0 640 372" fill="none" xmlns="http://www.w3.org/2000/svg">
<mask id="mask0_683_6584" style="mask-type:luminance" maskUnits="userSpaceOnUse" x="0" y="0" width="640" height="372">
<path d="M625 0H15C6.71573 0 0 6.71573 0 15V357C0 365.284 6.71573 372 15 372H625C633.284 372 640 365.284 640 357V15C640 6.71573 633.284 0 625 0Z" fill="white"/>
</mask>
<g mask="url(#mask0_683_6584)">
<path d="M625 0H15C6.71573 0 0 6.71573 0 15V357C0 365.284 6.71573 372 15 372H625C633.284 372 640 365.284 640 357V15C640 6.71573 633.284 0 625 0Z" fill="url(#paint0_linear_683_6584)"/>
<path d="M14 786C195.702 786 343 638.702 343 457C343 275.298 195.702 128 14 128C-167.702 128 -315 275.298 -315 457C-315 638.702 -167.702 786 14 786Z" fill="black" fill-opacity="0.1"/>
<path d="M849.5 1263C1160.71 1263 1413 1010.71 1413 699.5C1413 388.288 1160.71 136 849.5 136C538.288 136 286 388.288 286 699.5C286 1010.71 538.288 1263 849.5 1263Z" fill="black" fill-opacity="0.1"/>
<path d="M566.5 341C697.668 341 804 234.668 804 103.5C804 -27.6676 697.668 -134 566.5 -134C435.332 -134 329 -27.6676 329 103.5C329 234.668 435.332 341 566.5 341Z" fill="white" fill-opacity="0.1"/>
<path d="M66 157.61L61.98 159.83V159.17L66 161.39L64.83 163.43L60.96 161.18L61.35 160.97L61.38 165.26H59.1L59.13 160.97L59.52 161.18L55.68 163.43L54.48 161.39L58.53 159.17V159.83L54.48 157.61L55.68 155.54L59.52 157.82L59.13 158.06L59.1 153.74H61.38L61.35 158.06L60.96 157.82L64.83 155.54L66 157.61ZM79.066 157.61L75.046 159.83V159.17L79.066 161.39L77.896 163.43L74.026 161.18L74.416 160.97L74.446 165.26H72.166L72.196 160.97L72.586 161.18L68.746 163.43L67.546 161.39L71.596 159.17V159.83L67.546 157.61L68.746 155.54L72.586 157.82L72.196 158.06L72.166 153.74H74.446L74.416 158.06L74.026 157.82L77.896 155.54L79.066 157.61ZM92.133 157.61L88.113 159.83V159.17L92.133 161.39L90.963 163.43L87.093 161.18L87.483 160.97L87.513 165.26H85.233L85.263 160.97L85.653 161.18L81.813 163.43L80.613 161.39L84.663 159.17V159.83L80.613 157.61L81.813 155.54L85.653 157.82L85.263 158.06L85.233 153.74H87.513L87.483 158.06L87.093 157.82L90.963 155.54L92.133 157.61ZM105.199 157.61L101.179 159.83V159.17L105.199 161.39L104.029 163.43L100.159 161.18L100.549 160.97L100.579 165.26H98.299L98.329 160.97L98.719 161.18L94.879 163.43L93.679 161.39L97.729 159.17V159.83L93.679 157.61L94.879 155.54L98.719 157.82L98.329 158.06L98.299 153.74H100.579L100.549 158.06L100.159 157.82L104.029 155.54L105.199 157.61Z" fill="white"/>
<path d="M152 157.61L147.98 159.83V159.17L152 161.39L150.83 163.43L146.96 161.18L147.35 160.97L147.38 165.26H145.1L145.13 160.97L145.52 161.18L141.68 163.43L140.48 161.39L144.53 159.17V159.83L140.48 157.61L141.68 155.54L145.52 157.82L145.13 158.06L145.1 153.74H147.38L147.35 158.06L146.96 157.82L150.83 155.54L152 157.61ZM165.066 157.61L161.046 159.83V159.17L165.066 161.39L163.896 163.43L160.026 161.18L160.416 160.97L160.446 165.26H158.166L158.196 160.97L158.586 161.18L154.746 163.43L153.546 161.39L157.596 159.17V159.83L153.546 157.61L154.746 155.54L158.586 157.82L158.196 158.06L158.166 153.74H160.446L160.416 158.06L160.026 157.82L163.896 155.54L165.066 157.61ZM178.133 157.61L174.113 159.83V159.17L178.133 161.39L176.963 163.43L173.093 161.18L173.483 160.97L173.513 165.26H171.233L171.263 160.97L171.653 161.18L167.813 163.43L166.613 161.39L170.663 159.17V159.83L166.613 157.61L167.813 155.54L171.653 157.82L171.263 158.06L171.233 153.74H173.513L173.483 158.06L173.093 157.82L176.963 155.54L178.133 157.61ZM191.199 157.61L187.179 159.83V159.17L191.199 161.39L190.029 163.43L186.159 161.18L186.549 160.97L186.579 165.26H184.299L184.329 160.97L184.719 161.18L180.879 163.43L179.679 161.39L183.729 159.17V159.83L179.679 157.61L180.879 155.54L184.719 157.82L184.329 158.06L184.299 153.74H186.579L186.549 158.06L186.159 157.82L190.029 155.54L191.199 157.61Z" fill="white"/>
<path d="M236 157.61L231.98 159.83V159.17L236 161.39L234.83 163.43L230.96 161.18L231.35 160.97L231.38 165.26H229.1L229.13 160.97L229.52 161.18L225.68 163.43L224.48 161.39L228.53 159.17V159.83L224.48 157.61L225.68 155.54L229.52 157.82L229.13 158.06L229.1 153.74H231.38L231.35 158.06L230.96 157.82L234.83 155.54L236 157.61ZM249.066 157.61L245.046 159.83V159.17L249.066 161.39L247.896 163.43L244.026 161.18L244.416 160.97L244.446 165.26H242.166L242.196 160.97L242.586 161.18L238.746 163.43L237.546 161.39L241.596 159.17V159.83L237.546 157.61L238.746 155.54L242.586 157.82L242.196 158.06L242.166 153.74H244.446L244.416 158.06L244.026 157.82L247.896 155.54L249.066 157.61ZM262.133 157.61L258.113 159.83V159.17L262.133 161.39L260.963 163.43L257.093 161.18L257.483 160.97L257.513 165.26H255.233L255.263 160.97L255.653 161.18L251.813 163.43L250.613 161.39L254.663 159.17V159.83L250.613 157.61L251.813 155.54L255.653 157.82L255.263 158.06L255.233 153.74H257.513L257.483 158.06L257.093 157.82L260.963 155.54L262.133 157.61ZM275.199 157.61L271.179 159.83V159.17L275.199 161.39L274.029 163.43L270.159 161.18L270.549 160.97L270.579 165.26H268.299L268.329 160.97L268.719 161.18L264.879 163.43L263.679 161.39L267.729 159.17V159.83L263.679 157.61L264.879 155.54L268.719 157.82L268.329 158.06L268.299 153.74H270.579L270.549 158.06L270.159 157.82L274.029 155.54L275.199 157.61Z" fill="white"/>
<path d="M310.68 176V156.5L312.39 158.27H306.24V155H314.58V176H310.68ZM318.476 176V173.39L326.816 165.47C327.516 164.81 328.036 164.23 328.376 163.73C328.716 163.23 328.936 162.77 329.036 162.35C329.156 161.91 329.216 161.5 329.216 161.12C329.216 160.16 328.886 159.42 328.226 158.9C327.566 158.36 326.596 158.09 325.316 158.09C324.296 158.09 323.366 158.27 322.526 158.63C321.706 158.99 320.996 159.54 320.396 160.28L317.666 158.18C318.486 157.08 319.586 156.23 320.966 155.63C322.366 155.01 323.926 154.7 325.646 154.7C327.166 154.7 328.486 154.95 329.606 155.45C330.746 155.93 331.616 156.62 332.216 157.52C332.836 158.42 333.146 159.49 333.146 160.73C333.146 161.41 333.056 162.09 332.876 162.77C332.696 163.43 332.356 164.13 331.856 164.87C331.356 165.61 330.626 166.44 329.666 167.36L322.496 174.17L321.686 172.7H333.956V176H318.476ZM342.807 176.3C341.327 176.3 339.877 176.09 338.457 175.67C337.057 175.23 335.877 174.63 334.917 173.87L336.597 170.84C337.357 171.46 338.277 171.96 339.357 172.34C340.437 172.72 341.567 172.91 342.747 172.91C344.147 172.91 345.237 172.63 346.017 172.07C346.797 171.49 347.187 170.71 347.187 169.73C347.187 168.77 346.827 168.01 346.107 167.45C345.387 166.89 344.227 166.61 342.627 166.61H340.707V163.94L346.707 156.8L347.217 158.27H335.937V155H350.247V157.61L344.247 164.75L342.207 163.55H343.377C345.957 163.55 347.887 164.13 349.167 165.29C350.467 166.43 351.117 167.9 351.117 169.7C351.117 170.88 350.817 171.97 350.217 172.97C349.617 173.97 348.697 174.78 347.457 175.4C346.237 176 344.687 176.3 342.807 176.3ZM353.368 171.23V168.53L363.718 155H367.888L357.688 168.53L355.738 167.93H372.388V171.23H353.368ZM364.888 176V171.23L365.008 167.93V163.7H368.668V176H364.888Z" fill="white"/>
<path d="M56.94 238.03H62.34V239.305H56.94V238.03ZM57.075 242.695H63.195V244H55.575V233.5H62.985V234.805H57.075V242.695ZM64.0829 244L67.503 239.56L67.488 240.295L64.233 236.05H65.838L68.328 239.32H67.713L70.203 236.05H71.778L68.478 240.325L68.493 239.56L71.9429 244H70.308L67.683 240.52L68.268 240.61L65.688 244H64.0829ZM77.729 244.09C77.069 244.09 76.464 243.94 75.914 243.64C75.374 243.33 74.9389 242.875 74.6089 242.275C74.2889 241.675 74.129 240.925 74.129 240.025C74.129 239.125 74.2839 238.375 74.5939 237.775C74.9139 237.175 75.344 236.725 75.884 236.425C76.434 236.125 77.049 235.975 77.729 235.975C78.509 235.975 79.199 236.145 79.799 236.485C80.399 236.825 80.874 237.3 81.224 237.91C81.574 238.51 81.7489 239.215 81.7489 240.025C81.7489 240.835 81.574 241.545 81.224 242.155C80.874 242.765 80.399 243.24 79.799 243.58C79.199 243.92 78.509 244.09 77.729 244.09ZM73.514 246.91V236.05H74.894V238.195L74.804 240.04L74.9539 241.885V246.91H73.514ZM77.6089 242.83C78.1189 242.83 78.574 242.715 78.974 242.485C79.384 242.255 79.704 241.93 79.934 241.51C80.174 241.08 80.294 240.585 80.294 240.025C80.294 239.455 80.174 238.965 79.934 238.555C79.704 238.135 79.384 237.81 78.974 237.58C78.574 237.35 78.1189 237.235 77.6089 237.235C77.1089 237.235 76.654 237.35 76.244 237.58C75.844 237.81 75.524 238.135 75.284 238.555C75.054 238.965 74.9389 239.455 74.9389 240.025C74.9389 240.585 75.054 241.08 75.284 241.51C75.524 241.93 75.844 242.255 76.244 242.485C76.654 242.715 77.1089 242.83 77.6089 242.83ZM83.739 244V236.05H85.179V244H83.739ZM84.459 234.52C84.179 234.52 83.944 234.43 83.754 234.25C83.574 234.07 83.4839 233.85 83.4839 233.59C83.4839 233.32 83.574 233.095 83.754 232.915C83.944 232.735 84.179 232.645 84.459 232.645C84.739 232.645 84.969 232.735 85.149 232.915C85.339 233.085 85.434 233.3 85.434 233.56C85.434 233.83 85.344 234.06 85.164 234.25C84.984 234.43 84.749 234.52 84.459 234.52ZM87.9279 244V236.05H89.308V238.21L89.173 237.67C89.393 237.12 89.763 236.7 90.283 236.41C90.803 236.12 91.443 235.975 92.203 235.975V237.37C92.143 237.36 92.0829 237.355 92.0229 237.355C91.9729 237.355 91.923 237.355 91.873 237.355C91.103 237.355 90.493 237.585 90.043 238.045C89.593 238.505 89.368 239.17 89.368 240.04V244H87.9279ZM97.445 244.09C96.595 244.09 95.845 243.915 95.195 243.565C94.555 243.215 94.055 242.735 93.695 242.125C93.345 241.515 93.17 240.815 93.17 240.025C93.17 239.235 93.3399 238.535 93.6799 237.925C94.0299 237.315 94.5049 236.84 95.1049 236.5C95.7149 236.15 96.4 235.975 97.16 235.975C97.93 235.975 98.61 236.145 99.2 236.485C99.79 236.825 100.25 237.305 100.58 237.925C100.92 238.535 101.09 239.25 101.09 240.07C101.09 240.13 101.085 240.2 101.075 240.28C101.075 240.36 101.07 240.435 101.06 240.505H94.295V239.47H100.31L99.725 239.83C99.735 239.32 99.63 238.865 99.41 238.465C99.19 238.065 98.8849 237.755 98.4949 237.535C98.1149 237.305 97.67 237.19 97.16 237.19C96.66 237.19 96.215 237.305 95.825 237.535C95.435 237.755 95.13 238.07 94.91 238.48C94.69 238.88 94.58 239.34 94.58 239.86V240.1C94.58 240.63 94.7 241.105 94.94 241.525C95.19 241.935 95.535 242.255 95.975 242.485C96.415 242.715 96.92 242.83 97.49 242.83C97.96 242.83 98.385 242.75 98.765 242.59C99.155 242.43 99.495 242.19 99.785 241.87L100.58 242.8C100.22 243.22 99.7699 243.54 99.2299 243.76C98.6999 243.98 98.105 244.09 97.445 244.09ZM105.37 244.09C104.71 244.09 104.08 244 103.48 243.82C102.89 243.64 102.425 243.42 102.085 243.16L102.685 242.02C103.025 242.25 103.445 242.445 103.945 242.605C104.445 242.765 104.955 242.845 105.475 242.845C106.145 242.845 106.625 242.75 106.915 242.56C107.215 242.37 107.365 242.105 107.365 241.765C107.365 241.515 107.275 241.32 107.095 241.18C106.915 241.04 106.675 240.935 106.375 240.865C106.085 240.795 105.76 240.735 105.4 240.685C105.04 240.625 104.68 240.555 104.32 240.475C103.96 240.385 103.63 240.265 103.33 240.115C103.03 239.955 102.79 239.74 102.61 239.47C102.43 239.19 102.34 238.82 102.34 238.36C102.34 237.88 102.475 237.46 102.745 237.1C103.015 236.74 103.395 236.465 103.885 236.275C104.385 236.075 104.975 235.975 105.655 235.975C106.175 235.975 106.7 236.04 107.23 236.17C107.77 236.29 108.21 236.465 108.55 236.695L107.935 237.835C107.575 237.595 107.2 237.43 106.81 237.34C106.42 237.25 106.03 237.205 105.64 237.205C105.01 237.205 104.54 237.31 104.23 237.52C103.92 237.72 103.765 237.98 103.765 238.3C103.765 238.57 103.855 238.78 104.035 238.93C104.225 239.07 104.465 239.18 104.755 239.26C105.055 239.34 105.385 239.41 105.745 239.47C106.105 239.52 106.465 239.59 106.825 239.68C107.185 239.76 107.51 239.875 107.8 240.025C108.1 240.175 108.34 240.385 108.52 240.655C108.71 240.925 108.805 241.285 108.805 241.735C108.805 242.215 108.665 242.63 108.385 242.98C108.105 243.33 107.71 243.605 107.2 243.805C106.69 243.995 106.08 244.09 105.37 244.09ZM118.038 244.09C117.238 244.09 116.528 243.915 115.908 243.565C115.288 243.215 114.798 242.735 114.438 242.125C114.078 241.505 113.898 240.805 113.898 240.025C113.898 239.235 114.078 238.535 114.438 237.925C114.798 237.315 115.288 236.84 115.908 236.5C116.528 236.15 117.238 235.975 118.038 235.975C118.828 235.975 119.533 236.15 120.153 236.5C120.783 236.84 121.273 237.315 121.623 237.925C121.983 238.525 122.163 239.225 122.163 240.025C122.163 240.815 121.983 241.515 121.623 242.125C121.273 242.735 120.783 243.215 120.153 243.565C119.533 243.915 118.828 244.09 118.038 244.09ZM118.038 242.83C118.548 242.83 119.003 242.715 119.403 242.485C119.813 242.255 120.133 241.93 120.363 241.51C120.593 241.08 120.708 240.585 120.708 240.025C120.708 239.455 120.593 238.965 120.363 238.555C120.133 238.135 119.813 237.81 119.403 237.58C119.003 237.35 118.548 237.235 118.038 237.235C117.528 237.235 117.073 237.35 116.673 237.58C116.273 237.81 115.953 238.135 115.713 238.555C115.473 238.965 115.353 239.455 115.353 240.025C115.353 240.585 115.473 241.08 115.713 241.51C115.953 241.93 116.273 242.255 116.673 242.485C117.073 242.715 117.528 242.83 118.038 242.83ZM128.399 235.975C129.049 235.975 129.619 236.1 130.109 236.35C130.609 236.6 130.999 236.98 131.279 237.49C131.559 238 131.699 238.645 131.699 239.425V244H130.259V239.59C130.259 238.82 130.069 238.24 129.689 237.85C129.319 237.46 128.794 237.265 128.114 237.265C127.604 237.265 127.159 237.365 126.779 237.565C126.399 237.765 126.104 238.06 125.894 238.45C125.694 238.84 125.594 239.325 125.594 239.905V244H124.154V236.05H125.534V238.195L125.309 237.625C125.569 237.105 125.969 236.7 126.509 236.41C127.049 236.12 127.679 235.975 128.399 235.975Z" fill="#DDDDDD"/>
<path d="M59.33 325.3C57.69 325.3 56.12 325.07 54.62 324.61C53.12 324.13 51.93 323.52 51.05 322.78L52.4 319.75C53.24 320.41 54.28 320.96 55.52 321.4C56.76 321.84 58.03 322.06 59.33 322.06C60.43 322.06 61.32 321.94 62 321.7C62.68 321.46 63.18 321.14 63.5 320.74C63.82 320.32 63.98 319.85 63.98 319.33C63.98 318.69 63.75 318.18 63.29 317.8C62.83 317.4 62.2301 317.09 61.4901 316.87C60.7701 316.63 59.96 316.41 59.06 316.21C58.18 316.01 57.29 315.78 56.39 315.52C55.51 315.24 54.7 314.89 53.96 314.47C53.24 314.03 52.65 313.45 52.19 312.73C51.73 312.01 51.5 311.09 51.5 309.97C51.5 308.83 51.8 307.79 52.4 306.85C53.02 305.89 53.95 305.13 55.19 304.57C56.45 303.99 58.0401 303.7 59.9601 303.7C61.2201 303.7 62.4701 303.86 63.7101 304.18C64.9501 304.5 66.03 304.96 66.95 305.56L65.72 308.59C64.78 308.03 63.81 307.62 62.81 307.36C61.81 307.08 60.85 306.94 59.93 306.94C58.85 306.94 57.97 307.07 57.29 307.33C56.63 307.59 56.14 307.93 55.82 308.35C55.52 308.77 55.37 309.25 55.37 309.79C55.37 310.43 55.59 310.95 56.03 311.35C56.49 311.73 57.08 312.03 57.8 312.25C58.54 312.47 59.36 312.69 60.26 312.91C61.16 313.11 62.05 313.34 62.93 313.6C63.83 313.86 64.64 314.2 65.36 314.62C66.1 315.04 66.6901 315.61 67.1301 316.33C67.5901 317.05 67.8201 317.96 67.8201 319.06C67.8201 320.18 67.51 321.22 66.89 322.18C66.29 323.12 65.3601 323.88 64.1001 324.46C62.8401 325.02 61.25 325.3 59.33 325.3ZM81.1971 325V321.76L80.987 321.07V315.4C80.987 314.3 80.657 313.45 79.997 312.85C79.337 312.23 78.337 311.92 76.997 311.92C76.097 311.92 75.207 312.06 74.327 312.34C73.467 312.62 72.737 313.01 72.137 313.51L70.6671 310.78C71.5271 310.12 72.5471 309.63 73.7271 309.31C74.9271 308.97 76.1671 308.8 77.4471 308.8C79.7671 308.8 81.557 309.36 82.817 310.48C84.097 311.58 84.737 313.29 84.737 315.61V325H81.1971ZM76.157 325.21C74.957 325.21 73.907 325.01 73.007 324.61C72.107 324.19 71.407 323.62 70.907 322.9C70.427 322.16 70.187 321.33 70.187 320.41C70.187 319.51 70.397 318.7 70.817 317.98C71.257 317.26 71.9671 316.69 72.9471 316.27C73.9271 315.85 75.227 315.64 76.847 315.64H81.497V318.13H77.1171C75.8371 318.13 74.977 318.34 74.537 318.76C74.097 319.16 73.877 319.66 73.877 320.26C73.877 320.94 74.147 321.48 74.687 321.88C75.227 322.28 75.977 322.48 76.937 322.48C77.857 322.48 78.677 322.27 79.397 321.85C80.137 321.43 80.667 320.81 80.987 319.99L81.6171 322.24C81.2571 323.18 80.6071 323.91 79.6671 324.43C78.7471 324.95 77.577 325.21 76.157 325.21ZM109.77 308.8C111.05 308.8 112.18 309.05 113.16 309.55C114.16 310.05 114.94 310.82 115.5 311.86C116.06 312.88 116.34 314.2 116.34 315.82V325H112.59V316.3C112.59 314.88 112.28 313.82 111.66 313.12C111.04 312.42 110.15 312.07 108.99 312.07C108.17 312.07 107.44 312.25 106.8 312.61C106.18 312.97 105.69 313.5 105.33 314.2C104.99 314.9 104.82 315.79 104.82 316.87V325H101.07V316.3C101.07 314.88 100.76 313.82 100.14 313.12C99.52 312.42 98.63 312.07 97.47 312.07C96.65 312.07 95.92 312.25 95.28 312.61C94.66 312.97 94.17 313.5 93.81 314.2C93.47 314.9 93.3 315.79 93.3 316.87V325H89.55V308.98H93.12V313.24L92.4901 311.98C93.0301 310.94 93.81 310.15 94.83 309.61C95.87 309.07 97.05 308.8 98.37 308.8C99.87 308.8 101.17 309.17 102.27 309.91C103.39 310.65 104.13 311.77 104.49 313.27L103.02 312.76C103.54 311.56 104.4 310.6 105.6 309.88C106.8 309.16 108.19 308.8 109.77 308.8ZM129.783 325V304H138.963C141.243 304 143.243 304.44 144.963 305.32C146.683 306.2 148.023 307.42 148.983 308.98C149.943 310.54 150.423 312.38 150.423 314.5C150.423 316.6 149.943 318.44 148.983 320.02C148.023 321.58 146.683 322.8 144.963 323.68C143.243 324.56 141.243 325 138.963 325H129.783ZM133.683 321.7H138.783C140.363 321.7 141.723 321.4 142.863 320.8C144.023 320.2 144.913 319.36 145.533 318.28C146.173 317.2 146.493 315.94 146.493 314.5C146.493 313.04 146.173 311.78 145.533 310.72C144.913 309.64 144.023 308.8 142.863 308.2C141.723 307.6 140.363 307.3 138.783 307.3H133.683V321.7ZM164.078 325V321.76L163.868 321.07V315.4C163.868 314.3 163.538 313.45 162.878 312.85C162.218 312.23 161.218 311.92 159.878 311.92C158.978 311.92 158.088 312.06 157.208 312.34C156.348 312.62 155.618 313.01 155.018 313.51L153.548 310.78C154.408 310.12 155.428 309.63 156.608 309.31C157.808 308.97 159.048 308.8 160.328 308.8C162.648 308.8 164.438 309.36 165.698 310.48C166.978 311.58 167.618 313.29 167.618 315.61V325H164.078ZM159.038 325.21C157.838 325.21 156.788 325.01 155.888 324.61C154.988 324.19 154.288 323.62 153.788 322.9C153.308 322.16 153.068 321.33 153.068 320.41C153.068 319.51 153.278 318.7 153.698 317.98C154.138 317.26 154.848 316.69 155.828 316.27C156.808 315.85 158.108 315.64 159.728 315.64H164.378V318.13H159.998C158.718 318.13 157.858 318.34 157.418 318.76C156.978 319.16 156.758 319.66 156.758 320.26C156.758 320.94 157.028 321.48 157.568 321.88C158.108 322.28 158.858 322.48 159.818 322.48C160.738 322.48 161.558 322.27 162.278 321.85C163.018 321.43 163.548 320.81 163.868 319.99L164.498 322.24C164.138 323.18 163.488 323.91 162.548 324.43C161.628 324.95 160.458 325.21 159.038 325.21ZM176.398 325L169.528 308.98H173.428L179.338 323.11H177.418L183.538 308.98H187.138L180.268 325H176.398ZM189.481 325V308.98H193.231V325H189.481ZM191.371 306.34C190.671 306.34 190.091 306.12 189.631 305.68C189.191 305.24 188.971 304.71 188.971 304.09C188.971 303.45 189.191 302.92 189.631 302.5C190.091 302.06 190.671 301.84 191.371 301.84C192.071 301.84 192.641 302.05 193.081 302.47C193.541 302.87 193.771 303.38 193.771 304C193.771 304.66 193.551 305.22 193.111 305.68C192.671 306.12 192.091 306.34 191.371 306.34ZM205.683 325.21C203.903 325.21 202.343 324.86 201.003 324.16C199.683 323.44 198.653 322.46 197.913 321.22C197.193 319.98 196.833 318.57 196.833 316.99C196.833 315.39 197.183 313.98 197.883 312.76C198.603 311.52 199.583 310.55 200.823 309.85C202.083 309.15 203.513 308.8 205.113 308.8C206.673 308.8 208.063 309.14 209.283 309.82C210.503 310.5 211.463 311.46 212.163 312.7C212.863 313.94 213.213 315.4 213.213 317.08C213.213 317.24 213.203 317.42 213.183 317.62C213.183 317.82 213.173 318.01 213.153 318.19H199.803V315.7H211.173L209.703 316.48C209.723 315.56 209.533 314.75 209.133 314.05C208.733 313.35 208.183 312.8 207.483 312.4C206.803 312 206.013 311.8 205.113 311.8C204.193 311.8 203.383 312 202.683 312.4C202.003 312.8 201.463 313.36 201.063 314.08C200.683 314.78 200.493 315.61 200.493 316.57V317.17C200.493 318.13 200.713 318.98 201.153 319.72C201.593 320.46 202.213 321.03 203.013 321.43C203.813 321.83 204.733 322.03 205.773 322.03C206.673 322.03 207.483 321.89 208.203 321.61C208.923 321.33 209.563 320.89 210.123 320.29L212.133 322.6C211.413 323.44 210.503 324.09 209.403 324.55C208.323 324.99 207.083 325.21 205.683 325.21ZM221.765 325.21C220.425 325.21 219.135 325.04 217.895 324.7C216.675 324.34 215.705 323.91 214.985 323.41L216.425 320.56C217.145 321.02 218.005 321.4 219.005 321.7C220.005 322 221.005 322.15 222.005 322.15C223.185 322.15 224.035 321.99 224.555 321.67C225.095 321.35 225.365 320.92 225.365 320.38C225.365 319.94 225.185 319.61 224.825 319.39C224.465 319.15 223.995 318.97 223.415 318.85C222.835 318.73 222.185 318.62 221.465 318.52C220.765 318.42 220.055 318.29 219.335 318.13C218.635 317.95 217.995 317.7 217.415 317.38C216.835 317.04 216.365 316.59 216.005 316.03C215.645 315.47 215.465 314.73 215.465 313.81C215.465 312.79 215.755 311.91 216.335 311.17C216.915 310.41 217.725 309.83 218.765 309.43C219.825 309.01 221.075 308.8 222.515 308.8C223.595 308.8 224.685 308.92 225.785 309.16C226.885 309.4 227.795 309.74 228.515 310.18L227.075 313.03C226.315 312.57 225.545 312.26 224.765 312.1C224.005 311.92 223.245 311.83 222.485 311.83C221.345 311.83 220.495 312 219.935 312.34C219.395 312.68 219.125 313.11 219.125 313.63C219.125 314.11 219.305 314.47 219.665 314.71C220.025 314.95 220.495 315.14 221.075 315.28C221.655 315.42 222.295 315.54 222.995 315.64C223.715 315.72 224.425 315.85 225.125 316.03C225.825 316.21 226.465 316.46 227.045 316.78C227.645 317.08 228.125 317.51 228.485 318.07C228.845 318.63 229.025 319.36 229.025 320.26C229.025 321.26 228.725 322.13 228.125 322.87C227.545 323.61 226.715 324.19 225.635 324.61C224.555 325.01 223.265 325.21 221.765 325.21Z" fill="white"/>
<path d="M65 47L50 65H63.5L62 77L77 59H63.5L65 47Z" stroke="white" stroke-width="2.5" stroke-linecap="round" stroke-linejoin="round"/>
<path d="M567.125 50.8333C570.894 53.9042 572.958 57.7743 572.958 61.7708C572.958 65.7674 570.894 69.6374 567.125 72.7082" stroke="white" stroke-width="3.5" stroke-linecap="round" stroke-linejoin="round"/>
<path d="M574.417 45C579.116 49.6325 581.708 55.5956 581.708 61.7708C581.708 67.9461 579.116 73.9092 574.417 78.5417" stroke="white" stroke-width="3.5" stroke-linecap="round" stroke-linejoin="round"/>
<path d="M561.292 56.6667C562.24 58.1578 562.75 59.9418 562.75 61.7709C562.75 63.6001 562.24 65.3839 561.292 66.875" stroke="white" stroke-width="3.5" stroke-linecap="round" stroke-linejoin="round"/>
<mask id="mask1_683_6584" style="mask-type:luminance" maskUnits="userSpaceOnUse" x="517" y="255" width="105" height="87">
<path d="M622 255H517.6V342H622V255Z" fill="white"/>
</mask>
<g mask="url(#mask1_683_6584)">
<mask id="mask2_683_6584" style="mask-type:luminance" maskUnits="userSpaceOnUse" x="517" y="264" width="80" height="78">
<path fill-rule="evenodd" clip-rule="evenodd" d="M557.011 341.702C567.369 341.702 577.305 337.629 584.628 330.377C591.954 323.126 596.067 313.29 596.067 303.034C596.067 292.779 591.954 282.943 584.628 275.69C577.305 268.44 567.369 264.365 557.011 264.365C546.653 264.365 536.719 268.44 529.395 275.69C522.07 282.943 517.955 292.779 517.955 303.034C517.955 313.29 522.07 323.126 529.395 330.377C536.719 337.629 546.653 341.702 557.011 341.702Z" fill="white"/>
</mask>
<g mask="url(#mask2_683_6584)">
<mask id="mask3_683_6584" style="mask-type:luminance" maskUnits="userSpaceOnUse" x="199" y="-373" width="1516" height="3502">
<path d="M199.194 3128.94H1714.09V-372.719H199.194V3128.94Z" fill="white"/>
</mask>
<g mask="url(#mask3_683_6584)">
<path d="M514.01 260.535H600.013V345.532H514.01V260.535Z" fill="white"/>
</g>
</g>
<mask id="mask4_683_6584" style="mask-type:luminance" maskUnits="userSpaceOnUse" x="577" y="268" width="45" height="25">
<path fill-rule="evenodd" clip-rule="evenodd" d="M577.922 292.588C583.125 286.729 589.171 282.172 595.26 283.054C598.71 283.557 600.163 285.514 603.022 285.288C606.7 284.999 611.076 281.236 615.463 268.428L622 271.594C614.69 288.081 608.771 291.799 604.504 291.728C601.15 291.671 599.481 289.282 594.557 288.439C588.044 287.319 582.09 289.985 577.919 292.584" fill="white"/>
</mask>
<g mask="url(#mask4_683_6584)">
<mask id="mask5_683_6584" style="mask-type:luminance" maskUnits="userSpaceOnUse" x="203" y="-381" width="1500" height="3538">
<path d="M203.163 3156.05H1702.92V-380.636H203.163V3156.05Z" fill="white"/>
</mask>
<g mask="url(#mask5_683_6584)">
<path d="M571.093 288.361L620.631 261.175L632.311 282.041L582.775 309.227L571.093 288.361Z" fill="#00B86C"/>
</g>
</g>
<mask id="mask6_683_6584" style="mask-type:luminance" maskUnits="userSpaceOnUse" x="581" y="269" width="28" height="22">
<path fill-rule="evenodd" clip-rule="evenodd" d="M581.009 290.491C581.051 280.166 587.226 271.822 595.14 270.039C599.679 269.218 604.363 270.161 608.217 272.675L603.824 278.288C601.345 277.371 598.677 277.065 596.051 277.396C585.895 278.756 581.301 289.765 581.009 290.494" fill="white"/>
</mask>
<g mask="url(#mask6_683_6584)">
<mask id="mask7_683_6584" style="mask-type:luminance" maskUnits="userSpaceOnUse" x="203" y="-381" width="1500" height="3538">
<path d="M203.163 3156.05H1702.92V-380.636H203.163V3156.05Z" fill="white"/>
</mask>
<g mask="url(#mask7_683_6584)">
<path d="M569.979 278.763L605.254 259.404L614.897 276.625L579.621 295.991L569.979 278.763Z" fill="#00B86C"/>
</g>
</g>
<mask id="mask8_683_6584" style="mask-type:luminance" maskUnits="userSpaceOnUse" x="550" y="265" width="40" height="17">
<path fill-rule="evenodd" clip-rule="evenodd" d="M550.15 281.307L565.118 280.442C566.722 280.35 568.26 279.772 569.522 278.786C570.785 277.799 571.711 276.454 572.174 274.93C572.739 273.075 573.983 271.497 575.662 270.503C577.341 269.51 579.335 269.174 581.251 269.56L589.185 271.161V266.651L578.62 265.109C576.697 264.827 574.738 265.262 573.122 266.329C571.504 267.397 570.345 269.021 569.868 270.886L569.508 272.296C569.16 273.656 568.445 274.899 567.441 275.89C566.435 276.882 565.179 277.585 563.802 277.926L550.15 281.307Z" fill="white"/>
</mask>
<g mask="url(#mask8_683_6584)">
<mask id="mask9_683_6584" style="mask-type:luminance" maskUnits="userSpaceOnUse" x="203" y="-381" width="1500" height="3538">
<path d="M203.163 3156.05H1702.92V-380.636H203.163V3156.05Z" fill="white"/>
</mask>
<g mask="url(#mask9_683_6584)">
<path d="M544.208 265.113L592.215 259.277L594.875 280.736L546.868 286.572L544.208 265.113Z" fill="#F35E32"/>
</g>
</g>
<mask id="mask10_683_6584" style="mask-type:luminance" maskUnits="userSpaceOnUse" x="547" y="255" width="39" height="27">
<path fill-rule="evenodd" clip-rule="evenodd" d="M547.653 259.28L582.841 255L585.57 277.009L550.382 281.288L547.653 259.28Z" fill="white"/>
</mask>
<g mask="url(#mask10_683_6584)">
<mask id="mask11_683_6584" style="mask-type:luminance" maskUnits="userSpaceOnUse" x="203" y="-381" width="1500" height="3538">
<path d="M203.163 3156.05H1702.92V-380.636H203.163V3156.05Z" fill="white"/>
</mask>
<g mask="url(#mask11_683_6584)">
<mask id="mask12_683_6584" style="mask-type:luminance" maskUnits="userSpaceOnUse" x="549" y="258" width="38" height="24">
<path d="M586.694 258.179H549.982V281.38H586.694V258.179Z" fill="white"/>
</mask>
<g mask="url(#mask12_683_6584)">
<mask id="mask13_683_6584" style="mask-type:luminance" maskUnits="userSpaceOnUse" x="550" y="258" width="36" height="23">
<path fill-rule="evenodd" clip-rule="evenodd" d="M550.478 280.935L562.504 276.84C563.637 276.454 564.667 275.815 565.515 274.973C566.36 274.133 567.002 273.11 567.387 271.986L568.507 268.694C569.047 267.114 570.086 265.748 571.469 264.798C572.854 263.846 574.51 263.362 576.193 263.416L585.65 263.716L585.93 258.767L573.108 259.028C571.358 259.063 569.67 259.677 568.313 260.771C566.955 261.868 566.005 263.38 565.617 265.071L564.533 269.772C564.298 270.79 563.858 271.753 563.24 272.598C562.621 273.446 561.836 274.161 560.933 274.7L550.478 280.935Z" fill="white"/>
</mask>
<g mask="url(#mask13_683_6584)">
<mask id="mask14_683_6584" style="mask-type:luminance" maskUnits="userSpaceOnUse" x="547" y="258" width="39" height="24">
<path d="M547.638 281.38H585.914V258.179H547.638V281.38Z" fill="white"/>
</mask>
<g mask="url(#mask14_683_6584)">
<path d="M546.573 254.892H589.835V284.801H546.573V254.892Z" fill="#F35E32"/>
</g>
</g>
</g>
</g>
</g>
<mask id="mask15_683_6584" style="mask-type:luminance" maskUnits="userSpaceOnUse" x="517" y="264" width="80" height="78">
<path fill-rule="evenodd" clip-rule="evenodd" d="M517.6 303.083C517.598 308.192 518.613 313.252 520.586 317.972C522.559 322.693 525.453 326.982 529.1 330.596C532.748 334.21 537.079 337.076 541.845 339.033C546.613 340.989 551.721 341.996 556.882 341.998C567.303 341.995 577.296 337.894 584.661 330.594C592.029 323.297 596.164 313.4 596.161 303.083C596.164 292.765 592.029 282.868 584.661 275.57C577.294 268.273 567.301 264.17 556.881 264.166C551.72 264.168 546.611 265.177 541.845 267.133C537.078 269.089 532.747 271.956 529.1 275.57C525.453 279.184 522.559 283.473 520.586 288.194C518.613 292.915 517.598 297.975 517.6 303.083Z" fill="white"/>
</mask>
<g mask="url(#mask15_683_6584)">
<mask id="mask16_683_6584" style="mask-type:luminance" maskUnits="userSpaceOnUse" x="203" y="-381" width="1500" height="3538">
<path d="M203.163 3156.05H1702.92V-380.636H203.163V3156.05Z" fill="white"/>
</mask>
<g mask="url(#mask16_683_6584)">
<mask id="mask17_683_6584" style="mask-type:luminance" maskUnits="userSpaceOnUse" x="515" y="312" width="53" height="80">
<path d="M567.947 312.315H515.613V391.973H567.947V312.315Z" fill="white"/>
</mask>
<g mask="url(#mask17_683_6584)">
<mask id="mask18_683_6584" style="mask-type:luminance" maskUnits="userSpaceOnUse" x="518" y="313" width="48" height="79">
<path fill-rule="evenodd" clip-rule="evenodd" d="M559.184 387.306L525.209 391.329L518.503 340.314C517.964 336.947 518.169 333.505 519.102 330.225C520.034 326.945 521.675 323.904 523.909 321.311C526.143 318.719 528.919 316.638 532.044 315.209C535.169 313.781 538.571 313.041 542.012 313.039C545.456 313.039 548.856 313.779 551.982 315.207C555.109 316.634 557.885 318.717 560.12 321.31C562.355 323.902 563.995 326.944 564.93 330.224C565.864 333.505 566.068 336.947 565.528 340.314L559.184 387.306Z" fill="white"/>
</mask>
<g mask="url(#mask18_683_6584)">
<mask id="mask19_683_6584" style="mask-type:luminance" maskUnits="userSpaceOnUse" x="518" y="263" width="79" height="80">
<path d="M518.736 342.477H596.848V263.592H518.736V342.477Z" fill="white"/>
</mask>
<g mask="url(#mask19_683_6584)">
<path d="M514.298 309.173H569.729V395.199H514.298V309.173Z" fill="#F35E32"/>
</g>
</g>
</g>
</g>
</g>
<mask id="mask20_683_6584" style="mask-type:luminance" maskUnits="userSpaceOnUse" x="517" y="264" width="80" height="78">
<path fill-rule="evenodd" clip-rule="evenodd" d="M517.6 303.083C517.598 308.192 518.613 313.252 520.586 317.972C522.559 322.693 525.453 326.982 529.1 330.596C532.748 334.21 537.079 337.076 541.845 339.033C546.613 340.989 551.721 341.996 556.882 341.998C567.303 341.995 577.296 337.894 584.661 330.594C592.029 323.297 596.164 313.4 596.161 303.083C596.164 292.765 592.029 282.868 584.661 275.57C577.294 268.273 567.301 264.17 556.881 264.166C551.72 264.168 546.611 265.177 541.845 267.133C537.078 269.089 532.747 271.956 529.1 275.57C525.453 279.184 522.559 283.473 520.586 288.194C518.613 292.915 517.598 297.975 517.6 303.083Z" fill="white"/>
</mask>
<g mask="url(#mask20_683_6584)">
<mask id="mask21_683_6584" style="mask-type:luminance" maskUnits="userSpaceOnUse" x="203" y="-381" width="1500" height="3538">
<path d="M203.163 3156.05H1702.92V-380.636H203.163V3156.05Z" fill="white"/>
</mask>
<g mask="url(#mask21_683_6584)">
<mask id="mask22_683_6584" style="mask-type:luminance" maskUnits="userSpaceOnUse" x="538" y="302" width="35" height="36">
<path d="M572.634 302.262H538.264V337.064H572.634V302.262Z" fill="white"/>
</mask>
<g mask="url(#mask22_683_6584)">
<mask id="mask23_683_6584" style="mask-type:luminance" maskUnits="userSpaceOnUse" x="538" y="302" width="35" height="35">
<path fill-rule="evenodd" clip-rule="evenodd" d="M538.506 321.454L556.232 336.82L572.114 328.404L560.08 318.867C559.224 318.19 558.535 317.332 558.06 316.354C557.587 315.378 557.34 314.308 557.34 313.224V302.429H538.506V321.454Z" fill="white"/>
</mask>
<g mask="url(#mask23_683_6584)">
<mask id="mask24_683_6584" style="mask-type:luminance" maskUnits="userSpaceOnUse" x="518" y="263" width="79" height="80">
<path d="M518.736 342.477H596.848V263.592H518.736V342.477Z" fill="white"/>
</mask>
<g mask="url(#mask24_683_6584)">
<path d="M534.6 298.563H576.017V340.686H534.6V298.563Z" fill="#2A475E"/>
</g>
</g>
</g>
</g>
</g>
<mask id="mask25_683_6584" style="mask-type:luminance" maskUnits="userSpaceOnUse" x="517" y="264" width="80" height="78">
<path fill-rule="evenodd" clip-rule="evenodd" d="M517.6 303.083C517.598 308.192 518.613 313.252 520.586 317.972C522.559 322.693 525.453 326.982 529.1 330.596C532.748 334.21 537.079 337.076 541.845 339.033C546.613 340.989 551.721 341.996 556.882 341.998C567.303 341.995 577.296 337.894 584.661 330.594C592.029 323.297 596.164 313.4 596.161 303.083C596.164 292.765 592.029 282.868 584.661 275.57C577.294 268.273 567.301 264.17 556.881 264.166C551.72 264.168 546.611 265.177 541.845 267.133C537.078 269.089 532.747 271.956 529.1 275.57C525.453 279.184 522.559 283.473 520.586 288.194C518.613 292.915 517.598 297.975 517.6 303.083Z" fill="white"/>
</mask>
<g mask="url(#mask25_683_6584)">
<mask id="mask26_683_6584" style="mask-type:luminance" maskUnits="userSpaceOnUse" x="203" y="-381" width="1500" height="3538">
<path d="M203.163 3156.05H1702.92V-380.636H203.163V3156.05Z" fill="white"/>
</mask>
<g mask="url(#mask26_683_6584)">
<mask id="mask27_683_6584" style="mask-type:luminance" maskUnits="userSpaceOnUse" x="510" y="302" width="35" height="36">
<path d="M544.514 302.262H510.144V337.064H544.514V302.262Z" fill="white"/>
</mask>
<g mask="url(#mask27_683_6584)">
<mask id="mask28_683_6584" style="mask-type:luminance" maskUnits="userSpaceOnUse" x="510" y="302" width="35" height="35">
<path fill-rule="evenodd" clip-rule="evenodd" d="M544.045 321.454L526.319 336.82L510.44 328.404L522.476 318.867C523.33 318.19 524.019 317.33 524.492 316.354C524.965 315.378 525.211 314.308 525.211 313.224V302.429H544.045V321.454Z" fill="white"/>
</mask>
<g mask="url(#mask28_683_6584)">
<mask id="mask29_683_6584" style="mask-type:luminance" maskUnits="userSpaceOnUse" x="518" y="263" width="79" height="80">
<path d="M518.736 342.477H596.848V263.592H518.736V342.477Z" fill="white"/>
</mask>
<g mask="url(#mask29_683_6584)">
<path d="M506.534 298.563H547.949V340.686H506.534V298.563Z" fill="#2A475E"/>
</g>
</g>
</g>
</g>
</g>
<mask id="mask30_683_6584" style="mask-type:luminance" maskUnits="userSpaceOnUse" x="517" y="264" width="80" height="78">
<path fill-rule="evenodd" clip-rule="evenodd" d="M517.6 303.083C517.598 308.192 518.613 313.252 520.586 317.972C522.559 322.693 525.453 326.982 529.1 330.596C532.748 334.21 537.079 337.076 541.845 339.033C546.613 340.989 551.721 341.996 556.882 341.998C567.303 341.995 577.296 337.894 584.661 330.594C592.029 323.297 596.164 313.4 596.161 303.083C596.164 292.765 592.029 282.868 584.661 275.57C577.294 268.273 567.301 264.17 556.881 264.166C551.72 264.168 546.611 265.177 541.845 267.133C537.078 269.089 532.747 271.956 529.1 275.57C525.453 279.184 522.559 283.473 520.586 288.194C518.613 292.915 517.598 297.975 517.6 303.083Z" fill="white"/>
</mask>
<g mask="url(#mask30_683_6584)">
<mask id="mask31_683_6584" style="mask-type:luminance" maskUnits="userSpaceOnUse" x="203" y="-381" width="1500" height="3538">
<path d="M203.163 3156.05H1702.92V-380.636H203.163V3156.05Z" fill="white"/>
</mask>
<g mask="url(#mask31_683_6584)">
<mask id="mask32_683_6584" style="mask-type:luminance" maskUnits="userSpaceOnUse" x="524" y="276" width="34" height="46">
<path d="M557.793 276.739H524.987V321.595H557.793V276.739Z" fill="white"/>
</mask>
<g mask="url(#mask32_683_6584)">
<mask id="mask33_683_6584" style="mask-type:luminance" maskUnits="userSpaceOnUse" x="525" y="277" width="33" height="45">
<path fill-rule="evenodd" clip-rule="evenodd" d="M550.14 277.183H543.491C541.066 277.185 538.664 277.658 536.423 278.579C534.184 279.497 532.148 280.846 530.433 282.544C528.719 284.242 527.36 286.259 526.432 288.477C525.503 290.696 525.026 293.075 525.028 295.476V314.134C525.028 316.074 525.806 317.936 527.191 319.307C528.576 320.68 530.453 321.45 532.413 321.45H550.14C552.099 321.45 553.977 320.68 555.362 319.307C556.747 317.936 557.524 316.074 557.524 314.134V284.5C557.524 282.561 556.747 280.7 555.362 279.329C553.977 277.956 552.099 277.185 550.14 277.183Z" fill="white"/>
</mask>
<g mask="url(#mask33_683_6584)">
<mask id="mask34_683_6584" style="mask-type:luminance" maskUnits="userSpaceOnUse" x="518" y="263" width="79" height="80">
<path d="M518.738 342.475H596.85V263.59H518.738V342.475Z" fill="white"/>
</mask>
<g mask="url(#mask34_683_6584)">
<path d="M521.122 273.319H561.431V325.32H521.122V273.319Z" fill="#0D254E"/>
</g>
</g>
</g>
</g>
</g>
<mask id="mask35_683_6584" style="mask-type:luminance" maskUnits="userSpaceOnUse" x="517" y="264" width="80" height="78">
<path fill-rule="evenodd" clip-rule="evenodd" d="M517.6 303.083C517.598 308.192 518.613 313.252 520.586 317.972C522.559 322.693 525.453 326.982 529.1 330.596C532.748 334.21 537.079 337.076 541.845 339.033C546.613 340.989 551.721 341.996 556.882 341.998C567.303 341.995 577.296 337.894 584.661 330.594C592.029 323.297 596.164 313.4 596.161 303.083C596.164 292.765 592.029 282.868 584.661 275.57C577.294 268.273 567.301 264.17 556.881 264.166C551.72 264.168 546.611 265.177 541.845 267.133C537.078 269.089 532.747 271.956 529.1 275.57C525.453 279.184 522.559 283.473 520.586 288.194C518.613 292.915 517.598 297.975 517.6 303.083Z" fill="white"/>
</mask>
<g mask="url(#mask35_683_6584)">
<mask id="mask36_683_6584" style="mask-type:luminance" maskUnits="userSpaceOnUse" x="203" y="-381" width="1500" height="3538">
<path d="M203.163 3156.05H1702.92V-380.636H203.163V3156.05Z" fill="white"/>
</mask>
<g mask="url(#mask36_683_6584)">
<mask id="mask37_683_6584" style="mask-type:luminance" maskUnits="userSpaceOnUse" x="526" y="286" width="31" height="31">
<path d="M556.23 286.793H526.547V316.956H556.23V286.793Z" fill="white"/>
</mask>
<g mask="url(#mask37_683_6584)">
<mask id="mask38_683_6584" style="mask-type:luminance" maskUnits="userSpaceOnUse" x="526" y="287" width="30" height="30">
<path fill-rule="evenodd" clip-rule="evenodd" d="M555.861 301.881C555.863 305.712 554.326 309.387 551.591 312.096C548.856 314.807 545.146 316.33 541.276 316.331C539.359 316.331 537.462 315.957 535.693 315.23C533.921 314.504 532.314 313.44 530.96 312.096C529.604 310.755 528.531 309.163 527.798 307.409C527.066 305.657 526.688 303.777 526.69 301.881C526.688 299.982 527.066 298.105 527.798 296.351C528.531 294.599 529.604 293.005 530.96 291.664C532.314 290.322 533.921 289.257 535.693 288.53C537.462 287.804 539.359 287.428 541.276 287.428C545.146 287.43 548.856 288.954 551.591 291.664C554.326 294.374 555.863 298.049 555.861 301.881Z" fill="white"/>
</mask>
<g mask="url(#mask38_683_6584)">
<mask id="mask39_683_6584" style="mask-type:luminance" maskUnits="userSpaceOnUse" x="518" y="263" width="79" height="80">
<path d="M518.736 342.475H596.848V263.59H518.736V342.475Z" fill="white"/>
</mask>
<g mask="url(#mask39_683_6584)">
<path d="M522.783 283.562H559.767V320.198H522.783V283.562Z" fill="#2A475E"/>
</g>
</g>
</g>
</g>
</g>
<mask id="mask40_683_6584" style="mask-type:luminance" maskUnits="userSpaceOnUse" x="526" y="287" width="30" height="30">
<path fill-rule="evenodd" clip-rule="evenodd" d="M526.69 301.881C526.688 305.712 528.224 309.387 530.96 312.096C533.695 314.807 537.406 316.33 541.276 316.331C545.146 316.33 548.856 314.807 551.591 312.096C554.326 309.387 555.863 305.712 555.861 301.881C555.863 299.982 555.485 298.105 554.752 296.351C554.02 294.599 552.946 293.005 551.591 291.664C550.237 290.322 548.629 289.257 546.858 288.53C545.088 287.804 543.192 287.43 541.276 287.428C539.359 287.43 537.462 287.804 535.692 288.53C533.921 289.257 532.313 290.322 530.96 291.664C529.604 293.005 528.531 294.599 527.798 296.351C527.066 298.105 526.688 299.982 526.69 301.881Z" fill="white"/>
</mask>
<g mask="url(#mask40_683_6584)">
<mask id="mask41_683_6584" style="mask-type:luminance" maskUnits="userSpaceOnUse" x="203" y="-381" width="1500" height="3538">
<path d="M203.163 3156.05H1702.92V-380.636H203.163V3156.05Z" fill="white"/>
</mask>
<g mask="url(#mask41_683_6584)">
<mask id="mask42_683_6584" style="mask-type:luminance" maskUnits="userSpaceOnUse" x="528" y="282" width="27" height="42">
<path d="M554.667 282.154H528.11V323.144H554.667V282.154Z" fill="white"/>
</mask>
<g mask="url(#mask42_683_6584)">
<mask id="mask43_683_6584" style="mask-type:luminance" maskUnits="userSpaceOnUse" x="528" y="282" width="27" height="42">
<path fill-rule="evenodd" clip-rule="evenodd" d="M528.546 321.04V294.877C528.546 293.221 528.875 291.582 529.514 290.052C530.154 288.523 531.09 287.133 532.273 285.963C533.455 284.792 534.857 283.863 536.403 283.228C537.946 282.595 539.602 282.267 541.274 282.267C542.947 282.267 544.601 282.595 546.146 283.228C547.69 283.863 549.094 284.792 550.275 285.963C551.457 287.133 552.395 288.523 553.033 290.052C553.674 291.582 554.003 293.221 554.001 294.877V323.083L528.546 321.04Z" fill="white"/>
</mask>
<g mask="url(#mask43_683_6584)">
<mask id="mask44_683_6584" style="mask-type:luminance" maskUnits="userSpaceOnUse" x="526" y="286" width="31" height="31">
<path d="M526.545 316.956H556.228V286.793H526.545V316.956Z" fill="white"/>
</mask>
<g mask="url(#mask44_683_6584)">
<path d="M524.64 278.4H557.907V326.946H524.64V278.4Z" fill="#F4A85D"/>
</g>
</g>
</g>
</g>
</g>
<mask id="mask45_683_6584" style="mask-type:luminance" maskUnits="userSpaceOnUse" x="517" y="264" width="80" height="78">
<path fill-rule="evenodd" clip-rule="evenodd" d="M517.6 303.083C517.598 308.192 518.613 313.252 520.586 317.972C522.559 322.693 525.453 326.982 529.1 330.596C532.748 334.21 537.079 337.076 541.845 339.033C546.613 340.989 551.721 341.996 556.882 341.998C567.303 341.995 577.296 337.894 584.661 330.594C592.029 323.297 596.164 313.4 596.161 303.083C596.164 292.765 592.029 282.868 584.661 275.57C577.294 268.273 567.301 264.17 556.881 264.166C551.72 264.168 546.611 265.177 541.845 267.133C537.078 269.089 532.747 271.956 529.1 275.57C525.453 279.184 522.559 283.473 520.586 288.194C518.613 292.915 517.598 297.975 517.6 303.083Z" fill="white"/>
</mask>
<g mask="url(#mask45_683_6584)">
<mask id="mask46_683_6584" style="mask-type:luminance" maskUnits="userSpaceOnUse" x="203" y="-381" width="1500" height="3538">
<path d="M203.163 3156.05H1702.92V-380.636H203.163V3156.05Z" fill="white"/>
</mask>
<g mask="url(#mask46_683_6584)">
<mask id="mask47_683_6584" style="mask-type:luminance" maskUnits="userSpaceOnUse" x="535" y="293" width="8" height="14">
<path d="M542.171 293.753H535.141V306.126H542.171V293.753Z" fill="white"/>
</mask>
<g mask="url(#mask47_683_6584)">
<mask id="mask48_683_6584" style="mask-type:luminance" maskUnits="userSpaceOnUse" x="535" y="294" width="7" height="12">
<path fill-rule="evenodd" clip-rule="evenodd" d="M535.183 305.356H541.831V294.014L535.183 305.356Z" fill="white"/>
</mask>
<g mask="url(#mask48_683_6584)">
<mask id="mask49_683_6584" style="mask-type:luminance" maskUnits="userSpaceOnUse" x="518" y="263" width="79" height="80">
<path d="M518.738 342.475H596.85V263.59H518.738V342.475Z" fill="white"/>
</mask>
<g mask="url(#mask49_683_6584)">
<path d="M531.277 290.148H545.736V309.224H531.277V290.148Z" fill="#EA7800"/>
</g>
</g>
</g>
</g>
</g>
<mask id="mask50_683_6584" style="mask-type:luminance" maskUnits="userSpaceOnUse" x="542" y="305" width="8" height="6">
<path d="M542.162 310.476C543.865 310.579 545.56 310.16 547.013 309.274C548.175 308.58 549.146 307.614 549.844 306.462L548.584 305.7C548.006 306.648 547.204 307.444 546.245 308.016C545.043 308.747 543.642 309.093 542.235 309.008L542.162 310.476Z" fill="white"/>
</mask>
<g mask="url(#mask50_683_6584)">
<mask id="mask51_683_6584" style="mask-type:luminance" maskUnits="userSpaceOnUse" x="203" y="-381" width="1500" height="3538">
<path d="M203.163 3156.05H1702.92V-380.636H203.163V3156.05Z" fill="white"/>
</mask>
<g mask="url(#mask51_683_6584)">
<path d="M538.257 301.839H553.75V314.355H538.257V301.839Z" fill="#FEFFFE"/>
</g>
</g>
<mask id="mask52_683_6584" style="mask-type:luminance" maskUnits="userSpaceOnUse" x="517" y="264" width="80" height="78">
<path fill-rule="evenodd" clip-rule="evenodd" d="M517.6 303.083C517.598 308.192 518.613 313.252 520.586 317.972C522.559 322.693 525.453 326.982 529.1 330.596C532.748 334.21 537.079 337.076 541.845 339.033C546.613 340.989 551.721 341.996 556.882 341.998C567.303 341.995 577.296 337.894 584.661 330.594C592.029 323.297 596.164 313.4 596.161 303.083C596.164 292.765 592.029 282.868 584.661 275.57C577.294 268.273 567.301 264.17 556.881 264.166C551.72 264.168 546.611 265.177 541.845 267.133C537.078 269.089 532.747 271.956 529.1 275.57C525.453 279.184 522.559 283.473 520.586 288.194C518.613 292.915 517.598 297.975 517.6 303.083Z" fill="white"/>
</mask>
<g mask="url(#mask52_683_6584)">
<mask id="mask53_683_6584" style="mask-type:luminance" maskUnits="userSpaceOnUse" x="203" y="-381" width="1500" height="3538">
<path d="M203.163 3156.05H1702.92V-380.636H203.163V3156.05Z" fill="white"/>
</mask>
<g mask="url(#mask53_683_6584)">
<mask id="mask54_683_6584" style="mask-type:luminance" maskUnits="userSpaceOnUse" x="547" y="294" width="4" height="3">
<path d="M550.763 294.527H547.638V296.849H550.763V294.527Z" fill="white"/>
</mask>
<g mask="url(#mask54_683_6584)">
<mask id="mask55_683_6584" style="mask-type:luminance" maskUnits="userSpaceOnUse" x="547" y="295" width="4" height="2">
<path fill-rule="evenodd" clip-rule="evenodd" d="M550.693 296.393H547.949C547.949 296.227 547.982 296.062 548.047 295.909C548.111 295.754 548.205 295.615 548.323 295.498C548.442 295.38 548.583 295.286 548.738 295.223C548.892 295.159 549.059 295.126 549.227 295.126H549.411C549.578 295.126 549.745 295.159 549.9 295.223C550.055 295.286 550.196 295.38 550.314 295.498C550.434 295.615 550.528 295.754 550.591 295.909C550.655 296.062 550.688 296.227 550.688 296.393" fill="white"/>
</mask>
<g mask="url(#mask55_683_6584)">
<mask id="mask56_683_6584" style="mask-type:luminance" maskUnits="userSpaceOnUse" x="518" y="263" width="79" height="80">
<path d="M518.736 342.476H596.848V263.592H518.736V342.476Z" fill="white"/>
</mask>
<g mask="url(#mask56_683_6584)">
<path d="M544.043 291.26H554.592V300.261H544.043V291.26Z" fill="#231E1F"/>
</g>
</g>
</g>
</g>
</g>
<mask id="mask57_683_6584" style="mask-type:luminance" maskUnits="userSpaceOnUse" x="517" y="264" width="80" height="78">
<path fill-rule="evenodd" clip-rule="evenodd" d="M517.6 303.083C517.598 308.192 518.613 313.252 520.586 317.972C522.559 322.693 525.453 326.982 529.1 330.596C532.748 334.21 537.079 337.076 541.845 339.033C546.613 340.989 551.721 341.996 556.882 341.998C567.303 341.995 577.296 337.894 584.661 330.594C592.029 323.297 596.164 313.4 596.161 303.083C596.164 292.765 592.029 282.868 584.661 275.57C577.294 268.273 567.301 264.17 556.881 264.166C551.72 264.168 546.611 265.177 541.845 267.133C537.078 269.089 532.747 271.956 529.1 275.57C525.453 279.184 522.559 283.473 520.586 288.194C518.613 292.915 517.598 297.975 517.6 303.083Z" fill="white"/>
</mask>
<g mask="url(#mask57_683_6584)">
<mask id="mask58_683_6584" style="mask-type:luminance" maskUnits="userSpaceOnUse" x="203" y="-381" width="1500" height="3538">
<path d="M203.163 3156.05H1702.92V-380.636H203.163V3156.05Z" fill="white"/>
</mask>
<g mask="url(#mask58_683_6584)">
<mask id="mask59_683_6584" style="mask-type:luminance" maskUnits="userSpaceOnUse" x="531" y="294" width="5" height="3">
<path d="M535.141 294.527H531.235V296.849H535.141V294.527Z" fill="white"/>
</mask>
<g mask="url(#mask59_683_6584)">
<mask id="mask60_683_6584" style="mask-type:luminance" maskUnits="userSpaceOnUse" x="531" y="295" width="4" height="2">
<path fill-rule="evenodd" clip-rule="evenodd" d="M534.443 296.393H531.701C531.701 296.227 531.734 296.062 531.798 295.909C531.863 295.754 531.957 295.615 532.075 295.498C532.193 295.38 532.334 295.286 532.489 295.223C532.646 295.159 532.811 295.126 532.98 295.126H533.162C533.331 295.126 533.497 295.159 533.651 295.223C533.806 295.286 533.947 295.38 534.067 295.498C534.186 295.615 534.28 295.754 534.344 295.909C534.408 296.062 534.44 296.227 534.44 296.393" fill="white"/>
</mask>
<g mask="url(#mask60_683_6584)">
<mask id="mask61_683_6584" style="mask-type:luminance" maskUnits="userSpaceOnUse" x="518" y="263" width="79" height="80">
<path d="M518.738 342.476H596.85V263.592H518.738V342.476Z" fill="white"/>
</mask>
<g mask="url(#mask61_683_6584)">
<path d="M527.797 291.26H538.348V300.261H527.797V291.26Z" fill="#231E1F"/>
</g>
</g>
</g>
</g>
</g>
<mask id="mask62_683_6584" style="mask-type:luminance" maskUnits="userSpaceOnUse" x="526" y="291" width="31" height="3">
<path d="M526.69 293.25H556.976V291.343H526.69V293.25Z" fill="white"/>
</mask>
<g mask="url(#mask62_683_6584)">
<mask id="mask63_683_6584" style="mask-type:luminance" maskUnits="userSpaceOnUse" x="203" y="-381" width="1500" height="3538">
<path d="M203.163 3156.05H1702.92V-380.636H203.163V3156.05Z" fill="white"/>
</mask>
<g mask="url(#mask63_683_6584)">
<path d="M522.783 287.477H560.877V297.118H522.783V287.477Z" fill="#0D254E"/>
</g>
</g>
<mask id="mask64_683_6584" style="mask-type:luminance" maskUnits="userSpaceOnUse" x="526" y="297" width="31" height="3">
<path d="M526.69 299.81H556.976V297.901H526.69V299.81Z" fill="white"/>
</mask>
<g mask="url(#mask64_683_6584)">
<mask id="mask65_683_6584" style="mask-type:luminance" maskUnits="userSpaceOnUse" x="203" y="-381" width="1500" height="3538">
<path d="M203.163 3156.05H1702.92V-380.636H203.163V3156.05Z" fill="white"/>
</mask>
<g mask="url(#mask65_683_6584)">
<path d="M522.783 294.035H560.877V303.676H522.783V294.035Z" fill="#0D254E"/>
</g>
</g>
<mask id="mask66_683_6584" style="mask-type:luminance" maskUnits="userSpaceOnUse" x="526" y="311" width="30" height="3">
<path d="M526.69 313.097H555.128V311.19H526.69V313.097Z" fill="white"/>
</mask>
<g mask="url(#mask66_683_6584)">
<mask id="mask67_683_6584" style="mask-type:luminance" maskUnits="userSpaceOnUse" x="203" y="-381" width="1500" height="3538">
<path d="M203.163 3156.05H1702.92V-380.636H203.163V3156.05Z" fill="white"/>
</mask>
<g mask="url(#mask67_683_6584)">
<path d="M522.783 307.323H559.031V316.97H522.783V307.323Z" fill="#0D254E"/>
</g>
</g>
<mask id="mask68_683_6584" style="mask-type:luminance" maskUnits="userSpaceOnUse" x="526" y="304" width="31" height="3">
<path d="M526.69 306.537H556.976V304.63H526.69V306.537Z" fill="white"/>
</mask>
<g mask="url(#mask68_683_6584)">
<mask id="mask69_683_6584" style="mask-type:luminance" maskUnits="userSpaceOnUse" x="203" y="-381" width="1500" height="3538">
<path d="M203.163 3156.05H1702.92V-380.636H203.163V3156.05Z" fill="white"/>
</mask>
<g mask="url(#mask69_683_6584)">
<path d="M522.783 300.764H560.877V310.405H522.783V300.764Z" fill="#0D254E"/>
</g>
</g>
<mask id="mask70_683_6584" style="mask-type:luminance" maskUnits="userSpaceOnUse" x="517" y="264" width="80" height="78">
<path fill-rule="evenodd" clip-rule="evenodd" d="M556.882 342C567.303 341.997 577.296 337.894 584.661 330.596C592.029 323.297 596.164 313.401 596.161 303.083C596.164 292.765 592.029 282.868 584.661 275.57C577.294 268.273 567.301 264.17 556.881 264.166C551.72 264.168 546.611 265.177 541.845 267.133C537.078 269.089 532.747 271.956 529.1 275.57C525.453 279.184 522.559 283.473 520.586 288.194C518.613 292.915 517.598 297.975 517.6 303.083C517.598 308.192 518.613 313.252 520.586 317.972C522.559 322.693 525.453 326.982 529.1 330.596C532.747 334.21 537.078 337.078 541.845 339.033C546.611 340.991 551.721 341.998 556.882 342Z" fill="white"/>
</mask>
<g mask="url(#mask70_683_6584)">
<mask id="mask71_683_6584" style="mask-type:luminance" maskUnits="userSpaceOnUse" x="203" y="-381" width="1500" height="3538">
<path d="M203.163 3156.05H1702.92V-380.636H203.163V3156.05Z" fill="white"/>
</mask>
<g mask="url(#mask71_683_6584)">
<mask id="mask72_683_6584" style="mask-type:luminance" maskUnits="userSpaceOnUse" x="542" y="306" width="69" height="44">
<path d="M610.128 306.901H542.171V349.437H610.128V306.901Z" fill="white"/>
</mask>
<g mask="url(#mask72_683_6584)">
<mask id="mask73_683_6584" style="mask-type:luminance" maskUnits="userSpaceOnUse" x="542" y="307" width="68" height="43">
<path fill-rule="evenodd" clip-rule="evenodd" d="M592.763 314.995V307.494H560.262V314.995C560.263 316.592 559.714 318.143 558.706 319.389C557.699 320.636 556.294 321.506 554.72 321.858C551.576 322.559 548.765 324.297 546.754 326.791C544.741 329.282 543.645 332.378 543.645 335.569C543.382 340.122 543.117 344.674 542.855 349.226L609.377 338.226V335.569C609.377 332.378 608.28 329.282 606.269 326.791C604.256 324.297 601.446 322.559 598.302 321.858C596.729 321.506 595.324 320.634 594.317 319.389C593.311 318.141 592.763 316.592 592.763 314.995Z" fill="white"/>
</mask>
<g mask="url(#mask73_683_6584)">
<mask id="mask74_683_6584" style="mask-type:luminance" maskUnits="userSpaceOnUse" x="518" y="263" width="79" height="80">
<path d="M518.737 342.475H596.849V263.59H518.737V342.475Z" fill="white"/>
</mask>
<g mask="url(#mask74_683_6584)">
<path d="M538.947 303.628H613.279V353.094H538.947V303.628Z" fill="#00264D"/>
</g>
</g>
</g>
</g>
</g>
<mask id="mask75_683_6584" style="mask-type:luminance" maskUnits="userSpaceOnUse" x="560" y="284" width="33" height="41">
<path fill-rule="evenodd" clip-rule="evenodd" d="M576.51 324.691C572.203 324.678 568.076 322.978 565.031 319.961C561.986 316.946 560.27 312.859 560.26 308.594V300.548C560.27 296.285 561.986 292.198 565.031 289.181C568.076 286.165 572.203 284.465 576.51 284.451C580.818 284.463 584.943 286.165 587.988 289.181C591.033 292.198 592.749 296.283 592.761 300.548V308.594C592.749 312.859 591.033 316.946 587.988 319.961C584.943 322.978 580.818 324.678 576.51 324.691Z" fill="white"/>
</mask>
<g mask="url(#mask75_683_6584)">
<mask id="mask76_683_6584" style="mask-type:luminance" maskUnits="userSpaceOnUse" x="203" y="-381" width="1500" height="3538">
<path d="M203.163 3156.05H1702.92V-380.636H203.163V3156.05Z" fill="white"/>
</mask>
<g mask="url(#mask76_683_6584)">
<path d="M556.355 280.58H596.664V328.557H556.355V280.58Z" fill="#00264D"/>
</g>
</g>
<mask id="mask77_683_6584" style="mask-type:luminance" maskUnits="userSpaceOnUse" x="559" y="296" width="35" height="8">
<path fill-rule="evenodd" clip-rule="evenodd" d="M559.891 303.837H593.126V296.885H559.891V303.837Z" fill="white"/>
</mask>
<g mask="url(#mask77_683_6584)">
<mask id="mask78_683_6584" style="mask-type:luminance" maskUnits="userSpaceOnUse" x="203" y="-381" width="1500" height="3538">
<path d="M203.163 3156.05H1702.92V-380.636H203.163V3156.05Z" fill="white"/>
</mask>
<g mask="url(#mask78_683_6584)">
<path d="M555.984 293.019H597.031V307.705H555.984V293.019Z" fill="#00B86C"/>
</g>
</g>
<mask id="mask79_683_6584" style="mask-type:luminance" maskUnits="userSpaceOnUse" x="562" y="300" width="29" height="9">
<path fill-rule="evenodd" clip-rule="evenodd" d="M586.744 308.437H566.83C565.774 308.434 564.763 308.016 564.016 307.277C563.27 306.537 562.849 305.537 562.847 304.491C562.849 303.445 563.27 302.443 564.016 301.703C564.763 300.964 565.774 300.548 566.83 300.544H586.744C587.8 300.548 588.811 300.966 589.558 301.705C590.304 302.445 590.725 303.445 590.727 304.491C590.725 305.537 590.304 306.537 589.558 307.277C588.811 308.016 587.8 308.434 586.744 308.437Z" fill="white"/>
</mask>
<g mask="url(#mask79_683_6584)">
<mask id="mask80_683_6584" style="mask-type:luminance" maskUnits="userSpaceOnUse" x="203" y="-381" width="1500" height="3538">
<path d="M203.163 3156.05H1702.92V-380.636H203.163V3156.05Z" fill="white"/>
</mask>
<g mask="url(#mask80_683_6584)">
<path d="M558.937 296.678H594.632V312.302H558.937V296.678Z" fill="#F4A85D"/>
</g>
</g>
<mask id="mask81_683_6584" style="mask-type:luminance" maskUnits="userSpaceOnUse" x="566" y="303" width="3" height="2">
<path fill-rule="evenodd" clip-rule="evenodd" d="M566.353 304.856C566.353 304.515 566.489 304.19 566.733 303.95C566.974 303.71 567.303 303.576 567.646 303.576C567.989 303.576 568.318 303.711 568.559 303.951C568.801 304.19 568.937 304.517 568.937 304.856" fill="white"/>
</mask>
<g mask="url(#mask81_683_6584)">
<mask id="mask82_683_6584" style="mask-type:luminance" maskUnits="userSpaceOnUse" x="203" y="-381" width="1500" height="3538">
<path d="M203.163 3156.05H1702.92V-380.636H203.163V3156.05Z" fill="white"/>
</mask>
<g mask="url(#mask82_683_6584)">
<path d="M562.447 299.709H572.843V308.726H562.447V299.709Z" fill="#00264D"/>
</g>
</g>
<mask id="mask83_683_6584" style="mask-type:luminance" maskUnits="userSpaceOnUse" x="582" y="303" width="3" height="2">
<path fill-rule="evenodd" clip-rule="evenodd" d="M582.232 304.935C582.232 304.595 582.368 304.27 582.612 304.03C582.853 303.79 583.182 303.654 583.525 303.654C583.868 303.654 584.197 303.79 584.44 304.03C584.682 304.27 584.818 304.595 584.818 304.935" fill="white"/>
</mask>
<g mask="url(#mask83_683_6584)">
<mask id="mask84_683_6584" style="mask-type:luminance" maskUnits="userSpaceOnUse" x="203" y="-381" width="1500" height="3538">
<path d="M203.163 3156.05H1702.92V-380.636H203.163V3156.05Z" fill="white"/>
</mask>
<g mask="url(#mask84_683_6584)">
<path d="M578.328 299.786H588.724V308.801H578.328V299.786Z" fill="#00264D"/>
</g>
</g>
<mask id="mask85_683_6584" style="mask-type:luminance" maskUnits="userSpaceOnUse" x="573" y="301" width="5" height="8">
<path fill-rule="evenodd" clip-rule="evenodd" d="M573.924 308.437H577.381V301.851L573.924 308.437Z" fill="white"/>
</mask>
<g mask="url(#mask85_683_6584)">
<mask id="mask86_683_6584" style="mask-type:luminance" maskUnits="userSpaceOnUse" x="203" y="-381" width="1500" height="3538">
<path d="M203.163 3156.05H1702.92V-380.636H203.163V3156.05Z" fill="white"/>
</mask>
<g mask="url(#mask86_683_6584)">
<path d="M570.017 297.983H581.287V312.304H570.017V297.983Z" fill="#EA7800"/>
</g>
</g>
<mask id="mask87_683_6584" style="mask-type:luminance" maskUnits="userSpaceOnUse" x="577" y="316" width="7" height="3">
<path d="M578.573 318.232H581.526C581.721 318.232 581.912 318.193 582.091 318.12C582.271 318.047 582.434 317.939 582.572 317.804C582.709 317.668 582.817 317.506 582.892 317.329C582.967 317.151 583.005 316.961 583.005 316.768H577.096C577.096 317.156 577.252 317.529 577.529 317.804C577.806 318.077 578.182 318.232 578.573 318.232Z" fill="white"/>
</mask>
<g mask="url(#mask87_683_6584)">
<mask id="mask88_683_6584" style="mask-type:luminance" maskUnits="userSpaceOnUse" x="203" y="-381" width="1500" height="3538">
<path d="M203.163 3156.05H1702.92V-380.636H203.163V3156.05Z" fill="white"/>
</mask>
<g mask="url(#mask88_683_6584)">
<path d="M573.191 312.904H586.909V322.1H573.191V312.904Z" fill="#FEFFFE"/>
</g>
</g>
</g>
<path d="M61.8457 268.361C58.3691 268.361 56.25 265.51 56.25 260.959V260.939C56.25 256.379 58.3691 253.547 61.8457 253.547C65.332 253.547 67.4414 256.379 67.4414 260.939V260.959C67.4414 265.51 65.332 268.361 61.8457 268.361ZM61.8457 266.027C63.5156 266.027 64.4629 264.143 64.4629 260.959V260.939C64.4629 257.746 63.5156 255.881 61.8457 255.881C60.1855 255.881 59.2383 257.746 59.2383 260.939V260.959C59.2383 264.143 60.1855 266.027 61.8457 266.027ZM75.332 253.537C78.5938 253.537 81.1523 255.861 81.1523 260.812V260.832C81.1523 265.549 78.9258 268.352 75.3125 268.352C72.5879 268.352 70.5664 266.74 70.127 264.533L70.1074 264.445H72.998L73.0273 264.533C73.3691 265.412 74.1699 266.008 75.3027 266.008C77.3438 266.008 78.2422 264.006 78.3496 261.438C78.3496 261.34 78.3496 261.232 78.3496 261.125H78.1543C77.6465 262.209 76.4746 263.186 74.5215 263.186C71.7773 263.186 69.9316 261.232 69.9316 258.566V258.547C69.9316 255.666 72.1582 253.537 75.332 253.537ZM75.332 261.008C76.7871 261.008 77.9102 259.973 77.9102 258.518V258.498C77.9102 257.023 76.7871 255.881 75.3516 255.881C73.9258 255.881 72.7832 257.004 72.7832 258.439V258.459C72.7832 259.943 73.8574 261.008 75.332 261.008ZM89.0527 253.137L84.9902 271.564H82.3633L86.4258 253.137H89.0527ZM90.4883 268V266.018L95.0293 261.535C97.0117 259.611 97.5488 258.898 97.5488 257.912V257.883C97.5488 256.682 96.7285 255.842 95.3809 255.842C94.0039 255.842 93.0566 256.76 93.0566 258.098V258.146H90.332L90.3223 258.107C90.3223 255.402 92.4316 253.547 95.5176 253.547C98.418 253.547 100.449 255.207 100.449 257.639V257.668C100.449 259.27 99.6191 260.598 97.0508 262.971L94.4434 265.402V265.627H100.654V268H90.4883ZM108.574 253.537C111.836 253.537 114.395 255.861 114.395 260.812V260.832C114.395 265.549 112.168 268.352 108.555 268.352C105.83 268.352 103.809 266.74 103.369 264.533L103.35 264.445H106.24L106.27 264.533C106.611 265.412 107.412 266.008 108.545 266.008C110.586 266.008 111.484 264.006 111.592 261.438C111.592 261.34 111.592 261.232 111.592 261.125H111.396C110.889 262.209 109.717 263.186 107.764 263.186C105.02 263.186 103.174 261.232 103.174 258.566V258.547C103.174 255.666 105.4 253.537 108.574 253.537ZM108.574 261.008C110.029 261.008 111.152 259.973 111.152 258.518V258.498C111.152 257.023 110.029 255.881 108.594 255.881C107.168 255.881 106.025 257.004 106.025 258.439V258.459C106.025 259.943 107.1 261.008 108.574 261.008Z" fill="white"/>
</g>
<defs>
<linearGradient id="paint0_linear_683_6584" x1="-162" y1="-67.5" x2="568.5" y2="307.5" gradientUnits="userSpaceOnUse">
<stop stop-color="#007CFF"/>
<stop offset="1" stop-color="#9900FF"/>
</linearGradient>
</defs>
</svg>
