<?xml version="1.0" encoding="UTF-8"?>
<svg id="Layer_1" data-name="Layer 1" xmlns="http://www.w3.org/2000/svg" viewBox="0 0 64 64">
  <path d="M14.9561,28.1562l13.3447,.1289h.0078l-.0029-.2501h.0049v.2501c.0391,0,.0791-.0024,.1191-.0073,.2598-.0312,.4932-.1626,.6553-.3691,.1621-.207,.2344-.4644,.2021-.7246l-.5723-4.7812c-.0566-.4858-.4688-.8594-.958-.8691-1.7451-.0356-3.4648,.147-5.1465,.5293-1.71,.3359-3.3525,.9312-4.8848,1.77-1.2725,.7168-2.4375,1.6074-3.4639,2.6489-.1797,.1831-.2793,.4248-.2822,.6812-.0039,.543,.4346,.9888,.9766,.9932Zm12.3643-5.1729l.4561,3.8418-11.6357-.1118c.7109-.6128,1.4814-1.1538,2.2959-1.6113,1.4023-.769,2.9102-1.3135,4.4893-1.6191,1.4395-.3354,2.9033-.4873,4.3945-.4995Z" style="fill: #f85446;"/>
  <path d="M31.3389,28.4121l12.9424,.4766,.0244,.001c.2998,0,.5879-.127,.79-.3486,.3975-.4351,.3672-1.1133-.0674-1.5112-.4307-.3955-.8867-.7744-1.3594-1.1289-1.6465-1.1758-3.4492-2.1104-5.3564-2.7764-2.416-.8789-4.9424-1.4038-7.5137-1.5605-.3154-.0059-.623,.1094-.8457,.3394-.2197,.2354-.3203,.5532-.2773,.8726l.6426,4.7031c.0664,.52,.4951,.9126,1.0205,.9331Zm11.8877-1.0181l-11.5117-.4272-.5361-3.9214c2.2666,.1797,4.498,.665,6.6387,1.4448,1.7783,.6191,3.458,1.4873,4.9873,2.5762,.1426,.1069,.2832,.2163,.4219,.3276Zm1.0791,1.3398l-.0043-.0951h.0043v.0951Z" style="fill: #f85446;"/>
  <path d="M62.751,32.793c-.1953-.6997-.5547-1.3545-1.0459-1.9004-.3105-.3179-.6631-.5942-1.0381-.8164-.4824-.3115-.9961-.5757-1.5244-.7847-.8867-.3599-1.8086-.6558-2.7412-.8809-2.2246-.5127-4.501-.9126-6.7705-1.1885-.1396-.0137-.2793-.0459-.415-.0957-.2861-.1055-.54-.2681-.7637-.4912-.5684-.5186-1.1875-.9858-1.833-1.3838l-.1279-.085c-.3018-.2007-.6006-.3994-.8916-.6191-1.2031-.8716-2.5088-1.6025-3.8711-2.1685l-.1396-.0645c-1.5859-.7207-3.2471-1.2993-4.9346-1.7197-2.1572-.5747-4.3809-.9604-6.6035-1.146-2.2422-.2368-4.5098-.2197-6.7471,.0483-1.3008,.1572-2.5967,.4307-3.8486,.8115-1.2637,.3701-2.4844,.8887-3.6309,1.543-.2549,.1484-.8564,.563-2.5586,1.7407l-.7344,.5083c-.4746,.3604-.9766,.6938-1.4746,.9819-.9443,.4531-1.9424,.8008-2.9785,1.0366-.4434,.124-.7295,.1943-1.0518,.2725-.3965,.0972-.833,.2036-1.6465,.4336-1.0205,.2349-1.9883,.7085-2.8145,1.3809-.2744,.2568-.502,.5566-.6738,.8862l-.0498,.0898c-1.0098,1.7251-1.0352,3.5576-1.0742,6.3315l-.0107,.9707c-.0098,.8457-.0098,1.0801,.002,1.418,.0029,.1934,.0156,.3857,.04,.5928,.1172,.6553,.4316,1.2471,.9131,1.7148,.4883,.4551,1.1221,.7422,1.7783,.8076,.1279,.0156,.2559,.0234,.3848,.0234v-.2502h.0001l.0009,.0008v.2504c.1133,0,.2275-.0068,.3076-.0195l2.5977-.0107-.1885-.873c-.583-2.751,.873-5.5449,3.4609-6.6426,1.4531-.6074,3.1211-.6074,4.5742,0,2.1797,.9229,3.5898,3.0479,3.5928,5.4131,0,.4004-.041,.7998-.1211,1.1895l-.1787,.8721h.8945c3.8887-.0107,7.7754-.0186,11.6641-.0234,4.7139-.0049,9.4268-.0068,14.1406-.0068h.8877l-.1738-.8711c-.0771-.3818-.1152-.7725-.1143-1.1602,0-.3877,.0391-.7783,.1172-1.1602,.3115-1.5391,1.2041-2.8643,2.5127-3.7324,1.3086-.8662,2.877-1.1753,4.416-.8613,3.1768,.6436,5.2373,3.752,4.5938,6.9287l-.1768,.8721,4.4766,.001c.2822,.0576,.5703,.0254,.8467-.0996,.3633-.1914,.6299-.5156,.7412-.8848,.1797-.4209,.3096-.8594,.3887-1.3203,.0879-.7812,.125-1.5801,.1113-2.3652,.0078-1.1855-.1592-2.3623-.4961-3.4941ZM2.2158,37.9912l-.0049-.1436c-.0137-.3203-.0127-.5439,0-1.3447l.0107-.9756c.0352-2.5381,.0586-4.2153,.874-5.6113l.0645-.1104c.0996-.1953,.2295-.3711,.3691-.5063,.6475-.5132,1.416-.8813,2.2324-1.0674,.7715-.2173,1.1934-.3208,1.6211-.4253l.1309-.0327c.2754-.0684,.5566-.1382,.9463-.2471,1.1211-.2617,2.2148-.6494,3.2666-1.1611,.5723-.3242,1.127-.6904,1.6406-1.0811l.916-.6353c1.2412-.8569,2.0605-1.4229,2.2695-1.5439,1.0488-.5981,2.168-1.0718,3.3301-1.4087,1.1738-.3555,2.3857-.6089,3.6045-.7544,1.0654-.1382,2.1523-.208,3.2305-.208h.0117c1.2695,0,2.334,.0898,3.1904,.1621,2.1416,.1792,4.2793,.5498,6.3584,1.103,1.6064,.3999,3.1885,.9502,4.6992,1.6353l.1475,.0679c1.2734,.5283,2.4854,1.2051,3.5996,2.0093,.3564,.2651,.7246,.5112,1.0996,.7563,.582,.3579,1.1338,.7715,1.6309,1.2222,.3643,.3584,.792,.6289,1.2705,.8037,.2637,.0967,.54,.1572,.8096,.1782,2.1885,.271,4.3896,.6592,6.5381,1.1538,.8555,.207,1.7051,.48,2.5254,.8125,.4453,.1768,.876,.3994,1.29,.668,.2812,.1631,.5391,.3628,.7578,.582,.3369,.3843,.5859,.8477,.7197,1.3457,.293,.9941,.4365,2.0244,.4268,3.0703,.0127,.7295-.0215,1.46-.0967,2.1523-.0645,.3311-.1631,.6543-.2969,.9678-.0166,.041-.0293,.0723-.04,.0957l-2.958-.0176c.0156-.1973,.0234-.3965,.0234-.5938,.002-2.9551-1.7559-5.6064-4.4785-6.7549-1.8125-.7598-3.8936-.7603-5.708,.0005-2.7178,1.1519-4.4746,3.8022-4.4766,6.7544,0,.1914,.0078,.3848,.0225,.5762-4.4375-.001-8.873,.001-13.3096,.0068-3.6104,.0059-7.2188,.0127-10.8281,.0215,.1797-2.1543-.585-4.25-2.123-5.7881-2.1201-2.125-5.2783-2.7407-8.0391-1.5708-2.7188,1.1509-4.4756,3.8022-4.4766,6.7554,0,.2168,.0098,.4375,.0293,.6572l-.9482,.0068c-.1416,.0186-.2842,.0176-.4316-.001-.3535-.0322-.6914-.1826-.9453-.416-.25-.25-.417-.5654-.4805-.9072-.0088-.0488-.0098-.125-.0156-.2588Z" style="fill: #f85446;"/>
  <path d="M54.8887,34.5156l-.0967-.082c-.083-.0732-.1689-.1406-.2559-.2041-.125-.0928-.2549-.1797-.3857-.2607l-.0977-.0586c-.124-.0732-.251-.1426-.3809-.208l-.1377-.0664c-.1621-.0703-.3271-.1377-.4971-.1992l-.1787-.0596c-.8145-.2568-1.6582-.3359-2.5059-.2285-.1934,.0234-.3848,.0566-.5752,.1006-.1396,.0322-.2773,.0693-.417,.1123-.0908,.0283-.1807,.0586-.2666,.0908-.1348,.0498-.2666,.1035-.3916,.1592-.0879,.0391-.1768,.082-.2598,.125-.0742,.0381-.1494,.0801-.2432,.1318-.082,.0459-.1621,.0957-.2402,.1465-.0801,.0518-.1582,.1025-.2344,.1572-.1123,.082-.2236,.166-.3379,.2617l-.0947,.083c-.208,.1807-.4023,.375-.5811,.5811l-.1162,.1367c-.0732,.0908-.1396,.1777-.2129,.2783-.0723,.0996-.1406,.2021-.2119,.3135l-.0859,.1416c-.0645,.1104-.125,.2217-.1865,.3447l-.0752,.1572c-.0771,.165-.1465,.334-.207,.5088l-.0459,.1328c-.3447,1.0664-.377,2.2041-.0898,3.29,.0332,.124,.0713,.248,.1113,.3682,.0742,.2217,.1631,.4414,.2637,.6514,.0801,.1709,.1699,.3379,.2676,.5,.0967,.1602,.2021,.3154,.3164,.4678l.082,.1074c.0859,.1104,.1797,.2217,.2705,.3203,.0918,.0996,.1895,.2031,.29,.2979,.1006,.0967,.2051,.1885,.3145,.2793,.0713,.0596,.1445,.1172,.2178,.1719,.2588,.1934,.5381,.3672,.8281,.5166,.084,.0439,.1689,.084,.2559,.124,.1348,.0615,.2656,.1113,.4004,.1602,.0879,.0332,.1777,.0635,.2705,.0928,.1367,.042,.2734,.0791,.415,.1123,.1895,.043,.3799,.0752,.5713,.0986,.2412,.0312,.4902,.0469,.7393,.0469v-.2499h.0004l.0025-.0016v.2496h.0098c.5947,0,1.1875-.0928,1.7637-.2764l.1787-.0605c.167-.0605,.332-.1289,.5-.207l.127-.0615c.332-.1641,.6494-.3613,.9434-.5879l.1709-.1338c.1084-.0908,.2139-.1807,.3115-.2773,.2021-.1934,.3916-.4014,.5635-.6201l.083-.1084c1.8115-2.4287,1.4355-5.8828-.8594-7.8662Zm-5.1045,8.541c-.0625-.0205-.125-.041-.1875-.0645-.1006-.0371-.2002-.0781-.3047-.125-.0605-.0234-.1182-.0527-.1807-.085-.2168-.1113-.4268-.2412-.6338-.3955-.043-.0293-.084-.0645-.1543-.1221-.0801-.0654-.1592-.1357-.2363-.209-.0752-.0723-.1455-.1455-.2168-.2236-.0713-.0771-.1387-.1572-.2012-.2373l-.0645-.083c-.083-.1133-.1631-.2295-.2354-.3496-.0732-.1191-.1406-.2422-.2021-.373-.0771-.1562-.1436-.3193-.1992-.4863-.0312-.0938-.0596-.1914-.084-.2793-.0957-.3633-.1445-.7393-.1445-1.1191-.001-.457,.0703-.9102,.2109-1.3438l.0361-.1064c.0459-.1279,.0967-.2529,.1514-.3721l.1211-.2373c.0254-.0498,.0508-.0977,.0752-.1396l.0693-.1133c.0488-.0781,.1006-.1543,.1553-.2295,.0527-.0713,.1055-.1426,.1572-.2061l.0938-.1104c.1357-.1543,.2812-.3008,.4316-.4307l.084-.0713c.0801-.0654,.1582-.1279,.2676-.2041,.0498-.0352,.0967-.0684,.1504-.1016l.5664-.3027c.0938-.0439,.1924-.083,.2881-.1182,.0684-.0244,.1367-.0479,.2021-.0684,.1025-.0312,.2061-.0605,.3135-.085,.1396-.0322,.2832-.0566,.4277-.0762,.1836-.0234,.3701-.0352,.5557-.0352v-.0049c.4531,0,.8994,.0693,1.3242,.2061l.1377,.0459c.1279,.0459,.252,.0967,.3721,.1523l.0996,.0479c.0977,.0488,.1953,.1016,.3564,.1982,.0996,.0625,.1992,.126,.292,.1973,.0625,.0469,.125,.0947,.1836,.1445l.084,.0693c1.251,1.085,1.7812,2.8203,1.3535,4.4209-.1436,.5352-.3838,1.0312-.7139,1.4717l-.0684,.0879c-.127,.1631-.2695,.3193-.4229,.4658-.0732,.0713-.1514,.1406-.2266,.2021l-.1357,.1064c-.2188,.168-.4551,.3154-.7002,.4365l-.1025,.0498c-.123,.0576-.248,.1084-.3721,.1533l-.1357,.0459c-.6055,.1904-1.2568,.249-1.8857,.1709-.1436-.0176-.2852-.043-.4277-.0771-.1055-.0234-.209-.0518-.3242-.0869Z" style="fill: #f85446;"/>
  <path d="M16.4512,34.8057c-.083-.084-.1699-.165-.251-.2363-.0645-.0615-.1338-.1201-.2061-.1777-.0928-.0752-.1855-.1484-.2764-.2109-.0811-.0615-.1631-.1162-.2441-.165l-.0801-.0498c-.0518-.0322-.1055-.0664-.1777-.1064-.0732-.041-.1484-.082-.2246-.1211-.085-.043-.1699-.084-.249-.1191-.1328-.0615-.2666-.1133-.3926-.1592-.0889-.0361-.1826-.0684-.2979-.1045l-.1221-.0352c-.1357-.0371-.2754-.0713-.415-.0996-.0967-.0195-.1895-.0381-.2881-.0508-.0986-.0146-.1973-.0273-.3008-.0381l-.1416-.0117c-.3916-.0312-.79-.0186-1.1816,.0293-.1934,.0234-.3848,.0566-.5752,.1006-.1406,.0322-.2783,.0693-.4141,.1123-.0918,.0283-.1826,.0586-.2695,.0908-.1348,.0488-.2656,.1035-.3916,.1592-.0879,.0391-.1748,.0811-.2598,.125l-.2393,.1309c-.0752,.04-.1445,.084-.2422,.1465-.0801,.0518-.1582,.1035-.2363,.1592-.1133,.0811-.2256,.166-.3379,.2607l-.0947,.083c-.208,.1807-.4023,.375-.5732,.5713l-.124,.1328c-.0762,.0918-.1455,.1836-.2168,.2822-.0723,.0986-.1416,.2041-.209,.3096l-.0869,.1436c-.0654,.1094-.126,.2217-.1885,.3467l-.0752,.1572c-.0771,.165-.1455,.333-.207,.5078l-.0439,.1338c-.3555,1.0908-.3799,2.2529-.0713,3.3594,.0283,.1055,.0576,.2002,.0908,.3008,.0752,.2227,.166,.4434,.2686,.6553,.0801,.1719,.1709,.3379,.2676,.499,.0967,.1602,.2002,.3145,.3125,.4658l.0859,.1133c.0859,.1104,.1797,.2217,.2705,.3203,.0918,.0996,.1904,.2021,.29,.2979,.1006,.0967,.2051,.1885,.3145,.2793,.0713,.0596,.1445,.1162,.2178,.1719,.2588,.1934,.5381,.3672,.8281,.5166,.084,.0439,.1689,.084,.2529,.1221,.1299,.0625,.2627,.1133,.3984,.1621,.0889,.0332,.1797,.0635,.2686,.0908,.1367,.043,.2764,.0811,.417,.1143,.1895,.043,.3809,.0752,.5713,.0986,.2412,.0312,.4902,.0469,.7402,.0469v-.001c.1455,0,.2969-.0059,.4473-.0166l.1416-.0127c.0996-.0107,.2021-.0234,.2998-.0381,.0957-.0156,.1885-.0312,.2754-.0488,.1445-.0264,.2871-.0605,.4307-.1016l.1348-.04c.0898-.0283,.1807-.0586,.2725-.0918,.1328-.0498,.2646-.1025,.3926-.1602,.0869-.04,.1709-.0801,.2529-.1221,.2871-.1475,.5664-.3223,.834-.5215l.166-.1299c.0879-.0703,.1748-.1455,.2656-.2275l.1963-.1865c1.082-1.0811,1.7021-2.5781,1.7012-4.1055,.0039-1.5322-.6162-3.0293-1.7002-4.1074Zm-3.7715-.2354l.1113,.0098c.0732,.0068,.1484,.0176,.2227,.0283,.0703,.0107,.1387,.0225,.2139,.0391,.1045,.0205,.207,.0449,.3125,.0762l.0996,.0283c.0625,.0205,.126,.042,.2012,.0684,.0996,.0371,.1982,.0762,.2998,.123,.0635,.0283,.1211,.0566,.1875,.0908,.0625,.0312,.124,.0635,.1807,.0967,.0605,.0361,.125,.0752,.1855,.1143,.0586,.0361,.1143,.0742,.1719,.1162,.0723,.0518,.1426,.1045,.2188,.167,.0439,.0322,.0859,.0703,.1475,.125,.0645,.0566,.1299,.1172,.1924,.1797,.8223,.8223,1.2754,1.915,1.2744,3.0781,0,1.1631-.4531,2.2559-1.2705,3.0732l-.1572,.1494c-.0625,.0576-.127,.1123-.1885,.1621l-.1348,.1045c-.1934,.1455-.4033,.2764-.6201,.3867-.0625,.0312-.127,.0625-.1914,.0918-.0967,.043-.1953,.084-.2959,.1201-.0654,.0244-.1318,.0469-.2002,.0674l-.1006,.0303c-.1055,.0293-.2109,.0557-.3438,.083l-.1865,.0332c-.0713,.0098-.1426,.0205-.2207,.0273l-.1074,.0107c-.2988,.0215-.5996,.0137-.8936-.0234-.1436-.0176-.2852-.043-.4268-.0771-.1045-.0234-.209-.0508-.3115-.083-.0674-.0215-.1348-.043-.2012-.0684-.1006-.0371-.2002-.0781-.3047-.125-.0605-.0234-.1182-.0527-.1807-.085-.2168-.1113-.4268-.2412-.6338-.3955-.043-.0293-.084-.0645-.1543-.1221-.0801-.0654-.1602-.1377-.2363-.209-.0752-.0723-.1465-.1455-.2168-.2236-.0713-.0771-.1387-.1572-.2148-.2539l-.0684-.0713c-.083-.1113-.1621-.2266-.2344-.3467-.0723-.1191-.1396-.2422-.2012-.3711-.0771-.1592-.1436-.3242-.2002-.4883-.0244-.0742-.0469-.1475-.0674-.2227-.2324-.832-.2139-1.7061,.0518-2.5234l.0342-.1035c.0459-.1289,.0957-.2549,.1533-.377l.0898-.1816c.0352-.0674,.0693-.1328,.1045-.1914l.0684-.1143c.0508-.0771,.1045-.1582,.1562-.2295s.1045-.1416,.1582-.207l.0967-.1094c.1338-.1543,.2803-.3008,.4316-.4316l.083-.0703c.0801-.0654,.1572-.1279,.2539-.1943,.0527-.0381,.1055-.0762,.2119-.1396l.5215-.2754c.0938-.0439,.1924-.083,.3076-.125,.0625-.0215,.124-.0439,.1826-.0615,.1016-.0312,.2061-.0605,.3135-.085,.1396-.0322,.2842-.0566,.4277-.0762,.1846-.0234,.3711-.0352,.5566-.0352v-.2499l.0073,.0037h.0005v.2501c.1133,0,.2246,.0049,.333,.0127Z" style="fill: #f85446;"/>
</svg>