<?xml version="1.0" encoding="UTF-8"?>
<svg id="Layer_1" data-name="Layer 1" xmlns="http://www.w3.org/2000/svg" viewBox="0 0 64 64">
  <path d="M15.4371,48.3224h8.9877c.465,.0015,.8433-.3741,.8448-.8392,.0015-.465-.3741-.8433-.8392-.8448H15.4427c-.465-.0015-.8433,.3741-.8448,.8392-.0016,.465,.3741,.8433,.8391,.8448Z" style="fill: #f85446;"/>
  <path d="M15.4427,44.9395h8.982c.465-.0016,.8408-.3798,.8392-.8448-.0015-.4628-.3763-.8376-.8392-.8392H15.4427c-.465,.0016-.8407,.3798-.8392,.8448,.0016,.4628,.3763,.8376,.8392,.8392Z" style="fill: #f85446;"/>
  <path d="M15.4427,41.5554h8.982c.465-.0015,.8408-.3798,.8392-.8448-.0015-.4628-.3763-.8376-.8392-.8392H15.4427c-.465,.0015-.8407,.3798-.8392,.8448,.0016,.4628,.3763,.8376,.8392,.8392Z" style="fill: #f85446;"/>
  <path d="M24.7418,22.0764c-.0397-.0192-.0808-.0353-.123-.048-.3527-.1334-.7127-.255-1.08-.365v-3.053c.0011-.4661-.3759-.8449-.842-.846h-.281V8.0104c0-1.3954-1.1312-2.5265-2.5265-2.5265s-2.5266,1.1311-2.5266,2.5265v9.754h-.28c-.4661,.0011-.8431,.3799-.842,.846v3.053c-.3667,.106-.7267,.2277-1.08,.365-.0422,.0127-.0834,.0287-.123,.048-5.038,2.0158-8.3413,6.8957-8.341,12.322v20.974c-.0307,1.7051,1.3267,3.1124,3.0319,3.1431,1.7052,.0307,3.1124-1.3267,3.1431-3.0319,.0007-.037,.0007-.0741,0-.1111v-5.641c0-1.707-1.38-3.0928-3.087-3.1-.4871,.0002-.9671,.1168-1.4,.34v-12.574c-.0007-4.2946,2.3764-8.2365,6.175-10.24v2.346c0,1.707,1.38,3.0928,3.087,3.1h4.491c1.7074-.0066,3.088-1.3926,3.088-3.1v-2.346c3.7984,2.0037,6.1754,5.9455,6.175,10.24v12.575c-.4329-.2232-.9129-.3398-1.4-.34-1.707,.0072-3.087,1.393-3.087,3.1v3.665H15.3987c-.4672,.0019-.8444,.3822-.8425,.8494,.0019,.4645,.378,.8407,.8425,.8426h11.509v.282c-.0307,1.7052,1.3267,3.1124,3.0319,3.1431,1.7052,.0307,3.1124-1.3267,3.1431-3.0319,.0007-.037,.0007-.0742,0-.1112v-20.974c-.0001-5.426-3.3033-10.3054-8.341-12.321Zm-14.9565,26.2515c.7751,0,1.4035,.6284,1.4035,1.4035v5.638c0,.7751-.6284,1.4035-1.4035,1.4035s-1.4035-.6284-1.4035-1.4035v-5.638c0-.7751,.6284-1.4035,1.4035-1.4035ZM19.0508,8.0104c0-.465,.377-.842,.842-.842s.842,.377,.842,.842v9.754h-1.684V8.0104Zm-1.123,11.446h3.923v1.839c-1.3027-.1962-2.6274-.1962-3.93,0l.007-1.839Zm5.614,7.048c.0011,.7753-.6247,1.4056-1.4,1.41h-4.497c-.7753-.0044-1.4011-.6347-1.4-1.41v-3.073c2.3684-.7951,4.9316-.7951,7.3,0l-.003,3.073Zm7.859,28.868c0,.7751-.6284,1.4035-1.4035,1.4035s-1.4035-.6284-1.4035-1.4035v-5.641c0-.7751,.6284-1.4035,1.4035-1.4035s1.4035,.6284,1.4035,1.4035v5.641Z" style="fill: #f85446;"/>
  <path d="M56.4658,53.3984h-3.3871c-.3782-1.8605-1.951-3.2403-3.845-3.373V21.9934c.0018-.3587-.2231-.6794-.561-.8v-5.462c.0027-5.6427-4.5695-10.2192-10.2122-10.2218-5.6426-.0026-10.2191,4.5695-10.2217,10.2122v5.7166c-.0007,.465,.3757,.8426,.8407,.8433,.465,.0007,.8426-.3757,.8433-.8408v-5.7095c-.0038-4.7126,3.8134-8.5361,8.5261-8.5399,4.7126-.0038,8.5361,3.8134,8.54,8.5261v5.4268h-1.684v-5.413c0-3.7831-3.0668-6.85-6.85-6.85s-6.85,3.0669-6.85,6.85v8.9c-.0007,.465,.3757,.8426,.8408,.8433,.465,.0007,.8425-.3757,.8433-.8408V15.7314c-.0397-2.8523,2.2404-5.1967,5.0927-5.2363,2.8522-.0396,5.1967,2.2405,5.2363,5.0928,.0007,.0479,.0007,.0957,0,.1436v5.462c-.3378,.1205-.5627,.4413-.561,.8v28.033c-1.8941,.1324-3.4671,1.5123-3.845,3.373h-3.386c-.4661,.0011-.8431,.3798-.842,.8459h0v3.386c-.0011,.4661,.3759,.8449,.842,.846h20.636c.4661-.0011,.8431-.3799,.842-.846v-3.383c.0033-.4661-.3718-.8467-.838-.85Zm-11.7231-30.56h2.807v27.177h-2.807V22.8384Zm-1.403,28.869l.003-.001h5.614c1.0716,.0028,2.0253,.6801,2.381,1.691h-10.379c.356-1.0105,1.3096-1.6874,2.381-1.69Zm12.286,5.074h-18.955v-1.691h18.955v1.691Z" style="fill: #f85446;"/>
</svg>