<?xml version="1.0" encoding="UTF-8"?>
<svg id="Layer_1" data-name="Layer 1" xmlns="http://www.w3.org/2000/svg" viewBox="0 0 64 64">
  <path d="M6.2675,21.074h6.97c.4805,.0005,.8705-.3885,.871-.869v-2.615h14.808c.481,0,.871,.39,.871,.871v5.226c-.0005,.4805,.3885,.8705,.869,.871h6.97c.4805,.0005,.8704-.3885,.871-.869v-5.228c-.0066-5.2888-4.2923-9.5744-9.581-9.5811H14.1085v-2.614c.0005-.4805-.3885-.8705-.869-.871H6.2695c-.4805-.0005-.8704,.3885-.871,.869v13.939c-.0005,.4805,.3885,.8705,.869,.871Zm30.488,1.742h-5.226v-1.742h5.226v1.742ZM17.5935,10.621h11.323c4.3281,.0044,7.8356,3.5119,7.84,7.84h-.001v.871h-5.226v-.871c-.0016-1.4424-1.1705-2.6114-2.613-2.613h-11.323v-5.227Zm-3.485,0h1.743v5.226h-1.743v-5.226Zm-6.968-3.484h5.226v12.195H7.1405V7.137Z" style="fill: #0e88f2;"/>
  <path d="M41.9959,51.637h-.0134v-.007h-10.6c.3433-1.049,.0615-2.2018-.727-2.974l-9.833-9.834c-.1631-.1637-.3849-.2555-.616-.255h-6.1v-.871c.0005-.4805-.3885-.8705-.869-.871H6.2695c-.4805-.0005-.8704,.3885-.871,.869v13.939c-.0005,.4805,.3885,.8704,.869,.871h6.97c.4805,.0005,.8705-.3885,.871-.869v-.873h.56l9.342,7.643c.155,.1285,.3497,.1992,.551,.2h17.421c1.9242,.0037,3.487-1.5531,3.4907-3.4772,.0037-1.9242-1.5531-3.487-3.4773-3.4907Zm-34.8554-.8781v-12.195h5.226l.001,12.195H7.1405Zm34.842,6.096v.004H24.8725l-9.342-7.643c-.1547-.1283-.3491-.199-.55-.2h-.872v-8.71h5.737l9.581,9.581c.4809,.4811,.4809,1.2609,0,1.742l-.51,.51c-.488,.464-1.254,.464-1.742,0l-4.61-4.61-1.232,1.232,4.61,4.61c1.1613,1.1608,3.0437,1.1608,4.205,0h11.835c.9621,0,1.742,.7799,1.742,1.742s-.7799,1.742-1.742,1.742Z" style="fill: #0e88f2;"/>
  <rect x="29.4135" y="25.853" width="1.742" height="16.55" style="fill: #0e88f2;"/>
  <rect x="32.8445" y="27.508" width="1.742" height="20.034" style="fill: #0e88f2;"/>
  <rect x="36.2755" y="25.853" width="1.742" height="16.55" style="fill: #0e88f2;"/>
  <path d="M51.6335,30.225c-1.9242,0-3.484,1.5598-3.484,3.484s1.5599,3.484,3.484,3.484,3.484-1.5599,3.484-3.484c-.0022-1.9233-1.5608-3.4818-3.484-3.484Zm0,5.226c-.9621,0-1.742-.78-1.742-1.742s.7799-1.742,1.742-1.742,1.742,.7799,1.742,1.742c-.0011,.9616-.7804,1.7409-1.742,1.742Z" style="fill: #0e88f2;"/>
  <path d="M45.6895,26.084c2.4052,0,4.355-1.9498,4.355-4.355s-1.9498-4.355-4.355-4.355-4.355,1.9498-4.355,4.355c.0027,2.4041,1.9509,4.3523,4.355,4.355Zm0-6.968c1.4431,0,2.613,1.1699,2.613,2.613,0,1.4431-1.1699,2.613-2.613,2.613s-2.613-1.1699-2.613-2.613c.0016-1.4424,1.1705-2.6113,2.613-2.613Z" style="fill: #0e88f2;"/>
  <path d="M54.2465,5.395c-2.4052,0-4.355,1.9498-4.355,4.355s1.9498,4.355,4.355,4.355,4.355-1.9498,4.355-4.355c-.0027-2.4041-1.951-4.3523-4.355-4.355Zm0,6.968c-1.4431,0-2.613-1.1699-2.613-2.613s1.1699-2.613,2.613-2.613,2.613,1.1699,2.613,2.613c-.0016,1.4424-1.1706,2.6113-2.613,2.613Z" style="fill: #0e88f2;"/>
  <path d="M52.074,41.2885c-.8899-.6407-1.9589-.9852-3.0555-.9844l.001,.002c-.4015,.0002-.8016,.0475-1.192,.141-.8791-2.2335-3.4023-3.3314-5.6357-2.4523-1.6646,.6552-2.7577,2.2634-2.7543,4.0523h1.742c-.0627-1.4346,1.0494-2.6484,2.4839-2.7111,1.3837-.0605,2.5719,.9742,2.7021,2.3531,.0371,.2725,.201,.5114,.442,.644,.2411,.1312,.5296,.1423,.78,.03,.4489-.2066,.9368-.3144,1.431-.316,1.9225-.0013,3.4821,1.5562,3.4833,3.4787,.0006,.9146-.3587,1.7925-1.0002,2.4443-.3323,.3384-.3323,.8806,0,1.219,1.3487,1.3701,1.3314,3.574-.0388,4.9227-.6517,.6416-1.5297,1.0009-2.4443,1.0003v1.742c2.8846,.0019,5.2245-2.335,5.2265-5.2195,.0007-1.0966-.3437-2.1656-.9845-3.0555,1.6856-2.3409,1.1544-5.6049-1.1865-7.2905Z" style="fill: #0e88f2;"/>
  <rect x="42.1386" y="45.6901" width="5.5119" height="1.7418" transform="translate(-13.4941 74.3857) rotate(-71.5238)" style="fill: #0e88f2;"/>
  <rect x="44.8085" y="49.888" width="5.226" height="1.742" style="fill: #0e88f2;"/>
</svg>