<?xml version="1.0" encoding="UTF-8"?>
<svg id="Layer_1" data-name="Layer 1" xmlns="http://www.w3.org/2000/svg" viewBox="0 0 64 64">
  <path fill="#0E88F2" d="M54.562,1.5H9.438c-1.6201,0-2.938,1.3208-2.938,2.9448V36.9204c0,14.1045,11.4395,25.5796,25.5,25.5796s25.5-11.4751,25.5-25.5796V4.4448c0-1.624-1.3179-2.9448-2.938-2.9448Zm-22.562,59.0479c-12.9844,0-23.5479-10.5991-23.5479-23.6274V4.4448c0-.5474,.4424-.9927,.9858-.9927H54.562c.5435,0,.9858,.4453,.9858,.9927V36.9204c0,13.0283-10.5635,23.6274-23.5479,23.6274Z"/>
  <path fill="#0E88F2" d="M32,42.2837c-4.9121,0-9.6821-1.1587-13.4312-3.2622l-2.0391-1.144,.6206,2.2549c1.8379,6.6816,7.9443,11.3481,14.8496,11.3481s13.0117-4.6665,14.8496-11.3481l.6206-2.2549-2.0391,1.144c-3.749,2.1035-8.519,3.2622-13.4312,3.2622Zm0,7.2446c-5.1958,0-9.9277-3.0459-12.1421-7.6963,3.6069,1.5557,7.8657,2.4038,12.1421,2.4038s8.5352-.8481,12.1421-2.4038c-2.2144,4.6504-6.9463,7.6963-12.1421,7.6963Z"/>
  <path fill="#0E88F2" d="M26.1592,23.3623l2.0396,1.1445-.6206-2.2549c-.9707-3.5269-4.1943-5.9902-7.8398-5.9902s-6.8691,2.4634-7.8398,5.9902l-.6206,2.2549,2.0391-1.1445c1.7871-1.0024,4.0674-1.5547,6.4214-1.5547s4.6343,.5522,6.4209,1.5547Zm-11.271-2.7822c1.1592-1.4688,2.9463-2.3657,4.8501-2.3657s3.6904,.897,4.8496,2.3657c-3.0332-.9517-6.6665-.9517-9.6997,0Z"/>
  <path fill="#0E88F2" d="M44.2622,16.2617c-3.6455,0-6.8691,2.4634-7.8398,5.9902l-.6206,2.2549,2.0391-1.1445c1.7871-1.0024,4.0674-1.5547,6.4214-1.5547s4.6343,.5522,6.4209,1.5547l2.0391,1.1445-.6206-2.2549c-.9702-3.5269-4.1938-5.9902-7.8394-5.9902Zm-4.8501,4.3184c1.1592-1.4688,2.9463-2.3657,4.8496-2.3657s3.6909,.897,4.8501,2.3657c-1.5166-.4761-3.1675-.7246-4.8501-.7246s-3.333,.2485-4.8496,.7246Z"/>
</svg>