<svg version="1.1" xmlns="http://www.w3.org/2000/svg" width="24" height="24" viewBox="0 0 24 24"><path fill="#fff" d="M6.703 12.849l-0.697-0.697 0.697-0.721 2.114-2.114 0.697 0.721-2.114 2.114 2.114 2.114-0.697 0.721-2.114-2.138zM4.997 9.15h-0.985v6.006h0.985v-6.006zM15.183 14.987l2.835-2.835-0.697-0.721-2.138-2.114-0.697 0.721 2.114 2.114-2.114 2.114 0.697 0.721zM20.012 9.15h-0.985v6.006h0.985v-6.006zM22.030 6.147v12.012h-20.036v-12.012h20.036zM21.021 7.156h-18.018v9.994h18.018v-9.994z"></path></svg>