<?xml version="1.0" encoding="UTF-8"?>
<svg id="Layer_1" data-name="Layer 1" xmlns="http://www.w3.org/2000/svg" viewBox="0 0 64 64">
  <path fill="#F85446" d="M54.5625,1.5H9.4375c-1.6196,0-2.9375,1.3208-2.9375,2.9448V36.9204c0,14.1045,11.4395,25.5796,25.5,25.5796s25.5-11.4751,25.5-25.5796V4.4448c0-1.624-1.3179-2.9448-2.9375-2.9448Zm-22.5625,59.0479c-12.9844,0-23.5479-10.5991-23.5479-23.6274V4.4448c0-.5474,.4419-.9927,.9854-.9927H54.5625c.5435,0,.9854,.4453,.9854,.9927V36.9204c0,13.0283-10.5635,23.6274-23.5479,23.6274Z"/>
  <path fill="#F85446" d="M32,35.4521c-6.9048,0-13.0117,4.667-14.8506,11.3491l-.6196,2.2534,2.0391-1.1436c3.7495-2.1035,8.5195-3.2617,13.4312-3.2617s9.6816,1.1582,13.4312,3.2617l2.0391,1.1436-.6196-2.2539c-1.8389-6.6816-7.9458-11.3486-14.8506-11.3486Zm0,7.2451c-4.2764,0-8.5356,.8481-12.1426,2.4043,2.2139-4.6514,6.9463-7.6968,12.1426-7.6968s9.9287,3.0454,12.1426,7.6968c-3.6069-1.5562-7.8662-2.4043-12.1426-2.4043Z"/>
  <path fill="#F85446" d="M44.2617,17.9414c-2.354,0-4.6338-.5522-6.4199-1.5547l-2.0391-1.1436,.6196,2.2539c.9697,3.5269,4.1938,5.9902,7.8394,5.9902s6.8701-2.4634,7.8398-5.9907l.6196-2.2534-2.0391,1.1436c-1.7866,1.0024-4.0669,1.5547-6.4204,1.5547Zm0,3.5933c-1.9067,0-3.6963-.8999-4.8555-2.3721,3.0479,.9399,6.6631,.9399,9.7109,0-1.1592,1.4727-2.9487,2.3721-4.8555,2.3721Z"/>
  <path fill="#F85446" d="M27.5776,17.4966l.6196-2.2534-2.0391,1.1436c-1.7866,1.0024-4.0669,1.5547-6.4204,1.5547s-4.6338-.5522-6.4199-1.5547l-2.0391-1.1436,.6196,2.2539c.9697,3.5268,4.1937,5.9901,7.8396,5.9902,3.6459-.0006,6.8699-2.4634,7.8396-5.9907Zm-2.9844,1.666c-1.1587,1.4722-2.9487,2.3721-4.855,2.3721s-3.6968-.8999-4.856-2.3721c3.0488,.9399,6.6641,.9399,9.7109,0Z"/>
</svg>