<?xml version="1.0" encoding="UTF-8"?>
<svg id="Layer_1" data-name="Layer 1" xmlns="http://www.w3.org/2000/svg" viewBox="0 0 64 64">
  <path d="M53.6355,28.1818h-13.9996L26.909,8.137h-5.0908l6.3635,20.0449H14.1821l-3.8181-5.0908h-3.8181l2.5453,8.9088-2.5453,8.9088h3.8181l3.8181-5.0908h13.9996l-6.3635,20.0449h5.0908l12.7269-20.0449h13.9996c1.909,0,3.8181-1.909,3.8181-3.8181s-1.9091-3.8181-3.8181-3.8181Zm1.4935,5.3116c-.4537,.4536-1.012,.7245-1.4935,.7245h-14.879l-12.7269,20.0449h-2.0248l6.3635-20.0449H13.3821l-3.8181,5.0908h-.8969l2.0882-7.3088-2.0882-7.3088h.8969l3.8181,5.0908H30.3683l-6.3635-20.0449h2.0248l12.7269,20.0449h14.879c.4815,0,1.0399,.2708,1.4935,.7245s.7245,1.012,.7245,1.4935-.2709,1.0399-.7245,1.4936Z" style="fill: #ffac3e;"/>
</svg>