<?xml version="1.0" encoding="UTF-8"?>
<svg id="Layer_1" data-name="Layer 1" xmlns="http://www.w3.org/2000/svg" viewBox="0 0 64 64">
  <path fill="#FFAC3E" d="M61.1323,5.1138l-8.792-.1221v-.4019l-.8306-.2969C44.4526,1.7759,37.0605,.5,29.5376,.5S14.6211,1.7759,7.564,4.2925l-.8296,.2983V41.1528l7.1802,4.3677-2.27,2.27c-2.4233-.3125-4.875,.5137-6.6006,2.2378-1.4893,1.4897-2.3096,3.4722-2.3096,5.582s.8203,4.0928,2.3096,5.5815c1.4888,1.4888,3.4692,2.3081,5.5781,2.3081h.0044c2.1118,0,4.0942-.8198,5.5825-2.3081,1.7256-1.7246,2.5527-4.1743,2.2393-6.5991l3.9258-3.9253,3.2578,1.9819c.146,1.125,.6587,2.1729,1.4595,2.9736,1.4741,1.4731,3.6738,1.9136,5.6055,1.1201,.6309-.2588,1.1968-.6357,1.6831-1.1201,.6831-.6836,1.1577-1.5459,1.373-2.4941,.144-.6304,.1675-1.2896,.0708-1.9272l16.5166-10.0488V23.7715l8.9282-8.9272-.1362-9.7305Zm-1.9585,8.8804l-28.5649,28.5586-.0742-5.3735L59.0991,8.6196l.0747,5.3745ZM25.3867,50.042l-1.4844-.9028,.291-.2905,1.1934,1.1934Zm.3252-2.6187l.0029-.0024-9.5015-9.4937-.4619,.2568c-.1719,.0962-.356,.1763-.5493,.2383-1.104,.3564-2.2969,.0713-3.1152-.7461-.8159-.8154-1.1016-2.0093-.7461-3.1157,.061-.1899,.1416-.375,.2397-.5503,.1411-.2539,.3115-.4814,.5063-.6758,1.1973-1.1963,3.145-1.1963,4.3423,0l16.4766,16.4736c.2866,.2866,.5103,.6221,.665,.9961,.0762,.1846,.1333,.3745,.1709,.5669,.2046,1.0132-.1074,2.0522-.8354,2.7788-.1973,.1973-.4243,.3677-.6768,.5078-.1753,.0977-.3599,.1777-.5498,.2388-1.103,.356-2.2979,.0708-3.1162-.7471-.4287-.4277-.7168-.9775-.8335-1.5879-.0483-.2578-.0669-.4888-.0576-.7085,.0107-.2759,.0601-.5518,.1455-.8198,.0605-.188,.1406-.3721,.2407-.5498l.2544-.4614-2.6011-2.5986ZM50.2393,6.1392l-29.0327,29.0269-3.3037-3.3042c-.6831-.6831-1.5459-1.1577-2.4951-1.3726-.751-.1724-1.5459-.1724-2.2979-.001-.9492,.2158-1.8125,.6909-2.4956,1.3735-.4854,.4858-.8623,1.0527-1.1201,1.6831-.7925,1.9312-.353,4.1309,1.1201,5.6045,1.3506,1.3511,3.3433,1.8359,5.1572,1.2803l1.6172,1.6167-1.9458,1.9463-6.6074-4.0205V6.0732c6.6582-2.3047,13.6216-3.4731,20.7021-3.4731s14.0435,1.1685,20.7017,3.4731v.0659ZM22.7197,47.3765l-4.9258,4.9258c-.3896-.8428-.9292-1.6182-1.585-2.2734-.6553-.6553-1.4307-1.1943-2.2729-1.584l4.9263-4.9258,3.8574,3.8574Zm-7.9834,12.3428c-1.0957,1.0957-2.5557,1.6992-4.1099,1.6992s-3.0142-.6035-4.1099-1.6997c-1.0957-1.0942-1.6992-2.5532-1.6992-4.1079s.6035-3.0137,1.6992-4.1089c1.0952-1.0947,2.5522-1.6978,4.103-1.6978,.1973,0,.396,.0098,.5967,.0303,.2212,.0215,.4629,.064,.7368,.1274,1.0596,.2471,2.022,.7793,2.7832,1.54,.7598,.7593,1.2925,1.7222,1.5405,2.7842,.0625,.2666,.1035,.5078,.127,.7368,.1763,1.749-.4316,3.4604-1.6675,4.6963ZM50.2393,25.8716v14.1006l-15.1714,9.23c-.1987-.3174-.4292-.6074-.688-.8667l-3.3042-3.3032,19.1636-19.1606Zm-26.5522,9.7603L52.2515,7.0728l5.3735,.0747-28.564,28.5591-5.374-.0747Zm4.7725,2.1484l.0654,4.7026-4.7686-4.7676,4.7031,.0649Z"/>
</svg>