<?xml version="1.0" encoding="UTF-8"?>
<svg id="Layer_1" data-name="Layer 1" xmlns="http://www.w3.org/2000/svg" viewBox="0 0 64 64">
  <g id="Group_920" data-name="Group 920">
    <path id="Path_1122" data-name="Path 1122" d="M55.3501,43.036V9.244c-.0005-1.0001-.8109-1.8109-1.811-1.812h-17.97l-1.849-1.849c-.8201-.8201-2.1497-.8202-2.9698-.0002,0,0-.0001,.0001-.0002,.0002l-9.524,9.523c-.1658-.0417-.336-.0632-.507-.064-.5573-.0015-1.092,.22-1.485,.615l-4.119,4.12c-.8201,.8201-.8202,2.1497-.0002,2.9698l.0002,.0002,5.463,5.463c-2.5267,2.4405-5.3387,4.5673-8.375,6.334-.951,.5661-1.8266,1.2502-2.606,2.036-1.377,1.3243-2.4072,2.9668-3,4.783-.52,1.785-.277,3.3,.685,4.259,.6821,.6483,1.5977,.9928,2.538,.955,1.8359-.1175,3.5886-.8083,5.011-1.975,.3435-.2565,.414-.743,.1575-1.0865-.2565-.3435-.743-.414-1.0865-.1575-2.219,1.656-4.542,2.147-5.523,1.166-.5733-.7932-.6843-1.8304-.292-2.727,.5186-1.5658,1.4134-2.9805,2.606-4.12,.6874-.695,1.4602-1.2998,2.3-1.8,3.1493-1.8334,6.0654-4.0408,8.685-6.574l1.922,1.921c-2.5333,2.6199-4.7407,5.5363-6.574,8.686-.2529,.4266-.5346,.8356-.843,1.224-.2656,.3366-.2081,.8249,.1285,1.0905,.3366,.2657,.8249,.2081,1.0905-.1285h0c.3522-.4442,.6736-.912,.962-1.4,1.7671-3.0363,3.8942-5.8483,6.335-8.375l5.463,5.463c.3929,.3952,.9277,.6167,1.485,.615h.1v3.1c.0737,2.4577,2.1257,4.3903,4.5834,4.3166,2.3541-.0706,4.246-1.9625,4.3166-4.3166v-5.252c.001-1.6016,1.3001-2.8992,2.9017-2.8983,1.6003,.001,2.8973,1.298,2.8983,2.8983v17.269c-.0737,2.4577,1.8589,4.5098,4.3165,4.5835s4.5098-1.8589,4.5835-4.3165c.0027-.089,.0027-.178,0-.2669v-10.472s.003-.005,.003-.008ZM31.8471,6.681c.2139-.2133,.5601-.2133,.774,0l13.6,13.6c.2133,.2139,.2133,.5601,0,.774l-9.31,9.31-3.629-3.629,1.573-1.57c.3038-.3038,.3038-.7962,0-1.1s-.7962-.3038-1.1,0l-1.573,1.573-5.5-5.5,1.577-1.573c.3038-.3038,.3038-.7962,0-1.1s-.7962-.3038-1.1,0l-1.573,1.573-.837-.837,6.192-6.192c.3038-.3038,.3038-.7962,0-1.1-.3038-.3038-.7962-.3038-1.1,0l-6.188,6.196-1.116-1.116L31.8471,6.681Zm.183,30.012c-.2135,.2137-.5598,.2139-.7736,.0004l-.0004-.0004-15.044-15.044c-.2133-.2139-.2133-.5601,0-.774l4.12-4.119c.2135-.2137,.5598-.2139,.7736-.0004l.0004,.0004,15.044,15.043c.2133,.2139,.2133,.5601,0,.774l-4.12,4.12Zm21.767,6.351v10.472c.001,1.6016-1.2966,2.9008-2.8983,2.9017-1.6016,.001-2.9008-1.2966-2.9017-2.8983v-17.2725c-.0737-2.4577-2.1258-4.3902-4.5835-4.3165-2.3541,.0706-4.2459,1.9624-4.3165,4.3165v5.251c-.001,1.6016-1.3001,2.8992-2.9017,2.8983-1.6003-.001-2.8973-1.298-2.8983-2.8983v-3.875l3.952-3.952c.5196-.5214,.7283-1.2768,.55-1.991l9.524-9.524c.8201-.8201,.8202-2.1497,.0002-2.9698,0,0-.0001-.0001-.0002-.0002l-10.2-10.2h16.416c.143,0,.259,.116,.259,.259h0s-.001,33.799-.001,33.799Z" style="fill: #ffac3e;"/>
    <path id="Path_1123" data-name="Path 1123" d="M21.6221,23.049c-.281-.3265-.7735-.3634-1.1-.0824s-.3634,.7735-.0824,1.1c.0254,.0295,.0529,.057,.0824,.0824l8.249,8.248c.3265,.281,.819,.2441,1.1-.0824,.2517-.2925,.2517-.7251,0-1.0176l-8.249-8.248Z" style="fill: #ffac3e;"/>
    <path id="Path_1124" data-name="Path 1124" d="M50.1491,23.835h-.013c-.433,.0022-.7822,.355-.78,.788,.0022,.433,.355,.7822,.788,.78s.7822-.355,.78-.788c-.0022-.4299-.3501-.7778-.78-.78h.005Z" style="fill: #ffac3e;"/>
    <path id="Path_1125" data-name="Path 1125" d="M50.7911,25.957c-.4303,.0195-.7634,.3842-.7438,.8145,.0186,.4099,.3516,.7353,.7618,.7445h.01c.4304-.0179,.7648-.3813,.7469-.8117-.017-.4092-.3476-.7355-.757-.7473h-.018Z" style="fill: #ffac3e;"/>
    <path id="Path_1126" data-name="Path 1126" d="M45.9901,28.348c-.433,.0022-.7822,.355-.78,.788,.0022,.433,.355,.7822,.788,.78s.7822-.355,.78-.788c-.0022-.4299-.3501-.7778-.78-.78h-.008Z" style="fill: #ffac3e;"/>
  </g>
</svg>