<?xml version="1.0" encoding="UTF-8"?>
<svg id="Layer_1" data-name="Layer 1" xmlns="http://www.w3.org/2000/svg" viewBox="0 0 64 64">
  <path d="M44.79,18.9414c-1.0293-1.9917-2.5635-3.6958-4.4346-4.9263-3.0615-2.0596-6.3086-2.2754-9.4639-2.4849-2.0469-.0127-4.0449-.3687-5.9258-1.0532l-.4199-.1821c-.9678-.3223-1.8936-.8647-2.5811-1.4995-.8984-1.1279-2.4824-1.3784-3.6875-.5806-1.1914,.8003-1.5605,2.3989-.8418,3.6387l15.6045,27.0293c-1.5625,.1865-3.0928,.6987-4.4482,1.4907-2.2949,1.3257-4.0449,3.2993-4.9258,5.5566-.9121,2.3301-.7979,4.6802,.3223,6.6182,1.1182,1.9375,3.0957,3.2114,5.5693,3.5874,.4922,.0747,.998,.1128,1.5029,.1128,1.9609,0,3.957-.5537,5.7725-1.6021,2.2949-1.3242,4.0439-3.2979,4.9268-5.5571,.9111-2.3291,.7969-4.6792-.3223-6.6172l-14.9619-25.9165c1.3623,.2515,2.7422,.3989,4.1064,.4395,2.5127,.1675,4.8857,.3262,6.7256,1.5669,1.0908,.7139,1.9883,1.6987,2.5928,2.8462,1.3564,2.6279,1.8496,5.5469,1.4307,8.4219-.3389,1.4702,.582,2.9419,2.0518,3.2812,.7148,.1655,1.4463,.0415,2.0654-.3477,.6201-.3887,1.0518-.9946,1.2178-1.7144l.0312-.1592c.6426-4.1069-.0166-8.2383-1.9072-11.9487Zm-3.2861,1.6294c-.75-1.4229-1.8564-2.6392-3.1953-3.5151-2.2354-1.5083-4.8574-1.6826-7.6426-1.8677-1.9463-.0586-3.8887-.3408-5.7744-.8389l-2.1006-.5552,17.0801,29.583c.8379,1.4512,.9111,3.2461,.2051,5.0537-.7363,1.8789-2.209,3.5303-4.1484,4.6494-1.9375,1.1187-4.1035,1.5679-6.0986,1.2676-1.9189-.2925-3.4365-1.2524-4.2744-2.7041s-.9111-3.2466-.2051-5.0547c.7344-1.877,2.208-3.5288,4.1514-4.6514,1.4844-.8672,3.1787-1.3257,4.8975-1.3257l1.7432,.0254L19.002,10.9473c-.2432-.4189-.1201-.9585,.2793-1.2271,.4287-.2827,.9746-.1704,1.3555,.2969,.9375,.8828,2.1025,1.583,3.2568,1.9634l.3975,.1743c2.1182,.7729,4.3213,1.1709,6.5352,1.1821,2.8838,.1929,5.8652,.3926,8.5293,2.1865,1.6162,1.0615,2.9395,2.5293,3.8252,4.2441,1.7148,3.3647,2.3086,7.1348,1.7197,10.8848-.0547,.2417-.2012,.4473-.4121,.5786-.208,.1318-.4521,.1738-.6982,.1172-.5068-.1167-.8086-.6284-.6826-1.1841,.4854-3.3037-.0684-6.6201-1.6035-9.5933Z" style="fill: #f85446;"/>
</svg>