<svg xmlns="http://www.w3.org/2000/svg" width="75" height="101.855" viewBox="0 0 75 101.855">
  <g id="MelodicChillout" transform="translate(-302 -439.145)">
    <text id="Melodic_Cshillout" data-name="Melodic
Cshillout" transform="translate(302 510)" fill="#ffac3e" font-size="12" font-family="SFProText-Bold, SF Pro Text" font-weight="700"><tspan x="13.755" y="11">Melodic</tspan><tspan x="10.6" y="27">Cshillout</tspan></text>
    <path id="Path_779" data-name="Path 779" d="M97.181,16.316c-1.581-3.243-4.3-5.062-6.92-6.82a19.564,19.564,0,0,1-5.116-4.32l-.235-.315a8.514,8.514,0,0,1-1.785-3.2A1.945,1.945,0,0,0,81.088,0,1.918,1.918,0,0,0,79.3,1.919V36.191a11.127,11.127,0,0,0-5.77-1.577c-5.3,0-9.616,3.45-9.616,7.693S68.229,50,73.529,50s9.616-3.45,9.616-7.693V8.769a27.8,27.8,0,0,0,4.974,3.923c2.3,1.542,4.481,3,5.608,5.312a9.03,9.03,0,0,1,.962,4.416,15.7,15.7,0,0,1-3.37,9A1.921,1.921,0,0,0,94.2,33.96a19.63,19.63,0,0,0,4.323-11.3A12.766,12.766,0,0,0,97.181,16.316Z" transform="translate(274.313 415.027) rotate(23)" fill="none" stroke="#ffac3e" stroke-width="1.3"/>
  </g>
</svg>
