<?xml version="1.0" encoding="UTF-8"?>
<svg id="Layer_1" data-name="Layer 1" xmlns="http://www.w3.org/2000/svg" viewBox="0 0 64 64">
  <path d="M54.7383,31.2686c-.2129-4.0508-2.1855-7.0698-4.1016-10.002-1.3564-1.8203-2.3789-3.8369-3.0361-5.981l-.1191-.478c-.3633-1.0811-.502-2.2715-.3965-3.3149,.3965-1.5127-.418-3.0518-1.8955-3.5806-1.4746-.5093-3.1006,.2163-3.7041,1.6484l-13.5547,31.9341c-1.2139-1.2866-2.7051-2.3198-4.334-3-2.7148-1.1533-5.6377-1.376-8.2354-.6274-2.6152,.7544-4.5781,2.4014-5.5283,4.6372-.96,2.2651-.7695,4.8462,.5361,7.2671,1.2695,2.3525,3.4502,4.2769,6.1396,5.4185,1.6318,.6934,3.3936,1.0596,5.0957,1.0596,4.0176,0,7.3389-1.9424,8.668-5.0698l13.0146-30.6631c.7012,1.416,1.5146,2.7837,2.4219,4.0659,1.5273,2.3374,2.9707,4.5454,3.0996,7.0161,.0967,1.4517-.1797,2.9136-.7979,4.2261-1.4258,2.9648-3.7021,5.3647-6.5762,6.937-1.458,.7427-2.0391,2.5332-1.2969,3.9922,.7207,1.4102,2.4326,1.9956,3.918,1.3306,4.0547-2.1675,7.2617-5.4966,9.2744-9.6289,1.0781-2.2285,1.5645-4.7148,1.4082-7.187Zm-4.0586,.2192c-.1543-2.959-1.7432-5.3911-3.4336-7.978-1.2529-1.771-2.3018-3.6836-3.1172-5.6841l-.8506-2.085-14.7324,34.707c-.7451,1.7554-2.3242,3.0391-4.4473,3.6143-2.1475,.5811-4.582,.3691-6.8574-.5967-2.2998-.9761-4.1543-2.604-5.2227-4.5835-1.0303-1.9111-1.1934-3.916-.459-5.645,1.0293-2.4258,3.6816-3.9326,6.9209-3.9326,1.458,0,2.9756,.3169,4.3887,.917,1.8242,.7632,3.4033,2.0098,4.5674,3.606l.9736,1.3345L43.2119,10.2905c.2217-.5264,.8174-.7964,1.3555-.6108,.5654,.2031,.8477,.7949,.6787,1.4736-.1562,1.4297-.0029,2.8809,.4365,4.1758l.1123,.4541c.7285,2.3843,1.8477,4.6016,3.3203,6.5767,1.7529,2.6851,3.5654,5.4614,3.7529,9.0205,.1357,2.1538-.2871,4.3179-1.2227,6.2573-1.8389,3.7729-4.7549,6.8066-8.417,8.7656-.5273,.2427-1.1543,.022-1.4209-.501-.2744-.5371-.0518-1.2012,.501-1.4839,3.2373-1.769,5.7939-4.4614,7.3945-7.7886,.7549-1.6016,1.0928-3.3809,.9766-5.1421Z" style="fill: #ffac3e;"/>
</svg>