<?xml version="1.0" encoding="utf-8"?>
<!-- Generator: Adobe Illustrator 27.3.1, SVG Export Plug-In . SVG Version: 6.00 Build 0)  -->
<svg version="1.1" id="Layer_1" xmlns="http://www.w3.org/2000/svg" xmlns:xlink="http://www.w3.org/1999/xlink" x="0px" y="0px"
	 viewBox="2 2 20 19.75" style="enable-background:new 0 0 24 24;" xml:space="preserve">
<style type="text/css">
	.st0{fill-opacity:0.8956;}
</style>
<path fill="#FFFFFF" class="st0" d="M11.5,7.5c-0.3,0-0.5-0.1-0.6-0.3c-0.2-0.2-0.3-0.4-0.3-0.6c0-0.3,0.1-0.5,0.3-0.6c0.2-0.2,0.4-0.3,0.6-0.3
	c0.3,0,0.5,0.1,0.6,0.3c0.2,0.2,0.3,0.4,0.3,0.6c0,0.3-0.1,0.5-0.3,0.6C12,7.4,11.8,7.5,11.5,7.5z M15.2,8.7c-0.3,0-0.5-0.1-0.7-0.3
	c-0.2-0.2-0.3-0.4-0.3-0.6s0.1-0.5,0.3-0.6c0.2-0.2,0.4-0.3,0.7-0.3s0.5,0.1,0.6,0.3c0.2,0.2,0.3,0.4,0.3,0.6S16,8.2,15.8,8.4
	C15.7,8.6,15.5,8.7,15.2,8.7z M18.2,10.5c0-0.3-0.1-0.5-0.3-0.6c-0.2-0.2-0.4-0.3-0.6-0.3s-0.5,0.1-0.6,0.3
	c-0.2,0.2-0.3,0.4-0.3,0.6s0.1,0.5,0.3,0.6c0.2,0.2,0.4,0.3,0.6,0.3s0.5-0.1,0.6-0.3C18.1,11,18.2,10.7,18.2,10.5z M17.3,15.1
	c-0.3,0-0.5-0.1-0.6-0.3c-0.2-0.2-0.3-0.4-0.3-0.6s0.1-0.5,0.3-0.6c0.2-0.2,0.4-0.3,0.6-0.3s0.5,0.1,0.6,0.3
	c0.2,0.2,0.3,0.4,0.3,0.6s-0.1,0.5-0.3,0.6C17.8,15,17.6,15.1,17.3,15.1z M15.8,16.6c0-0.3-0.1-0.5-0.3-0.6
	c-0.2-0.2-0.4-0.3-0.6-0.3c-0.3,0-0.5,0.1-0.6,0.3S14,16.3,14,16.6c0,0.3,0.1,0.5,0.3,0.6s0.4,0.3,0.6,0.3c0.3,0,0.5-0.1,0.6-0.3
	C15.7,17,15.8,16.8,15.8,16.6z M16.3,3.2c1.2,0.6,2.2,1.4,3.1,2.3c0.8,0.9,1.5,1.9,1.9,3s0.7,2.3,0.7,3.5c0,1.2-0.2,2.5-0.5,3.8
	c-0.3,0.8-0.6,1.6-1.1,2.4c-0.5,0.8-1.1,1.4-1.8,2c-0.7,0.6-1.5,0.9-2.4,1.2c-0.9,0.2-1.8,0.1-2.8-0.2c-0.7-0.2-1.2-0.5-1.7-0.9
	c-0.4-0.3-0.8-0.7-1-1.2c-0.2-0.4-0.4-0.8-0.5-1.3c-0.1-0.5-0.2-0.9-0.2-1.3c0-0.1,0-0.2,0-0.3c0-0.1,0-0.3,0-0.4c0-0.1,0-0.2,0-0.2
	c0-0.1,0-0.2,0-0.2c0-0.2,0-0.3-0.1-0.5c0-0.2,0-0.3-0.1-0.5c0-0.1-0.1-0.2-0.1-0.3c0-0.1-0.1-0.2-0.1-0.2c0-0.1-0.1-0.1-0.2-0.2
	c-0.1-0.1-0.2-0.1-0.3-0.1c-0.3-0.1-0.6-0.1-0.8-0.1c-0.2,0-0.4,0-0.6,0.1c-0.2,0-0.3,0.1-0.4,0.2c-0.1,0.1-0.3,0.1-0.4,0.2
	c0,0-0.1,0-0.1,0.1c0,0-0.1,0-0.1,0.1c-0.2,0.1-0.4,0.2-0.7,0.3c-0.2,0.1-0.5,0.1-0.8,0.1s-0.6-0.1-1-0.3c-0.3-0.2-0.7-0.4-1-0.7
	c-0.4-0.3-0.7-0.7-0.9-1.2C2.1,12,2,11.6,2,11.1c0-0.5,0.1-1,0.2-1.5c0.1-0.5,0.3-1,0.5-1.5c0.4-1,1-1.9,1.8-2.8
	c0.7-0.9,1.5-1.5,2.2-2C7.4,3,8.2,2.6,9,2.4C9.8,2.1,10.5,2,11.4,2c0.8,0,1.6,0.1,2.5,0.3C14.7,2.5,15.5,2.8,16.3,3.2z M7.3,4.4
	c-0.6,0.4-1.3,1-1.9,1.7C4.8,6.9,4.3,7.8,3.9,8.6C3.6,9.1,3.5,9.5,3.4,9.9c-0.1,0.4-0.1,0.8-0.1,1.2c0,0.3,0.1,0.7,0.2,0.9
	c0.1,0.3,0.3,0.5,0.5,0.7c0.3,0.3,0.6,0.4,0.8,0.5c0.2,0.1,0.4,0.1,0.5,0.1c0.1,0,0.3,0,0.4-0.1c0.1,0,0.3-0.1,0.5-0.2
	c0,0,0,0,0.1,0c0,0,0.1,0,0.1-0.1c0.2-0.1,0.3-0.2,0.5-0.3c0.2-0.1,0.4-0.2,0.6-0.3c0.3-0.1,0.6-0.1,0.9-0.1c0.3,0,0.7,0.1,1.2,0.2
	c0.2,0.1,0.4,0.2,0.6,0.3c0.2,0.1,0.3,0.2,0.5,0.4c0.1,0.2,0.2,0.3,0.3,0.5c0.1,0.2,0.1,0.3,0.2,0.5c0,0.2,0.1,0.4,0.1,0.6
	c0,0.2,0.1,0.4,0.1,0.6c0,0.1,0,0.2,0,0.3c0,0.1,0,0.2,0,0.2c0,0.1,0,0.2,0,0.3c0,0.1,0,0.2,0,0.3c0,0.4,0.1,0.8,0.1,1.1
	c0.1,0.3,0.2,0.7,0.4,1c0.2,0.3,0.4,0.6,0.7,0.8c0.3,0.3,0.7,0.5,1.3,0.7c0.7,0.3,1.4,0.3,2.1,0.1c0.7-0.2,1.3-0.5,1.9-0.9
	c0.6-0.4,1.1-1,1.5-1.7c0.4-0.7,0.8-1.4,1-2.1c0.3-1.2,0.5-2.3,0.5-3.4c0-1.1-0.2-2.1-0.6-3.1c-0.4-1-0.9-1.9-1.7-2.7
	c-0.7-0.8-1.6-1.5-2.7-2c-0.7-0.4-1.5-0.7-2.2-0.8c-0.7-0.2-1.4-0.3-2.2-0.2c-0.7,0-1.4,0.1-2.1,0.3C8.6,3.8,8,4.1,7.3,4.4z"/>
</svg>
