<svg xmlns="http://www.w3.org/2000/svg" viewBox="0 0 24 24" style="enable-background:new 0 0 24 24" xml:space="preserve"><path d="M22 7.5h-4.1c-.2-.9-1-1.5-1.9-1.5-.9 0-1.7.6-1.9 1.5H7.9C7.7 6.6 6.9 6 6 6c-.9 0-1.7.6-1.9 1.5H2v1h2.1c.2.9 1 1.5 1.9 1.5.9 0 1.7-.6 1.9-1.5H14c.2.9 1 1.5 1.9 1.5.9 0 1.7-.6 1.9-1.5H22v-1zM6 9c-.6 0-1-.4-1-1s.4-1 1-1 1 .4 1 1-.4 1-1 1zm10 0c-.6 0-1-.4-1-1s.4-1 1-1 1 .4 1 1-.4 1-1 1zm6 6.5h-2.1c-.2-.9-1-1.5-1.9-1.5-.9 0-1.7.6-1.9 1.5H9.9c-.2-.9-1-1.5-1.9-1.5-.9 0-1.7.6-1.9 1.5H2v1h4.1c.2.9 1 1.5 1.9 1.5.9 0 1.7-.6 1.9-1.5H16c.2.9 1 1.5 1.9 1.5.9 0 1.7-.6 1.9-1.5H22v-1zM8 17c-.6 0-1-.4-1-1s.4-1 1-1 1 .4 1 1-.4 1-1 1zm10 0c-.6 0-1-.4-1-1s.4-1 1-1 1 .4 1 1-.4 1-1 1z" fill="#7C59B6"/></svg>