<?xml version="1.0" encoding="UTF-8"?>
<svg id="Layer_1" data-name="Layer 1" xmlns="http://www.w3.org/2000/svg" viewBox="0 0 64 64">
  <path d="M58.518,52.7495v-.125c-.0022-2.1691-1.76-3.9268-3.929-3.929V30.5255l3.536-2.652c.434-.3253,.5221-.9407,.1968-1.3748-.0584-.0779-.1281-.1468-.2068-.2042l-8.437-6.165V9.4095c.5424,0,.982-.4396,.982-.982v-3.929c0-.5411-.4378-.9803-.979-.982h-9.825c-.5423,0-.982,.4396-.982,.982v3.929c0,.5424,.4397,.982,.982,.982v3.543l-7.278-5.318c-.3452-.2523-.8138-.2523-1.159,0L5.886,26.2955c-.438,.3198-.534,.9341-.2143,1.3721,.0575,.0787,.1263,.1484,.2043,.2068l3.536,2.652v18.17c-2.169,.0022-3.9268,1.76-3.929,3.929v.124c-2.1014,.5408-3.3665,2.6828-2.8257,4.7842,.4469,1.7365,2.0127,2.9501,3.8057,2.9497H57.538c2.17,.0004,3.9293-1.7583,3.9297-3.9283,.0003-1.793-1.2133-3.3588-2.9497-3.8057Zm-49.107,5.767h-2.945c-1.0836-.0016-1.9618-.8794-1.964-1.963v-.002c.0015-1.0728,.8623-1.9466,1.935-1.9641,.05,.007,.1,.013,.152,.0161,.5413,.0344,1.0079-.3765,1.0423-.9178,.0086-.1353-.0109-.2709-.0573-.3983-.0812-.2125-.1241-.4376-.127-.665,.0016-1.084,.88-1.9623,1.9641-1.964v7.858ZM40.842,5.4805h7.857v1.964h-7.857v-1.964Zm6.875,3.929v9.285l-5.986-4.378,.093,.003v-4.91h5.893Zm-.983,49.107h-11.785v-21.607h11.785v21.607Zm5.893,0h-3.929v-22.589c0-.5424-.4396-.982-.982-.982h-13.75c-.5424,0-.982,.4396-.982,.982v22.589H11.377V30.5355l20.625-15,20.625,15v27.981ZM32.58,13.5255c-.3445-.2509-.8115-.2509-1.1559,0L10.403,28.8165l-2.287-1.715L32.002,9.6425l23.886,17.4561-2.287,1.718-21.0211-15.291Zm25.0804,44.9918c-.0408,.001-.0816,.0007-.1224-.0009h-2.946v-7.856c1.084,.0016,1.9623,.88,1.964,1.9641-.0027,.2277-.0457,.4532-.127,.666-.1856,.5096,.0771,1.0732,.5867,1.2587,.1274,.0464,.2629,.0659,.3983,.0573,.051,0,.1-.009,.152-.016,1.0844-.0261,1.9846,.8318,2.0106,1.9163,.0261,1.0844-.8319,1.9846-1.9163,2.0106Z" style="fill: #0e88f2;"/>
  <path d="M28.073,34.9455h-11.786c-.5424,0-.982,.4396-.982,.982v13.75c0,.5423,.4396,.982,.982,.982h11.786c.5424,0,.982-.4397,.982-.982v-13.75c0-.5424-.4396-.982-.982-.982Zm-6.875,13.75h-3.929v-4.911h3.929v4.911Zm0-6.875h-3.929v-4.911h3.929v4.911Zm5.893,6.875h-3.929v-4.911h3.929v4.911Zm0-6.875h-3.929v-4.911h3.929v4.911Z" style="fill: #0e88f2;"/>
  <path d="M37.895,47.7135c.5424,0,.9821-.4397,.9821-.982s-.4397-.982-.9821-.982-.982,.4396-.982,.982,.4397,.982,.982,.982Z" style="fill: #0e88f2;"/>
</svg>