<svg xmlns="http://www.w3.org/2000/svg" viewBox="0 0 24 24"><path fill="#FFFFFF" d="M5 12h2v1H5zM5 15h2v1H5zM5 18h2v1H5zM9 12h2v1H9zM9 15h2v1H9zM9 18h2v1H9zM13 12h2v1h-2zM13 15h2v1h-2zM13 18h2v1h-2zM17 12h2v1h-2zM17 15h2v1h-2zM19.5 20.5h2v-1h-1V18h-1v2.5z"/><path fill="#FFFFFF" d="M22 16.556V5h-4.5V4h-1v1h-4V4h-1v1h-4V4h-1v1H2v17h14.556c.694 1.19 1.97 2 3.444 2 2.206 0 4-1.794 4-4 0-1.474-.81-2.75-2-3.444zM3 6h3.5v1h1V6h4v1h1V6h4v1h1V6H21v3H3V6zm13.142 15H3V10h18v6.142A3.952 3.952 0 0020 16c-2.206 0-4 1.794-4 4 0 .347.058.678.142 1zM20 23c-.883 0-1.67-.39-2.22-1a2.985 2.985 0 01-.596-1A2.964 2.964 0 0117 20c0-1.654 1.346-3 3-3 .352 0 .686.072 1 .184.374.133.711.336 1 .596.61.55 1 1.337 1 2.22 0 1.654-1.346 3-3 3z"/></svg>