<svg width="195" height="140" viewBox="0 0 195 140" fill="none" xmlns="http://www.w3.org/2000/svg">
<path d="M28 16.6681H4C1.79086 16.6681 0 18.459 0 20.6681V44.6681C0 46.8773 1.79086 48.6681 4 48.6681H28C30.2091 48.6681 32 46.8773 32 44.6681V20.6681C32 18.459 30.2091 16.6681 28 16.6681Z" fill="#007AFF"/>
<path d="M6.17554 28.0497L17.7387 39.2385L39.9755 16" stroke="white" stroke-width="2" stroke-miterlimit="10"/>
<path d="M126 99C126 107.837 133.163 115 142 115C150.837 115 158 107.837 158 99C158 90.1634 150.837 83 142 83C133.163 83 126 90.1634 126 99Z" fill="#007AFF"/>
<path d="M133.874 99C133.874 103.418 137.456 107 141.874 107C146.292 107 149.874 103.418 149.874 99C149.874 94.5817 146.292 91 141.874 91C137.456 91 133.874 94.5817 133.874 99Z" fill="white"/>
<rect opacity="0.1" x="59" y="6" width="136" height="54" rx="8" fill="#007AFF"/>
<mask id="path-6-outside-1_334_3815" maskUnits="userSpaceOnUse" x="69" y="12" width="117" height="40" fill="black">
<rect fill="white" x="69" y="12" width="117" height="40"/>
<path fill-rule="evenodd" clip-rule="evenodd" d="M69 13H185V51H69"/>
</mask>
<path d="M185 13H186V12H185V13ZM185 51V52H186V51H185ZM69 13V14H185V13V12H69V13ZM185 13H184V51H185H186V13H185ZM185 51V50H69V51V52H185V51Z" fill="#007AFF" mask="url(#path-6-outside-1_334_3815)"/>
<path d="M68.5 50V13" stroke="#007AFF" stroke-miterlimit="10"/>
<rect x="66" y="50" width="5" height="5" fill="#007AFF"/>
<rect x="183" y="49" width="5" height="5" fill="#007AFF"/>
<rect x="66" y="10" width="5" height="5" fill="#007AFF"/>
<rect x="183" y="10" width="5" height="5" fill="#007AFF"/>
<path d="M100.753 20.1102H102.79L113.325 46.7287H111.114L107.646 37.9715H95.8538L92.429 46.7287H90.218L100.753 20.1102ZM101.75 22.9715L96.6342 35.9773H106.865L101.75 22.9715ZM128.412 37.2345V33.3761C128.412 30.775 126.591 29.0842 123.643 29.0842C121.432 29.0842 119.611 29.7345 118.051 30.775V28.694C119.351 27.827 121.476 27.09 123.86 27.09C127.935 27.09 130.493 29.431 130.493 33.2461V46.7287H128.412V44.9079C127.588 45.905 125.464 47.0322 123.08 47.0322C119.178 47.0322 115.97 44.7779 115.97 41.0929C115.97 37.538 119.178 35.1969 123.166 35.1969C125.464 35.1969 127.545 36.2807 128.412 37.2345ZM128.412 42.3501V39.879C127.805 38.2316 125.637 37.0177 123.296 37.0177C120.565 37.0177 118.051 38.3617 118.051 41.0929C118.051 43.8241 120.565 45.2114 123.296 45.2114C125.637 45.2114 127.805 43.9975 128.412 42.3501Z" fill="#007AFF"/>
<path d="M81.5428 19.8343V45.2955" stroke="#007AFF" stroke-miterlimit="10"/>
<path d="M77.1484 19.5857H85.1842" stroke="#007AFF" stroke-miterlimit="10"/>
<path d="M77.1484 45.2156H85.1842" stroke="#007AFF" stroke-miterlimit="10"/>
<g filter="url(#filter0_d_334_3815)">
<path d="M143.343 36.1931L136 38.2195L138.018 30.8417C138.246 30.0076 138.686 29.2474 139.295 28.6359L166.982 -3.05176e-05L173.227 6.27434L145.539 34.9103C144.931 35.5223 144.174 35.9644 143.343 36.1931Z" fill="#007AFF"/>
</g>
<rect opacity="0.1" x="30" y="76" width="64" height="64" rx="8" fill="#007AFF"/>
<rect x="36.5" y="70.5" width="63" height="63" rx="7.5" stroke="#007AFF"/>
<path d="M82.6636 103.481C84.9631 103.481 86.8272 101.643 86.8272 99.3744C86.8272 97.1061 84.9631 95.2674 82.6636 95.2674C80.3641 95.2674 78.5 97.1061 78.5 99.3744C78.5 101.643 80.3641 103.481 82.6636 103.481Z" fill="#007AFF"/>
<path d="M82.5 83L82.5 121" stroke="#007AFF"/>
<path d="M67.1636 116.316C69.4631 116.316 71.3272 114.477 71.3272 112.209C71.3272 109.94 69.4631 108.102 67.1636 108.102C64.8641 108.102 63 109.94 63 112.209C63 114.477 64.8641 116.316 67.1636 116.316Z" fill="#007AFF"/>
<path d="M67.5 83L67.5 121" stroke="#007AFF"/>
<path d="M52.1636 98.2139C54.4631 98.2139 56.3272 96.3752 56.3272 94.107C56.3272 91.8388 54.4631 90 52.1636 90C49.8641 90 48 91.8388 48 94.107C48 96.3752 49.8641 98.2139 52.1636 98.2139Z" fill="#007AFF"/>
<path d="M52.5 83L52.5 121" stroke="#007AFF"/>
<defs>
<filter id="filter0_d_334_3815" x="133.863" y="-3.05176e-05" width="41.4999" height="42.4926" filterUnits="userSpaceOnUse" color-interpolation-filters="sRGB">
<feFlood flood-opacity="0" result="BackgroundImageFix"/>
<feColorMatrix in="SourceAlpha" type="matrix" values="0 0 0 0 0 0 0 0 0 0 0 0 0 0 0 0 0 0 127 0" result="hardAlpha"/>
<feOffset dy="2.13655"/>
<feGaussianBlur stdDeviation="1.06827"/>
<feComposite in2="hardAlpha" operator="out"/>
<feColorMatrix type="matrix" values="0 0 0 0 0 0 0 0 0 0 0 0 0 0 0 0 0 0 0.15 0"/>
<feBlend mode="normal" in2="BackgroundImageFix" result="effect1_dropShadow_334_3815"/>
<feBlend mode="normal" in="SourceGraphic" in2="effect1_dropShadow_334_3815" result="shape"/>
</filter>
</defs>
</svg>
