<?xml version="1.0" encoding="UTF-8"?>
<svg id="Layer_1" data-name="Layer 1" xmlns="http://www.w3.org/2000/svg" viewBox="0 0 64 64">
  <path d="M53.7842,41.2441v-4.4258c0-3.9038-3.1753-7.0796-7.0781-7.0796-3.9697,0-7.0791,3.1099-7.0791,7.0796v15.4141c0,4.4287-3.6035,8.0312-8.0322,8.0312s-8.0322-3.6025-8.0322-8.0312v-11.0518c1.6523-.459,2.8394-1.9775,2.8394-3.6543v-.5996c4.0264-.8936,7.6274-3.0371,10.1484-6.0425,2.8735-3.2837,4.4556-7.5513,4.4556-12.0171,0-1.4351-.9331-2.6802-2.3335-3.1323V7.9141c0-2.2427-1.894-4.1372-4.1362-4.1372h-.6343c-.4375-1.1396-1.5381-1.9268-2.7124-1.9268-1.6372,0-2.9199,1.2827-2.9199,2.9199,0,1.6382,1.2827,2.9209,2.9199,2.9209,1.2446,0,2.2754-.7354,2.7144-1.9268h.6323c1.2056,0,2.1504,.9443,2.1504,2.1499v7.9307c-1.2407,.4565-2.1304,1.7515-2.1304,3.1235,0,6.5542-5.332,11.8862-11.8857,11.8862s-11.8857-5.332-11.8857-11.8862c0-1.3721-.8896-2.6675-2.1299-3.1235V7.9146c0-1.2056,.9443-2.1504,2.1499-2.1504h.6343c.437,1.1396,1.5376,1.9268,2.7124,1.9268,1.6377,0,2.9204-1.2827,2.9204-2.9209,0-1.6372-1.2827-2.9199-2.9204-2.9199-1.2441,0-2.2754,.7354-2.7148,1.9268h-.6323c-2.2427,0-4.1372,1.8945-4.1372,4.1377v7.8018c-1.3589,.3691-2.3325,1.6748-2.3325,3.1509,0,4.4009,1.623,8.7798,4.4507,12.0112,2.5234,3.0093,6.126,5.1538,10.1538,6.0493v.499c0,1.7422,1.1357,3.1963,2.8389,3.6533v11.0518c0,5.5244,4.4946,10.0186,10.0195,10.0186s10.0195-4.4941,10.0195-10.0186v-15.3135c0-2.752,2.2383-4.9907,4.9897-4.9907s4.9907,2.2388,4.9907,4.9907v4.4238c-3.2476,.4766-5.6797,3.3037-5.6797,6.6299,0,3.7354,3.0386,6.7744,6.7739,6.7744,1.8076,0,3.5078-.7061,4.7881-1.9883,1.2803-1.2832,1.9858-2.9883,1.9854-4.8105-.2061-3.3096-2.7236-6.125-5.8809-6.6035Zm-1.0952,7.6621c-.4883,0-.9336-.4307-.936-.8848,.0781-.624,.4194-.9814,.936-.9814,.4976,0,.9341,.4365,.9341,.9336s-.4365,.9326-.9341,.9326Zm-.9932-3.8486c-1.1401,.4375-1.9277,1.5381-1.9277,2.7129,0,1.6377,1.2827,2.9209,2.9209,2.9209s2.9204-1.2832,2.9204-2.9209c0-1.2256-.7524-2.2793-1.9263-2.7148v-1.8008c2.1821,.4609,3.6909,2.335,3.6909,4.6172,0,2.627-2.0581,4.6846-4.6851,4.6846s-4.686-2.0576-4.686-4.6846c0-2.1963,1.5752-4.1484,3.6929-4.6152v1.8008Zm-31.7144-9.8389c-7.9741-1.3008-13.7607-8.0908-13.7607-16.1484,0-.6709,.6128-1.2378,1.3384-1.2378,.5732,0,1.1357,.6133,1.1357,1.2378,0,7.6494,6.2695,13.8726,13.9756,13.8726s13.9751-6.2231,13.9751-13.8726c0-.6826,.5098-1.2378,1.1362-1.2378,.7251,0,1.3379,.5669,1.3379,1.2378,0,8.0757-5.7764,14.8672-13.7109,16.1455-.5513,0-.8921,.5156-.8921,.9932v1.3184c0,.9619-.7827,1.7441-1.7451,1.7441-1.0557,0-1.9478-.7988-1.9478-1.7441v-1.3184c0-.4756-.3379-.9844-.8423-.9902ZM32.125,4.7266c-.0718,.4727-.3936,.9771-.9355,.9771-.4976,0-.9341-.4365-.9341-.9336s.4365-.9336,.9341-.9336c.4839,0,.9268,.4229,.9355,.8901Zm-19.0098,.1831c.0801-.6177,.4199-.9717,.9346-.9717,.4971,0,.9336,.4365,.9336,.9341,0,.4971-.4365,.9331-.9336,.9331-.4844,0-.9272-.4258-.9346-.8955Z" style="fill: #f15649;"/>
  <path d="M53.3989,17.8325c2.6279,0,4.8477-2.2202,4.8477-4.8481s-2.2197-4.8472-4.8477-4.8472-4.8472,2.2197-4.8472,4.8472c0,2.7188,2.1289,4.8481,4.8472,4.8481Zm-2.7583-4.8481c0-1.5723,1.186-2.7578,2.7583-2.7578,1.5215,0,2.7593,1.2373,2.7593,2.7578,0,1.5215-1.2378,2.7593-2.7593,2.7593s-2.7583-1.2378-2.7583-2.7593Z" style="fill: #f15649;"/>
  <path d="M10.9067,44.9512c-2.3379,0-4.2397,1.9014-4.2397,4.2383s1.9019,4.2393,4.2397,4.2393,4.2388-1.9023,4.2388-4.2393c0-2.2969-1.9409-4.2383-4.2388-4.2383Zm2.1499,4.2383c0,1.2061-.9443,2.1504-2.1499,2.1504s-2.1504-.9443-2.1504-2.1504c0-1.2051,.9448-2.1494,2.1504-2.1494s2.1499,.9443,2.1499,2.1494Z" style="fill: #f15649;"/>
  <path d="M25.105,15.9053c.7153,0,1.2969-.582,1.2969-1.2979s-.5815-1.2979-1.2969-1.2979c-.7158,0-1.2983,.582-1.2983,1.2979s.5825,1.2979,1.2983,1.2979Z" style="fill: #f15649;"/>
  <path d="M18.8169,55.1943c-.7158,0-1.2979,.582-1.2979,1.2979s.582,1.2979,1.2979,1.2979c.7153,0,1.2969-.582,1.2969-1.2979s-.5815-1.2979-1.2969-1.2979Z" style="fill: #f15649;"/>
  <path d="M8.6548,36.8184c0-.7158-.582-1.2988-1.2974-1.2988-.7158,0-1.2983,.583-1.2983,1.2988,0,.7148,.5825,1.2969,1.2983,1.2969,.7153,0,1.2974-.582,1.2974-1.2969Z" style="fill: #f15649;"/>
</svg>