<!-- Generated by IcoMoon.io -->
<svg version="1.1" xmlns="http://www.w3.org/2000/svg" width="24" height="24" viewBox="0 0 24 24">
<title>rad-slider</title>
<path fill="#ffffff" d="M22 8h-4.1c-0.2-0.9-1-1.5-1.9-1.5s-1.7 0.6-1.9 1.5h-6.2c0 0-1 0-1.9 0s-1.9 0-1.9 0h-2.1v1h2.1c0 0 1 0 1.9 0s1.9 0 1.9 0h6.1c0.2 0.9 1 1.5 1.9 1.5s1.7-0.6 1.9-1.5h4.2v-1zM16 9.5c-0.6 0-1-0.4-1-1s0.4-1 1-1c0.6 0 1 0.4 1 1s-0.4 1-1 1zM22 16h-2.1c0 0-1.1 0-2 0s-1.8 0-1.8 0h-6.2c-0.2-0.9-1-1.5-1.9-1.5s-1.7 0.6-1.9 1.5h-4.1v1h4.1c0.2 0.9 1 1.5 1.9 1.5s1.7-0.6 1.9-1.5h6.1c0 0 1.1 0 2 0s1.8 0 1.8 0h2.2v-1zM8 17.5c-0.6 0-1-0.4-1-1s0.4-1 1-1c0.6 0 1 0.4 1 1s-0.4 1-1 1z"></path>
</svg>
