<?xml version="1.0" encoding="UTF-8"?><svg id="Layer_1" xmlns="http://www.w3.org/2000/svg" width="24" height="24" viewBox="0 0 24 24"><path fill="#ffffff"   d="M19,11.27c-.36,3.51-2.99,6.3-6.3,6.65v3.08h2.8c.39,0,.7.34.7.75,0,.21-.08.39-.2.53-.13.14-.3.22-.5.22h-7c-.39,0-.7-.34-.7-.75,0-.21.08-.39.2-.53.13-.14.3-.22.5-.22h2.8v-3.08c-3.31-.35-5.94-3.13-6.3-6.65-.04-.43.27-.81.68-.81h.03c.35,0,.65.29.68.66.14,1.35.7,2.61,1.62,3.58,1.56,1.66,3.87,2.23,6.12,1.34.02,0,.04-.01.05-.02,1.98-.96,3.19-2.81,3.4-4.9.04-.37.33-.65.68-.65h.03c.41,0,.73.38.68.81ZM12,3c-1.54,0-2.8,1.35-2.8,3v5.2c0,1.65,1.26,3,2.8,3s2.8-1.35,2.8-3v-5.2c0-1.65-1.26-3-2.8-3ZM12,1.5c2.32,0,4.2,2.01,4.2,4.5v5.2c0,2.49-1.88,4.5-4.2,4.5s-4.2-2.01-4.2-4.5v-5.2c0-2.49,1.88-4.5,4.2-4.5Z"/></svg>