<?xml version="1.0" encoding="UTF-8"?>
<svg id="Layer_1" data-name="Layer 1" xmlns="http://www.w3.org/2000/svg" viewBox="0 0 64 64">
  <path d="M57.7128,40.1609h-13.8497c.193-7.147,.782-12.56,1.752-16.108,.8386,.2175,1.7241-.1081,2.222-.817,3.213-.391,4.935,1.752,7.148,5.04,.2405,.3594,.7269,.4556,1.0862,.2151,.2362-.1581,.3681-.4318,.3447-.7151-.2204-2.3729-1.0757-4.6427-2.476-6.571,1.1686,.492,2.2993,1.0696,3.383,1.728,.372,.2183,.8505,.0937,1.0688-.2783,.1439-.2452,.1431-.5491-.0018-.7936-.121-.2-3.006-4.974-7.169-5.386-1.3772-.1255-2.7559,.2238-3.907,.9901,.2449-1.3845-.0005-2.811-.694-4.034-2.1-3.617-7.669-4.252-7.9-4.277-.4282-.0478-.814,.2605-.8618,.6886-.0316,.2823,.0929,.5594,.3248,.7234,1.2939,.8446,2.487,1.8344,3.556,2.95-3.572-1.374-8.047,.713-8.289,.826-.3885,.1861-.5526,.6519-.3665,1.0404,.1222,.2552,.373,.4242,.6555,.4416,1.2694,.0515,2.5332,.1973,3.781,.436-2.2415,.8261-4.2191,2.2406-5.725,4.095-.2628,.342-.1987,.8323,.1432,1.0952,.2195,.1687,.5121,.2086,.7688,.1048,4.029-1.658,6.664-2.469,9.283,.263,.0782,.0811,.173,.1442,.278,.185,.0562,.0615,.1159,.1196,.179,.174-2.415,5.048-3.681,12.37-4.3309,17.974H6.282c-.4308-.0007-.7806,.3478-.7813,.7786-.0008,.4308,.3478,.7806,.7786,.7814h31.6627c-.122,1.185-.226,2.362-.309,3.493-.2466-.026-.4943-.0397-.743-.041h-3.27c-3.1636-.0005-5.9808,2.0013-7.021,4.989-.1397,.4087,.0782,.8533,.4869,.993,.0815,.0278,.167,.0421,.2531,.0421h22.46c.4307,.0012,.7809-.347,.7822-.7778,.0002-.0879-.0143-.1752-.0432-.2582-.8926-2.5491-3.2991-4.2553-6-4.254h-.7599c0-1.515,.014-2.893,.042-4.176h13.89c.4308,.0007,.7806-.3478,.7814-.7786s-.3478-.7806-.7786-.7814Zm-3.7617-15.865c-1.3666-1.7717-3.5108-2.7662-5.746-2.665h.002c-.0638-.3501-.216-.6781-.442-.953,.0891-.02,.181-.045,.268-.062,.8074-.173,1.6442-.1542,2.4431,.055l.037,.009c1.6348,.6221,2.8992,1.952,3.438,3.616Zm-2.891-6.267l.002,.002c1.3429,.2054,2.5887,.8232,3.565,1.768-1.2203-.5435-2.5575-.7721-3.889-.665-.9842-.2365-2.0084-.2535-3-.05h-.01c.9363-.7623,2.1276-1.1395,3.332-1.055Zm-4.381,3.973c-.0005,.3082-.2508,.5576-.559,.557-.3076-.0011-.5561-.2514-.555-.559s.2513-.5561,.559-.555c.3069,.0011,.555,.2502,.555,.557Zm-1.4109-7.783l-.006,.001c.7515,1.5195,.7485,3.3031-.008,4.82-.2199-.1978-.4788-.3473-.7599-.439,.1926-.8245,.2403-1.6762,.141-2.517-.0017-.0128-.004-.0255-.007-.038v-.021c-.2802-1.6848-1.1525-3.2142-2.46-4.313,1.2699,.4913,2.3539,1.368,3.1,2.507Zm-1.018,6.757c-.2054,.2282-.557,.2466-.7852,.0412s-.2467-.557-.0412-.7852c.1059-.1177,.257-.1846,.4154-.184v-.002c.1265,.0024,.2484,.0483,.345,.13-.1316,.2576-.106,.5674,.066,.8Zm-1.151-4.509c.0277,.2751,.0327,.5521,.015,.828-.5432-.4238-1.1509-.7577-1.7999-.989-1.0394-.8185-2.2664-1.3651-3.57-1.59,1.876-.251,4.044-.034,5.355,1.751Zm-1.178,3.237c-1.7955-1.2477-4.0753-1.5717-6.1474-.8743,1.3827-1.0967,3.1912-1.501,4.9094-1.0967,.7138,.2428,1.3655,.6395,1.909,1.162-.288,.2092-.5187,.4874-.671,.809Zm-13.364,29.929c1.0545-1.7961,2.9813-2.8995,5.064-2.9h3.272c2.0828,.0005,4.0095,1.1039,5.064,2.9h-13.4Zm15.987-2.171c1.6174-.0002,3.1257,.8154,4.011,2.1689l.002,.002h-4.8521c-.3515-.8044-.8439-1.5397-1.454-2.171h2.293Zm-2.27-6.5421c-.039,1.509-.059,3.144-.059,4.976l-.416,.003c-.4711,.0006-.9407,.0539-1.4,.159-.3902-.2108-.7985-.3861-1.22-.524,.1-1.444,.242-2.986,.408-4.507,.618-5.616,1.872-13.261,4.338-18.315,.065,0,.128-.011,.192-.019,.0421,.1199,.095,.2357,.158,.346l-.055,.181c-1.128,3.845-1.764,9.637-1.946,17.7Z" style="fill: #ffac3e;"/>
  <path d="M51.9271,35.904h-5.471c-.438,.0005-.7925,.3561-.7919,.7941,.0005,.4371,.3548,.7913,.7919,.7919h5.471c.4379,.0005,.7935-.354,.7941-.7919,.0005-.438-.354-.7935-.7919-.7941h-.0021Z" style="fill: #ffac3e;"/>
  <path d="M29.1729,37.49h4.3762c.4379,.0005,.7935-.354,.7941-.7919,.0005-.438-.354-.7935-.792-.7941h-4.3761c-.4379-.0006-.7935,.3539-.7941,.7919-.0005,.4379,.354,.7935,.7919,.7941Z" style="fill: #ffac3e;"/>
  <path d="M23.738,35.904H14.2991c-.438,.0005-.7925,.3561-.7919,.7941,.0005,.4371,.3548,.7913,.7919,.7919h9.439c.438,.0005,.7935-.354,.7941-.7919,.0006-.438-.3539-.7935-.7919-.7941h-.0021Z" style="fill: #ffac3e;"/>
  <path d="M30.3101,32.3939c0,.438,.355,.793,.793,.793h5.681c.438-.0006,.7925-.3561,.7919-.7941-.0005-.4371-.3548-.7914-.7919-.7919h-5.681c-.4377,.0005-.7925,.3553-.793,.793Z" style="fill: #ffac3e;"/>
  <path d="M56.3881,32.3939h.007c-.0005-.4377-.3552-.7924-.793-.793h-6.669c-.438,.0006-.7925,.3561-.7919,.7941,.0005,.4371,.3548,.7913,.7919,.7919h6.662c.438,0,.793-.355,.793-.793Z" style="fill: #ffac3e;"/>
  <path d="M21.274,32.3939c0,.438,.355,.793,.793,.793h4.653c.438,.0006,.7935-.354,.7941-.7919,.0006-.438-.3539-.7935-.7919-.7941h-4.6551c-.4377,.0005-.7925,.3553-.793,.793Z" style="fill: #ffac3e;"/>
  <path d="M10.1421,33.187h5.631c.4379-.0006,.7925-.3561,.7919-.7941-.0006-.4371-.3548-.7914-.7919-.7919h-5.631c-.438,.0006-.7925,.3561-.792,.7941,.0006,.4371,.3549,.7913,.792,.7919Z" style="fill: #ffac3e;"/>
  <path d="M29.9439,28.8849h6.0071c.438-.0006,.7925-.3561,.7919-.7941-.0005-.4371-.3548-.7913-.7919-.7919h-6.005c-.4379-.0006-.7935,.354-.7941,.7919-.0005,.438,.354,.7935,.7919,.7941Z" style="fill: #ffac3e;"/>
  <path d="M19.683,27.299c-.4379-.0006-.7935,.3539-.7941,.7919-.0005,.438,.354,.7935,.7919,.7941h5.2601c.438-.0006,.7925-.3561,.7919-.7941-.0005-.4371-.3548-.7914-.7919-.7919h-5.258Z" style="fill: #ffac3e;"/>
  <path d="M12.4701,13.145v.001h1.253c.1199,.7366,.4099,1.4351,.847,2.04l-.89,.89c-.3104,.3098-.3109,.8126-.001,1.123,.3098,.3104,.8126,.3109,1.123,.001l.888-.888c.605,.4371,1.3034,.7274,2.04,.848v1.252c-.0005,.438,.354,.7935,.7919,.7941,.438,.0006,.7935-.3539,.7941-.7919v-1.2581c.7366-.1206,1.435-.4109,2.04-.848l.893,.89c.3101,.3093,.8122,.3086,1.1215-.0015,.3093-.3101,.3086-.8123-.0015-1.1215l-.887-.889c.4368-.605,.7267-1.3035,.847-2.04h1.257c.438,0,.793-.355,.793-.793s-.355-.793-.793-.793h-1.258c-.1202-.7365-.4102-1.4349-.847-2.04l.892-.889c.3101-.3093,.3108-.8114,.0015-1.1215-.3093-.3101-.8114-.3108-1.1215-.0015l-.893,.89c-.6051-.437-1.3035-.7272-2.04-.848v-1.257c-.0006-.438-.3561-.7925-.7941-.792-.4371,.0006-.7914,.3549-.7919,.792v1.257c-.7366,.1207-1.435,.4109-2.04,.848l-.888-.888c-.3212-.2993-.8243-.2814-1.1236,.0398-.2834,.3043-.2845,.7756-.0024,1.0812l.888,.888c-.4371,.6049-.7271,1.3034-.847,2.04h-1.251c-.438,0-.793,.355-.793,.793s.355,.793,.793,.793Zm3.733-3.114c1.2823-1.278,3.3578-1.2745,4.6358,.0078,1.278,1.2823,1.2745,3.3578-.0078,4.6358-1.2823,1.278-3.3578,1.2745-4.6357-.0078-.6124-.6144-.9562-1.4464-.9562-2.3138,0-.8714,.3468-1.7069,.964-2.322Z" style="fill: #ffac3e;"/>
  <path d="M16.55,45.2979c0-.5004-.4056-.9059-.906-.9059s-.906,.4056-.906,.9059,.4056,.906,.906,.906,.906-.4056,.906-.906Z" style="fill: #ffac3e;"/>
  <circle cx="20.42" cy="49.4899" r=".906" style="fill: #ffac3e;"/>
  <circle cx="25.7841" cy="46.1929" r=".906" style="fill: #ffac3e;"/>
  <path d="M36.2921,52.267c-.5004,0-.906,.4056-.906,.9059s.4056,.906,.906,.906,.906-.4056,.906-.906-.4056-.9059-.906-.9059Z" style="fill: #ffac3e;"/>
  <path d="M44.178,53.91c-.5004,0-.906,.4056-.906,.9059s.4056,.906,.906,.906,.906-.4056,.906-.906-.4056-.9059-.906-.9059Z" style="fill: #ffac3e;"/>
  <circle cx="49.3411" cy="53.9089" r=".906" style="fill: #ffac3e;"/>
  <path d="M52.83,44.392c-.5004,0-.9059,.4056-.9059,.9059s.4056,.906,.9059,.906,.906-.4056,.906-.906-.4056-.9059-.906-.9059Z" style="fill: #ffac3e;"/>
  <path d="M26.1581,53.119h-2.778c-.4763,.0006-.9509,.0549-1.415,.162-1.0939-.5901-2.3171-.8993-3.5601-.9h-3.316c-3.2089,.0007-6.0651,2.0341-7.116,5.066-.1431,.4139,.0765,.8655,.4905,1.0085,.0835,.0288,.1712,.0435,.2595,.0435H31.488c.438,.0003,.7933-.3546,.7935-.7925,0-.0883-.0146-.176-.0435-.2595-.8972-2.5909-3.3381-4.3285-6.08-4.328Zm-16.2,3.794c1.0663-1.8235,3.0196-2.9448,5.132-2.946h3.3149c2.1125,.001,4.0659,1.1224,5.132,2.946H9.9581Zm15.353,0c-.3557-.8174-.8546-1.5648-1.473-2.207h2.321c1.6418-.0002,3.1723,.8303,4.067,2.207h-4.915Z" style="fill: #ffac3e;"/>
</svg>