<?xml version="1.0" encoding="UTF-8"?>
<svg id="Layer_1" data-name="Layer 1" xmlns="http://www.w3.org/2000/svg" viewBox="0 0 64 64">
  <path d="M43.7783,30.5088c-.9629-.062-1.8926,.2622-2.6152,.9033-.7217,.6406-1.1514,1.5244-1.209,2.4883-.1201,1.9893,1.4004,3.7051,3.3906,3.8252l.0091-.1496h.0002l.002,.003s.0005,0,.0007,0l-.0042,.1506c.0342,.001,.0684,.001,.1025,.001,1.999,0,3.6592-1.5986,3.7227-3.6133,0-1.9087-1.4932-3.4937-3.3994-3.6084Zm-.3232,1.7061c1.0654,0,1.9629,.8398,2.0225,1.9053,0,.9893-.7422,1.8096-1.7266,1.9072-.5127,.0498-1.0088-.0996-1.4043-.4238-.3965-.3242-.6426-.7842-.6934-1.293-.1045-1.0498,.6621-1.9883,1.71-2.0977v.0039c.0312-.0015,.0615-.002,.0918-.002Z" style="fill: #0e88f2;"/>
  <path d="M16.6592,13.7598v7.6431c.0615,1.8911,1.623,3.3936,3.499,3.3936,.0322,0,.0654-.0005,.0977-.0015h23.3281v-.002c1.9229,.063,3.5332-1.4692,3.5938-3.397v-7.6396c-.0605-1.8906-1.6211-3.3926-3.4971-3.3926-.0322,0-.0654,.0005-.0986,.0015H20.2598c-1.9189-.061-3.5371,1.4678-3.6006,3.3945Zm1.7012,.0083c.0537-.957,.8525-1.7041,1.8008-1.7041,.0293,0,.0586,.0005,.0879,.002h23.3398c.999-.0503,1.832,.7163,1.8857,1.6938l.001,7.627c-.0547,.9863-.9092,1.7554-1.8936,1.7046H20.249c-.0293,.0015-.0576,.002-.0859,.002-.9502,0-1.75-.7485-1.8018-1.6982l-.001-7.627Z" style="fill: #0e88f2;"/>
  <path d="M20.4912,30.7241c-.1426-.0078-.2832-.0078-.4258,0-1.9893,.1172-3.5117,1.8311-3.3945,3.8208,.1123,1.917,1.709,3.4014,3.6055,3.4014,.0684,0,.1367-.002,.2061-.0059,.1406,.0078,.2783,.0088,.416-.001,1.9893-.1162,3.5117-1.8301,3.3945-3.8203-.0566-.9639-.4854-1.8477-1.2061-2.4888-.7227-.6416-1.6543-.9619-2.5957-.9062Zm-1.7021,4.8208c-.3242-.3975-.4736-.8965-.4219-1.4062,.0508-.5088,.2979-.9678,.6943-1.291,.3457-.2822,.7695-.4326,1.21-.4326,.0645,0,.1299,.0034,.1963,.0103l.0146,.0015,.0146-.0015c.1289-.0127,.2578-.0127,.3867,0,1.0508,.1064,1.8193,1.0493,1.7129,2.1011-.0508,.5088-.2979,.9678-.6943,1.291-.3965,.3242-.8984,.4756-1.4355,.4219-.1289,.0137-.2578,.0137-.3867,0-.5088-.0508-.9678-.2979-1.291-.6943Z" style="fill: #0e88f2;"/>
  <path d="M45.9297,47.7744l-.04-.0879H19.1396l-2.5508,5.1006h31.6523l-2.3115-5.0127Zm-1.1309,1.6201l.7812,1.6924H19.3398l.8467-1.6924h24.6123Z" style="fill: #0e88f2;"/>
  <path d="M45.6976,43.0461c4.1104-.834,7.2009-4.2543,7.2009-8.3391V13.1748c0-4.6343-4.0107-8.4434-8.96-8.5347-.5859-1.3174-1.8789-2.1572-3.3291-2.123h-15.7783c-1.457-.0327-2.7441,.8047-3.3311,2.1211h-.9629c-5.04,0-9.1406,3.8291-9.1406,8.5356v21.5332c0,4.3002,3.4258,7.8586,7.8604,8.4433L5.6943,61.2393l-.1797,.2402H14.1455l2.1201-4.2422H48.4268l1.918,4.1572,.04,.0879h8.0869l-12.7741-18.4363ZM8.9141,59.7803l11.7627-15.6885h.2578l-1.5889,3.1807h26.3506l-1.4697-3.1807h.127l10.8682,15.6895h-3.748l-1.9189-4.1572-.04-.0879H15.2119l-2.1201,4.2441h-4.1777Zm33.0482-16.5361l1.0749,2.3262H22.0967l1.1642-2.3262h18.7014Zm.6403-36.9043h1.1533c4.1025,0,7.4395,3.0659,7.4395,6.834v21.5332c0,3.7695-3.3369,6.8359-7.4395,6.8359H20.5371c-4.1016,0-7.4375-3.0664-7.4375-6.8359V13.1738c0-3.7681,3.3359-6.834,7.4375-6.834l2.2969-.001,.126-.6904c.1992-.8374,.9561-1.4321,1.8164-1.4321,.0176,0,.0342,0,.0518,.0005h15.7852c.875-.0303,1.6611,.5771,1.8623,1.4238l.127,.6992Z" style="fill: #0e88f2;"/>
</svg>