<?xml version="1.0" encoding="UTF-8"?>
<svg id="Layer_1" data-name="Layer 1" xmlns="http://www.w3.org/2000/svg" viewBox="0 0 64 64">
  <path d="M53.9717,22.9116c-1.2002-2.1094-2.0215-4.3789-2.4375-6.7334l-.0645-.521c-.2451-1.1934-.2363-2.4746,.0117-3.5708,.6133-1.5425-.0449-3.269-1.5332-4.0166-1.4873-.7295-3.291-.1772-4.1123,1.2563L27.3174,41.4004c-1.1191-1.5273-2.5684-2.8213-4.209-3.7568-5.6455-3.2607-12.4072-2.1621-15.0713,2.4512-2.6621,4.6123-.2354,11.0171,5.4111,14.2769,2.127,1.228,4.4736,1.877,6.7861,1.877,3.625-.0005,6.7227-1.6182,8.2861-4.3271l17.7861-30.8076c.5625,1.6089,1.251,3.1729,2.0469,4.6523,1.3145,2.6768,2.5566,5.2051,2.3711,7.8403-.0859,1.5532-.5693,3.0684-1.3955,4.3794-1.8994,2.9575-4.624,5.2051-7.875,6.4961-1.6309,.5957-2.4746,2.4067-1.8809,4.0376,.5732,1.5747,2.2979,2.415,3.9531,1.9092,4.5703-1.7656,8.3965-4.8721,11.0654-8.9839,1.4287-2.2183,2.2656-4.7852,2.4199-7.4199,.3027-4.3188-1.3926-7.7661-3.04-11.1133Zm-12.5508,24.9351c-.2227-.6128,.1035-1.2969,.7324-1.5273,3.6553-1.4512,6.709-3.9678,8.835-7.2783,1.0059-1.5972,1.5938-3.4351,1.6992-5.311,.2207-3.1499-1.1445-5.9302-2.5967-8.8843-1.0947-2.0356-1.957-4.1982-2.5635-6.4272l-.6182-2.2793L26.8184,50.938c-2.1211,3.6714-7.6777,4.4487-12.3867,1.731-4.708-2.7183-6.8135-7.918-4.6924-11.5913,1.2119-2.0991,3.667-3.3521,6.5664-3.3521,1.9697,0,3.9834,.561,5.8242,1.623,1.833,1.0459,3.3457,2.5742,4.374,4.4185l.8438,1.5142L47.5391,10.3076c.3086-.5386,.9824-.749,1.5352-.4761,.582,.292,.8076,.9634,.5371,1.6655-.3467,1.4648-.374,3.0605-.0811,4.4731l.0596,.4951c.4609,2.6157,1.3574,5.1055,2.6562,7.3867,1.5098,3.0747,3.0713,6.2539,2.8037,10.0513-.1348,2.3008-.8643,4.5396-2.1094,6.4736-2.4385,3.7593-5.9229,6.5952-10.0576,8.1953-.6064,.1851-1.2471-.1328-1.4619-.7256Z" style="fill: #0e88f2;"/>
</svg>