<svg id="Layer_1" data-name="Layer 1" xmlns="http://www.w3.org/2000/svg" viewBox="0 0 24 24"><defs><style>.cls-1{fill:#fff;}</style></defs><g id="Group_4383" data-name="Group 4383"><path id="Path_1856" data-name="Path 1856" class="cls-1" d="M6.46013,22.34412v-6.313l-5.46,3.159Z"/><path id="Path_1857" data-name="Path 1857" class="cls-1" d="M14.36013,11.46831l-2.242-1.3-5.245-3.029a.881.881,0,0,0-.811,0l-4.653,2.69h0l-.4.235,7.893,4.562v9.123l4.651-2.686.407-.235a.912.912,0,0,0,.409-.707v-8.653Z"/><path id="Path_1858" data-name="Path 1858" class="cls-1" d="M19.67986,4.53608l-7.2-4.187a.891.891,0,0,0-.814,0l-.473.277-5.193,3.013,10.931,6.352v12.706l.407-.235,1.966-1.148,2.913-1.693.383-.223a.9.9,0,0,0,.4-.706V6.46308Z"/></g></svg>