<svg  id="Layer_1" xmlns="http://www.w3.org/2000/svg" x="0px" y="0px"
	 viewBox="0 0 24 24" style="enable-background:new 0 0 24 24;">
  <defs>
    <style>.cls-1{fill:#71559b;}</style>
  </defs>
<g>
	<path class="cls-1" d="M22,7.5h-4.1C17.7,6.6,16.9,6,16,6c-0.9,0-1.7,0.6-1.9,1.5H7.9C7.7,6.6,6.9,6,6,6C5.1,6,4.3,6.6,4.1,7.5H2v1h2.1
		C4.3,9.4,5.1,10,6,10c0.9,0,1.7-0.6,1.9-1.5h6.1c0.2,0.9,1,1.5,1.9,1.5c0.9,0,1.7-0.6,1.9-1.5H22V7.5z M6,9C5.4,9,5,8.6,5,8
		c0-0.6,0.4-1,1-1c0.6,0,1,0.4,1,1C7,8.6,6.6,9,6,9z M16,9c-0.6,0-1-0.4-1-1c0-0.6,0.4-1,1-1c0.6,0,1,0.4,1,1C17,8.6,16.6,9,16,9z"
		/>
	<path class="cls-1" d="M22,15.5h-2.1c-0.2-0.9-1-1.5-1.9-1.5c-0.9,0-1.7,0.6-1.9,1.5H9.9C9.7,14.6,8.9,14,8,14c-0.9,0-1.7,0.6-1.9,1.5H2v1h4.1
		C6.3,17.4,7.1,18,8,18c0.9,0,1.7-0.6,1.9-1.5h6.1c0.2,0.9,1,1.5,1.9,1.5c0.9,0,1.7-0.6,1.9-1.5H22V15.5z M8,17c-0.6,0-1-0.4-1-1
		c0-0.6,0.4-1,1-1c0.6,0,1,0.4,1,1C9,16.6,8.6,17,8,17z M18,17c-0.6,0-1-0.4-1-1c0-0.6,0.4-1,1-1c0.6,0,1,0.4,1,1
		C19,16.6,18.6,17,18,17z"/>
</g>
</svg>
