<svg id="Layer_1" xmlns="http://www.w3.org/2000/svg" viewBox="0 0 24 24"><defs><style>.cls-1{fill:#71559b;}</style></defs><rect class="cls-1" x="5" y="12" width="2" height="1"/><rect class="cls-1" x="5" y="15" width="2" height="1"/><rect class="cls-1" x="5" y="18" width="2" height="1"/><rect class="cls-1" x="9" y="12" width="2" height="1"/><rect class="cls-1" x="9" y="15" width="2" height="1"/><rect class="cls-1" x="9" y="18" width="2" height="1"/><rect class="cls-1" x="13" y="12" width="2" height="1"/><rect class="cls-1" x="13" y="15" width="2" height="1"/><rect class="cls-1" x="13" y="18" width="2" height="1"/><rect class="cls-1" x="17" y="12" width="2" height="1"/><rect class="cls-1" x="17" y="15" width="2" height="1"/><polygon class="cls-1" points="19.5 20.5 19.5 20.5 20.5 20.5 20.5 20.5 21.5 20.5 21.5 19.5 20.5 19.5 20.5 18 19.5 18 19.5 20.5"/><path class="cls-1" d="m22,16.5563V5h-4.5v-1h-1v1h-4v-1h-1v1h-4v-1h-1v1H2v17h14.5563c.6938,1.1898,1.9698,2,3.4437,2,2.2056,0,4-1.7939,4-4,0-1.4741-.8102-2.7499-2-3.4437ZM3,6h3.5v1h1v-1h4v1h1v-1h4v1h1v-1h3.5v3H3v-3Zm13.142,15H3v-11h18v6.142c-.3215-.0836-.6527-.142-1-.142-2.2056,0-4,1.7939-4,4,0,.3474.0584.6785.142,1Zm3.858,2c-.8832,0-1.6702-.3907-2.2197-1-.2605-.2889-.4628-.6264-.5959-1-.1121-.3143-.1843-.6476-.1843-1,0-1.6543,1.3457-3,3-3,.3524,0,.6857.0722,1,.1843.3736.1332.7111.3354,1,.596.6093.5495,1,1.3365,1,2.2197,0,1.6543-1.3457,3-3,3Z"/></svg>