<svg id="Layer_1" xmlns="http://www.w3.org/2000/svg" viewBox="0 0 24 24">
  <defs>
    <style>.cls-1{fill:#71559b;}</style>
  </defs>
<path class="cls-1" d="M22,7.5h-4.1C17.7,6.6,16.9,6,16,6s-1.7,0.6-1.9,1.5H7.9c0,0-1,0-1.9,0s-1.9,0-1.9,0H2v1h2.1c0,0,1,0,1.9,0s1.9,0,1.9,0H14
	c0.2,0.9,1,1.5,1.9,1.5s1.7-0.6,1.9-1.5H22V7.5z M16,9c-0.6,0-1-0.4-1-1s0.4-1,1-1s1,0.4,1,1S16.6,9,16,9z M22,15.5h-2.1
	c0,0-1.1,0-2,0s-1.8,0-1.8,0H9.9C9.7,14.6,8.9,14,8,14s-1.7,0.6-1.9,1.5H2v1h4.1C6.3,17.4,7.1,18,8,18s1.7-0.6,1.9-1.5H16
	c0,0,1.1,0,2,0s1.8,0,1.8,0H22V15.5z M8,17c-0.6,0-1-0.4-1-1s0.4-1,1-1s1,0.4,1,1S8.6,17,8,17z"/>
</svg>
