<svg id="All" xmlns="http://www.w3.org/2000/svg" width="24" height="24" viewBox="0 0 24 24"><path d="M17,11.51c-.25,2.34-2.14,4.2-4.5,4.43v2.06h2c.28,0,.5.22.5.5,0,.14-.06.26-.15.35-.09.09-.22.15-.35.15h-5c-.28,0-.5-.22-.5-.5,0-.14.06-.26.15-.35s.22-.15.35-.15h2v-2.06c-2.36-.23-4.24-2.09-4.5-4.43-.03-.29.2-.54.49-.54h.02c.25,0,.46.19.49.44.1.9.5,1.74,1.15,2.39,1.11,1.11,2.77,1.49,4.37.89,0,0,.03-.01.04-.02,1.41-.64,2.28-1.88,2.43-3.27.03-.25.24-.44.49-.44h.02c.29,0,.52.25.49.54h0ZM12,6c-1.1,0-2,.9-2,2v3.47c0,1.1.9,2,2,2s2-.9,2-2v-3.47c0-1.1-.9-2-2-2ZM12,5c1.66,0,3,1.34,3,3v3.47c0,1.66-1.34,3-3,3s-3-1.34-3-3v-3.47c0-1.66,1.34-3,3-3Z" fill="#7C59B6"/></svg>