<svg version="1.1" id="All" xmlns="http://www.w3.org/2000/svg" xmlns:xlink="http://www.w3.org/1999/xlink" x="0px" y="0px"
	 viewBox="0 0 24 24" style="enable-background:new 0 0 24 24;" xml:space="preserve">
<g>
	<polygon points="16.3,12.6 16.8,12.6 17.9,14.4 19,14.4 17.4,12.1 18.9,10.1 17.8,10.1 16.7,11.9 16.3,11.9 16.3,10.1 15.4,10.1 
		15.4,14.4 16.3,14.4 	"/>
	<polygon points="6.8,14.5 7.8,14.5 7.8,12.8 9.5,12.8 9.5,11.8 7.8,11.8 7.8,10 6.8,10 6.8,11.8 5,11.8 5,12.8 6.8,12.8 	"/>
	<path fill="#7C59B6" d="M12.8,14.5c0.5,0,1-0.2,1.3-0.5c0.3-0.4,0.5-0.8,0.5-1.3v-0.8c0-0.5-0.2-1-0.5-1.3c-0.3-0.4-0.8-0.5-1.3-0.5
		c-0.5,0-1,0.2-1.3,0.5c-0.3,0.4-0.5,0.8-0.5,1.3v0.8c0,0.5,0.2,1,0.5,1.3C11.8,14.3,12.3,14.5,12.8,14.5z M11.9,11.9
		c0-0.3,0.1-0.6,0.2-0.8c0.2-0.2,0.4-0.3,0.7-0.3c0.3,0,0.5,0.1,0.7,0.3c0.2,0.2,0.3,0.5,0.3,0.8v0.8c0,0.3-0.1,0.6-0.2,0.8
		c-0.2,0.2-0.4,0.3-0.7,0.3c-0.3,0-0.5-0.1-0.7-0.3c-0.2-0.2-0.3-0.5-0.2-0.8L11.9,11.9z"/>
	<path fill="#7C59B6" d="M2,6v12h20V6H2z M21,17H3V7h18V17z"/>
</g>
</svg>
