<svg version="1.1" id="All" xmlns="http://www.w3.org/2000/svg" xmlns:xlink="http://www.w3.org/1999/xlink" x="0px" y="0px"
	 viewBox="0 0 24 24" style="enable-background:new 0 0 24 24;" xml:space="preserve">
<g>
	<path fill="#7C59B6" d="M2,6v12h20V6H2z M21,8v8v1h-1H4H3v-1V8V7h1h16h1V8z"/>
	<path fill="#7C59B6" d="M9.8,13.8c0.3,0,0.5-0.1,0.7-0.3c0.2-0.2,0.3-0.5,0.2-0.8v-0.8c0-0.3-0.1-0.6-0.3-0.8c-0.2-0.2-0.4-0.3-0.7-0.3
		c-0.3,0-0.5,0.1-0.7,0.3c-0.2,0.2-0.3,0.5-0.2,0.8l0,0.8c0,0.3,0.1,0.6,0.2,0.8C9.3,13.7,9.5,13.8,9.8,13.8z"/>
	<path fill="#7C59B6" d="M4,16h16V8H4V16z M12.4,10.1h0.9v1.8h0.4l1.1-1.8h1.1l-1.4,2l1.6,2.3h-1.1l-1.2-1.8h-0.5v1.8h-0.9V10.1z M8,11.9
		c0-0.5,0.2-1,0.5-1.3C8.8,10.2,9.3,10,9.8,10c0.5,0,1,0.2,1.3,0.5c0.3,0.4,0.5,0.8,0.5,1.3v0.8c0,0.5-0.2,1-0.5,1.3
		c-0.3,0.4-0.8,0.5-1.3,0.5c-0.5,0-1-0.2-1.3-0.5C8.2,13.6,8,13.1,8,12.6V11.9z"/>
</g>
</svg>
